<svg xmlns="http://www.w3.org/2000/svg" xmlns:xlink="http://www.w3.org/1999/xlink" width="375" height="661" viewBox="0 0 375 661">
    <defs>
        <path id="a" d="M.5 0h375v661H.5z"/>
        <path id="c" d="M0 .306h155.89v176.687H0z"/>
        <path id="e" d="M.029.07h97.8V56.93H.03z"/>
    </defs>
    <g fill="none" fill-rule="evenodd">
        <mask id="b" fill="#fff">
            <use xlink:href="#a"/>
        </mask>
        <use fill="#050505" xlink:href="#a"/>
        <g mask="url(#b)" opacity=".75">
            <path fill="#545454" d="M373.7 699a.968.968 0 0 1-.837-.477.956.956 0 0 1 .357-1.316l117.058-67.074a.97.97 0 0 1 1.326.346.969.969 0 0 1-.356 1.316l-117.059 67.082a1.051 1.051 0 0 1-.489.123M368.701 694a.96.96 0 0 1-.489-1.793l117.073-67.076a.962.962 0 0 1 1.317.354.954.954 0 0 1-.356 1.307l-117.064 67.076a.942.942 0 0 1-.48.132"/>
            <path fill="#545454" d="M362.66 829c-1.606 0-2.92-1.287-2.92-2.887l-.009-134.148a2.89 2.89 0 0 1 1.464-2.5l117.163-67.077a2.934 2.934 0 0 1 3.985 1.056 2.888 2.888 0 0 1-1.065 3.952L365.571 693.64v132.473c0 1.6-1.306 2.887-2.912 2.887M330.686 674a1.944 1.944 0 0 1-1.697-.98 1.966 1.966 0 0 1 .715-2.67l117.116-68.086a1.935 1.935 0 0 1 2.653.712 1.98 1.98 0 0 1-.707 2.68L331.65 673.731c-.308.176-.64.268-.965.268"/>
            <path fill="#545454" d="M332.793 674a1.96 1.96 0 0 1-.973-.268L214.7 605.655c-.93-.544-1.238-1.741-.715-2.68.55-.929 1.73-1.255 2.662-.711l117.119 68.085a1.97 1.97 0 0 1 .707 2.671 1.928 1.928 0 0 1-1.68.98"/>
            <path fill="#545454" d="M215.624 607a2.88 2.88 0 0 1-2.506-1.435 2.865 2.865 0 0 1 1.064-3.927l42.222-24.252a2.891 2.891 0 0 1 3.94 1.05 2.865 2.865 0 0 1-1.064 3.926l-42.222 24.253a2.832 2.832 0 0 1-1.434.385"/>
            <path fill="#545454" d="M331.235 626c-.497 0-1.01-.134-1.449-.394L213.188 557.48a2.955 2.955 0 0 1-1.068-4.013 2.878 2.878 0 0 1 3.958-1.073l115.157 67.28 115.149-67.28a2.876 2.876 0 0 1 3.958 1.073 2.955 2.955 0 0 1-1.068 4.013l-116.598 68.126c-.439.26-.944.394-1.44.394"/>
            <path fill="#545454" d="M333.737 601c-.332 0-.681-.084-.972-.26L215.7 532.657c-.93-.544-1.238-1.741-.715-2.68a1.938 1.938 0 0 1 2.66-.711l116.092 67.522 116.084-67.522a1.927 1.927 0 0 1 2.652.712 1.981 1.981 0 0 1-.707 2.68L334.71 600.74c-.3.176-.64.26-.973.26M329.697 607a.944.944 0 0 1-.832-.478.961.961 0 0 1 .346-1.32l116.073-67.068a.958.958 0 0 1 1.32.346.967.967 0 0 1-.355 1.32l-116.074 67.076a.984.984 0 0 1-.478.124M329.697 611a.961.961 0 0 1-.832-.478.96.96 0 0 1 .346-1.32l116.073-67.072a.965.965 0 0 1 1.32.347.97.97 0 0 1-.355 1.32l-116.074 67.071a.91.91 0 0 1-.478.132M329.697 616a.952.952 0 0 1-.832-.487.952.952 0 0 1 .346-1.311l116.073-67.074a.967.967 0 0 1 1.32.355.97.97 0 0 1-.355 1.32l-116.074 67.065a.91.91 0 0 1-.478.132"/>
            <path fill="#545454" d="M330.773 607c-.165 0-.33-.041-.486-.124l-116.074-67.078a.967.967 0 0 1-.354-1.32.955.955 0 0 1 1.31-.346l116.082 67.07a.961.961 0 0 1 .346 1.32.948.948 0 0 1-.824.478M330.773 611a.96.96 0 0 1-.486-.132l-116.074-67.071a.97.97 0 0 1-.354-1.32.955.955 0 0 1 1.31-.347l116.082 67.072a.96.96 0 0 1 .346 1.32.948.948 0 0 1-.824.478M330.773 616a.96.96 0 0 1-.486-.132l-116.074-67.065a.97.97 0 0 1-.354-1.32.958.958 0 0 1 1.31-.355l116.082 67.074a.952.952 0 0 1 .346 1.311.939.939 0 0 1-.824.487M214.637 537a2.875 2.875 0 0 1-2.517-1.475c-.803-1.399-.323-3.2 1.068-4.005l116.598-68.124a2.835 2.835 0 0 1 2.89 0l116.598 68.124c1.39.805 1.87 2.606 1.068 4.005a2.872 2.872 0 0 1-3.958 1.081l-115.149-67.278-115.157 67.278a2.809 2.809 0 0 1-1.44.394"/>
            <path fill="#545454" d="M215.735 558c-1.669 0-3.004-1.25-3.004-2.794v-24.412c0-1.536 1.335-2.794 3.004-2.794 1.652 0 2.996 1.258 2.996 2.794v24.412c0 1.544-1.344 2.794-2.996 2.794M330.234 625c-.828 0-1.503-.861-1.503-1.92v-25.169c0-1.05.675-1.911 1.503-1.911.829 0 1.497.861 1.497 1.911v25.17c0 1.058-.668 1.919-1.497 1.919M247.726 607c-.339 0-.677-.184-.864-.508-.27-.491-.11-1.122.364-1.402l25.024-14.95c.465-.29 1.075-.114 1.346.377.28.482.11 1.113-.364 1.393l-25.024 14.959a.953.953 0 0 1-.482.131M255.727 609a.976.976 0 0 1-.858-.519 1.026 1.026 0 0 1 .365-1.398l25.003-14.94a.964.964 0 0 1 1.36.377c.272.493.12 1.117-.365 1.399l-25.012 14.94a.936.936 0 0 1-.493.141M244.723 602a.969.969 0 0 1-.86-.51 1.044 1.044 0 0 1 .366-1.401l25.011-14.948a.969.969 0 0 1 1.353.37c.281.502.12 1.127-.366 1.41l-25.002 14.947a.955.955 0 0 1-.502.132M264.726 614a.962.962 0 0 1-.86-.508 1.04 1.04 0 0 1 .366-1.403l24.995-14.947a.987.987 0 0 1 1.372.368c.272.491.11 1.114-.367 1.394L265.23 613.87a1.027 1.027 0 0 1-.503.131M270.727 618a.997.997 0 0 1-.866-.51 1.057 1.057 0 0 1 .365-1.405l25.02-14.942a.961.961 0 0 1 1.35.368c.28.492.11 1.125-.357 1.406l-25.02 14.942a.935.935 0 0 1-.492.141M277.636 619a.857.857 0 0 1-.758-.456 1.001 1.001 0 0 1 .27-1.336l22.197-15.06c.426-.282.975-.15 1.246.299.263.456.147 1.054-.278 1.344l-22.197 15.06a.862.862 0 0 1-.48.149M284.727 627a.978.978 0 0 1-.864-.51 1.053 1.053 0 0 1 .364-1.404l25.012-14.95a.977.977 0 0 1 1.357.378c.28.483.11 1.115-.365 1.396l-25.02 14.958a.955.955 0 0 1-.484.132M290.719 631a.983.983 0 0 1-.856-.517 1.052 1.052 0 0 1 .364-1.404l25.018-14.943a.979.979 0 0 1 1.356.377 1.047 1.047 0 0 1-.364 1.395l-25.018 14.952c-.161.087-.331.14-.5.14M297.72 636a.972.972 0 0 1-.856-.508c-.27-.5-.118-1.122.365-1.403l25.022-14.953a.969.969 0 0 1 1.347.377c.27.5.118 1.122-.365 1.402l-25.022 14.954c-.16.087-.322.131-.491.131"/>
            <path fill="#545454" d="M306.727 640a.976.976 0 0 1-.863-.508c-.27-.491-.118-1.114.364-1.394l25.017-14.962a.964.964 0 0 1 1.345.377c.288.49.119 1.113-.364 1.394l-25.016 14.962a.892.892 0 0 1-.483.131M313.697 641a.978.978 0 0 1-.84-.473.929.929 0 0 1 .354-1.276l96.077-54.126a.984.984 0 0 1 1.317.345.938.938 0 0 1-.354 1.284l-96.069 54.118a.978.978 0 0 1-.485.128M320.684 646a.952.952 0 0 1-.823-.466.927.927 0 0 1 .346-1.284l96.087-54.127a.982.982 0 0 1 1.31.345.931.931 0 0 1-.355 1.284l-96.08 54.12a.956.956 0 0 1-.485.128M326.69 649a.965.965 0 0 1-.83-.474.927.927 0 0 1 .345-1.276l96.085-54.125a.982.982 0 0 1 1.317.345.938.938 0 0 1-.354 1.284l-96.085 54.118c-.148.08-.313.128-.477.128M268.548 803a2.915 2.915 0 0 1-2.519-1.444 2.866 2.866 0 0 1 1.06-3.932c9.28-5.302 14.193-17.128 13.82-33.272-.389-16.783-6.42-36.005-16.984-54.134-10.564-18.13-24.358-32.911-38.832-41.635-13.944-8.396-26.728-10.103-36.008-4.793a2.922 2.922 0 0 1-3.968-1.059 2.859 2.859 0 0 1 1.069-3.923c11.201-6.41 26.09-4.686 41.922 4.859 15.286 9.208 29.794 24.728 40.838 43.678 11.044 18.942 17.357 39.149 17.763 56.868.43 18.351-5.51 31.991-16.72 38.401a2.942 2.942 0 0 1-1.44.386"/>
            <path fill="#545454" d="M156.568 681c-.97 0-1.932-.503-2.457-1.384-.784-1.322-.315-3.005 1.043-3.768l29.333-16.478c1.35-.763 3.08-.307 3.864 1.014.784 1.314.315 2.997-1.043 3.76l-29.325 16.478a2.887 2.887 0 0 1-1.415.378M300.637 753h-.008a1.951 1.951 0 0 1-1.936-1.95l.15-62.196-54.136-31.235a1.933 1.933 0 0 1-.714-2.647 1.942 1.942 0 0 1 2.65-.714l55.116 31.799c.598.348.972.988.972 1.685l-.15 63.316a1.956 1.956 0 0 1-1.944 1.942"/>
            <path fill="#545454" d="M231.742 672c-.483 0-.983-.172-1.371-.525-.819-.713-.853-1.926-.095-2.705l12.965-13.164c.758-.77 2.043-.812 2.853-.09a1.85 1.85 0 0 1 .095 2.705l-12.973 13.172a2.062 2.062 0 0 1-1.474.607M215.735 662c-1.66 0-3.004-1.272-3.004-2.843v-55.314c0-1.571 1.344-2.843 3.004-2.843 1.652 0 2.996 1.272 2.996 2.843v55.314c0 1.571-1.344 2.843-2.996 2.843"/>
            <path fill="#545454" d="M247.339 659c-.768 0-1.392-.417-1.404-.94l-.204-34.12c0-.523.636-.94 1.404-.94.78 0 1.404.417 1.416.931l.18 34.122c.012.521-.624.947-1.38.947h-.012M252.333 661c-.765 0-1.399-.426-1.399-.94l-.203-34.12c0-.523.622-.94 1.398-.94h.012c.753 0 1.387.41 1.387.931l.203 34.122c0 .521-.622.939-1.398.947M259.315 665c-.768 0-1.392-.426-1.404-.94l-.18-34.12c0-.514.612-.94 1.392-.94.768 0 1.392.417 1.404.931l.204 34.122c0 .521-.636.939-1.404.947h-.012M265.339 667c-.792 0-1.416-.417-1.416-.931l-.192-34.13c0-.513.624-.931 1.392-.939.744.016 1.404.417 1.404.94l.204 34.12c0 .523-.624.932-1.392.94M268.339 671c-.78 0-1.404-.417-1.404-.94l-.204-34.12c0-.514.624-.94 1.392-.94.78 0 1.416.417 1.416.931l.192 34.13c.012.513-.624.931-1.392.939M274.327 674c-.768 0-1.404-.418-1.404-.932l-.192-34.128c-.012-.522.612-.94 1.392-.94h.012c.768 0 1.392.418 1.404.932l.192 34.128c0 .522-.624.94-1.404.94M279.315 678c-.768 0-1.392-.418-1.392-.932l-.192-34.128c0-.514.612-.94 1.392-.94h.012c.756 0 1.392.418 1.392.932l.204 34.128c0 .522-.624.94-1.404.94h-.012M285.333 680c-.777 0-1.41-.418-1.41-.932l-.192-34.128c0-.514.622-.94 1.386-.94h.012c.753 0 1.387.418 1.387.932l.215 34.128c0 .522-.633.94-1.398.94M291.333 683c-.777 0-1.399-.417-1.399-.931l-.203-34.122c0-.521.622-.939 1.386-.947h.012c.765 0 1.387.417 1.387.94l.215 34.12c0 .514-.633.94-1.398.94M297.333 686c-.765 0-1.387-.426-1.387-.94l-.215-34.12c0-.523.633-.94 1.398-.94.777 0 1.41.417 1.41.931l.192 34.122c0 .521-.622.947-1.386.947h-.012M300.327 690c-.768 0-1.404-.418-1.404-.94l-.192-34.12c0-.522.612-.94 1.392-.94.768 0 1.404.41 1.404.932l.204 34.128c0 .514-.624.94-1.404.94"/>
            <g transform="translate(46.731 469)">
                <mask id="d" fill="#fff">
                    <use xlink:href="#c"/>
                </mask>
                <path fill="#CEB87C" d="M78.29 176.993c-.333 0-.666-.082-.965-.254L1.32 133.824a1.9 1.9 0 0 1-.973-1.65l-.35-86.428a1.888 1.888 0 0 1 .965-1.658L76.618.566a1.965 1.965 0 0 1 1.938-.008l76.012 42.914c.599.345.973.977.982 1.658l.34 86.428a1.913 1.913 0 0 1-.956 1.667L79.271 176.73c-.308.173-.64.263-.981.263M4.23 131.05l74.05 41.806 73.726-42.39-.333-84.211L77.599 4.44 3.89 46.838l.341 84.212" mask="url(#d)"/>
            </g>
            <path fill="#CEB87C" d="M124.46 645c-.686 0-1.262-.416-1.262-.927l-.467-84.138c0-.511.576-.935 1.272-.935.706 0 1.271.416 1.271.927l.457 84.138c0 .511-.554.935-1.26.935h-.012M125.753 559a.977.977 0 0 1-.474-.126l-76.066-44.04c-.458-.26-.616-.867-.358-1.339a.98.98 0 0 1 1.331-.37l76.058 44.03c.466.27.624.876.358 1.348a.972.972 0 0 1-.85.497"/>
            <path fill="#CEB87C" d="M125.755 570a.954.954 0 0 1-.474-.126L49.226 525.84a.989.989 0 0 1-.366-1.348.961.961 0 0 1 1.323-.362l76.055 44.024a1 1 0 0 1 .366 1.348.982.982 0 0 1-.849.497M125.763 580c-.158 0-.333-.042-.49-.126l-76.05-44.032a.973.973 0 0 1-.357-1.34.953.953 0 0 1 1.323-.37l76.057 44.032c.457.27.624.876.358 1.34a.96.96 0 0 1-.84.496M125.755 587a.932.932 0 0 1-.483-.135l-76.054-44.03a.985.985 0 0 1-.358-1.338.962.962 0 0 1 1.332-.363l76.054 44.022c.457.27.624.875.358 1.347a.972.972 0 0 1-.85.497M125.758 597a.984.984 0 0 1-.483-.126L49.23 552.84a.983.983 0 0 1-.366-1.348.961.961 0 0 1 1.323-.362l76.045 44.024c.475.278.641.876.366 1.348a.96.96 0 0 1-.84.497M125.763 607a.95.95 0 0 1-.49-.126L49.215 562.84a.993.993 0 0 1-.358-1.339.966.966 0 0 1 1.332-.37l76.048 44.033c.466.27.632.876.366 1.347a.968.968 0 0 1-.84.489M125.761 617a.921.921 0 0 1-.482-.126l-76.065-44.038a1 1 0 0 1-.357-1.34.965.965 0 0 1 1.331-.362l76.056 44.03c.466.27.624.876.358 1.339a.95.95 0 0 1-.84.497M125.753 625a.954.954 0 0 1-.474-.126l-76.063-44.035a1.003 1.003 0 0 1-.358-1.348.97.97 0 0 1 1.324-.362l76.054 44.035a.98.98 0 0 1 .366 1.339.962.962 0 0 1-.849.497M125.759 636c-.158 0-.333-.042-.483-.126l-76.058-44.038a.986.986 0 0 1-.358-1.34.954.954 0 0 1 1.323-.362l76.058 44.03c.466.27.625.876.367 1.339a.982.982 0 0 1-.85.497M124.665 559a.92.92 0 0 1-.804-.482.984.984 0 0 1 .338-1.33l73.116-44.057a.924.924 0 0 1 1.286.35.986.986 0 0 1-.338 1.329l-73.116 44.057a.92.92 0 0 1-.482.133"/>
            <path fill="#545454" d="M317.227 690c-11.85 0-21.496-9.646-21.496-21.496 0-11.858 9.646-21.504 21.496-21.504 11.858 0 21.504 9.646 21.504 21.504 0 11.85-9.646 21.496-21.504 21.496m0-40.963c-10.726 0-19.459 8.733-19.459 19.467 0 10.735 8.733 19.459 19.459 19.459 10.734 0 19.467-8.724 19.467-19.459 0-10.734-8.733-19.467-19.467-19.467"/>
            <path fill="#545454" d="M317.228 672c-.829 0-1.497-.86-1.497-1.929V450.937c0-1.076.668-1.937 1.497-1.937.828 0 1.503.86 1.503 1.937v219.134c0 1.068-.675 1.929-1.503 1.929"/>
            <g transform="translate(218.731 394)">
                <mask id="f" fill="#fff">
                    <use xlink:href="#e"/>
                </mask>
                <path fill="#545454" d="M96.856 56.929a1.04 1.04 0 0 1-.48-.123L.51 1.859A.965.965 0 0 1 .155.548a.965.965 0 0 1 1.32-.345l95.868 54.94a.951.951 0 0 1 .355 1.31.977.977 0 0 1-.842.476" mask="url(#f)"/>
            </g>
            <path fill="#545454" d="M314.765 456a.957.957 0 0 1-.475-.13l-95.082-54.115a.938.938 0 0 1-.352-1.283.97.97 0 0 1 1.31-.347l95.082 54.108c.459.266.622.839.352 1.29a.961.961 0 0 1-.835.477M314.765 464a.957.957 0 0 1-.475-.13l-95.082-54.106a.95.95 0 0 1-.352-1.292.97.97 0 0 1 1.31-.347l95.082 54.116c.459.258.622.839.352 1.29a.97.97 0 0 1-.835.469M314.765 471a1.05 1.05 0 0 1-.475-.13l-95.082-54.111a.94.94 0 0 1-.352-1.283.964.964 0 0 1 1.31-.347l95.082 54.112a.924.924 0 0 1 .352 1.283.961.961 0 0 1-.835.476M314.765 479c-.155 0-.32-.04-.475-.121l-95.082-54.115a.95.95 0 0 1-.352-1.292.97.97 0 0 1 1.31-.347l95.082 54.116c.459.266.622.839.352 1.29a.953.953 0 0 1-.835.469M314.765 485c-.155 0-.32-.04-.475-.121l-95.082-54.123a.938.938 0 0 1-.352-1.284.97.97 0 0 1 1.31-.347l95.082 54.116c.459.258.622.839.352 1.283a.961.961 0 0 1-.835.476M314.765 493c-.155 0-.32-.04-.475-.121l-95.082-54.115a.95.95 0 0 1-.352-1.292.97.97 0 0 1 1.31-.347l95.082 54.116c.459.266.622.839.352 1.29a.97.97 0 0 1-.835.469M314.765 500a.946.946 0 0 1-.475-.121l-95.082-54.12a.94.94 0 0 1-.352-1.283.964.964 0 0 1 1.31-.347l95.082 54.112c.459.266.622.839.352 1.29a.97.97 0 0 1-.835.469M314.765 507a.957.957 0 0 1-.475-.13l-95.082-54.114a.938.938 0 0 1-.352-1.284.97.97 0 0 1 1.31-.347l95.082 54.116c.459.266.622.839.352 1.29a.953.953 0 0 1-.835.469M314.765 516a.957.957 0 0 1-.475-.13l-95.082-54.106a.95.95 0 0 1-.352-1.292.97.97 0 0 1 1.31-.347l95.082 54.116c.459.258.622.839.352 1.29a.97.97 0 0 1-.835.469M314.765 523c-.155 0-.32-.04-.475-.121l-95.082-54.118a.947.947 0 0 1-.352-1.291.961.961 0 0 1 1.31-.34l95.082 54.11c.459.267.622.84.352 1.292a.953.953 0 0 1-.835.468M314.765 530c-.155 0-.32-.04-.475-.121l-95.082-54.123a.938.938 0 0 1-.352-1.284.97.97 0 0 1 1.31-.347l95.082 54.124a.924.924 0 0 1 .352 1.283.953.953 0 0 1-.835.468M314.765 536c-.155 0-.32-.04-.475-.121l-95.082-54.123a.938.938 0 0 1-.352-1.284.97.97 0 0 1 1.31-.347l95.082 54.124c.459.25.622.83.352 1.283a.97.97 0 0 1-.835.468M314.765 544c-.155 0-.32-.04-.475-.121l-95.082-54.123a.938.938 0 0 1-.352-1.284.97.97 0 0 1 1.31-.347l95.082 54.116c.459.266.622.839.352 1.29a.97.97 0 0 1-.835.469M314.765 552c-.155 0-.32-.04-.475-.121l-95.082-54.123a.94.94 0 0 1-.352-1.284.97.97 0 0 1 1.31-.347l95.082 54.116c.459.266.622.839.352 1.29a.97.97 0 0 1-.835.469"/>
            <path fill="#545454" d="M318.231 886c-127.095 0-230.5-103.175-230.5-229.996 0-126.83 103.405-230.004 230.5-230.004s230.5 103.175 230.5 230.004c0 126.821-103.405 229.996-230.5 229.996m0-459.032c-126.556 0-229.522 102.744-229.522 229.036 0 126.284 102.966 229.028 229.522 229.028 126.564 0 229.53-102.744 229.53-229.028 0-126.292-102.966-229.036-229.53-229.036"/>
            <path fill="#545454" d="M119.151 544c-.22 0-.42-.21-.42-.451v-2.73c0-.163.085-.319.214-.389l2.157-1.369a.397.397 0 0 1 .57.164.47.47 0 0 1-.15.622l-1.958 1.236v2.466c0 .241-.178.451-.413.451M125.208 537a.51.51 0 0 1-.418-.246.48.48 0 0 1 .18-.647l4.917-2.841a.471.471 0 0 1 .655.172c.14.229.058.516-.172.655l-4.925 2.841a.47.47 0 0 1-.237.066m9.841-5.683a.48.48 0 0 1-.238-.893l4.918-2.834a.473.473 0 0 1 .655.172.475.475 0 0 1-.18.656l-4.909 2.833a.463.463 0 0 1-.246.066m9.842-5.676a.465.465 0 0 1-.41-.237.484.484 0 0 1 .172-.663l4.917-2.834a.491.491 0 0 1 .656.172c.123.238.057.524-.18.655l-4.917 2.842a.494.494 0 0 1-.238.065m9.842-5.683a.45.45 0 0 1-.41-.237.457.457 0 0 1 .172-.647l4.917-2.842a.484.484 0 0 1 .655.172c.131.23.05.524-.172.655l-4.925 2.842a.485.485 0 0 1-.237.057m9.841-5.675a.471.471 0 0 1-.418-.238.468.468 0 0 1 .18-.655l4.917-2.833a.465.465 0 0 1 .648.172c.139.229.057.524-.172.655l-4.917 2.833a.436.436 0 0 1-.238.066m9.834-5.675a.476.476 0 0 1-.41-.246.472.472 0 0 1 .172-.647l4.917-2.834a.471.471 0 0 1 .655.172.472.472 0 0 1-.172.647l-4.925 2.842a.47.47 0 0 1-.237.066m9.841-5.684a.48.48 0 0 1-.418-.237.502.502 0 0 1 .18-.655l4.917-2.834a.478.478 0 1 1 .476.827l-4.917 2.842a.485.485 0 0 1-.238.057m9.842-5.675a.458.458 0 0 1-.41-.238.461.461 0 0 1 .172-.646l4.917-2.842a.473.473 0 0 1 .655.172.475.475 0 0 1-.18.655l-4.908 2.842a.54.54 0 0 1-.246.057m9.85-5.675a.47.47 0 0 1-.418-.246.47.47 0 0 1 .164-.647l4.924-2.842a.483.483 0 0 1 .656.18.466.466 0 0 1-.18.648l-4.917 2.841a.41.41 0 0 1-.23.066m9.834-5.675a.479.479 0 0 1-.418-.246.476.476 0 0 1 .172-.655l4.925-2.834a.484.484 0 0 1 .656.172c.13.23.049.524-.172.655l-4.925 2.834a.47.47 0 0 1-.238.074m9.833-5.684a.468.468 0 0 1-.41-.237.464.464 0 0 1 .181-.647l4.917-2.842a.473.473 0 0 1 .655.172c.131.23.05.524-.172.655l-4.933 2.842a.464.464 0 0 1-.238.057m9.842-5.675a.51.51 0 0 1-.418-.238.49.49 0 0 1 .18-.655l4.925-2.833a.464.464 0 0 1 .648.172c.139.23.057.516-.172.655l-4.925 2.833a.401.401 0 0 1-.238.066m9.842-5.683a.49.49 0 0 1-.418-.238.49.49 0 0 1 .18-.647l4.925-2.842a.468.468 0 0 1 .647.18.474.474 0 0 1-.18.648l-4.909 2.841a.54.54 0 0 1-.245.058m9.841-5.676c-.164 0-.336-.082-.41-.237a.474.474 0 0 1 .173-.655l4.924-2.834a.465.465 0 0 1 .648.172.475.475 0 0 1-.18.655l-4.909 2.842a.671.671 0 0 1-.246.057m9.842-5.675a.458.458 0 0 1-.41-.237.477.477 0 0 1 .164-.655l4.925-2.842a.491.491 0 0 1 .655.172c.132.23.05.524-.172.663l-4.925 2.834a.436.436 0 0 1-.237.065m9.841-5.675a.479.479 0 0 1-.417-.246.46.46 0 0 1 .18-.647l4.916-2.841a.464.464 0 0 1 .648.172c.14.229.057.524-.164.655l-4.933 2.833a.383.383 0 0 1-.23.074m9.834-5.683a.49.49 0 0 1-.418-.238.491.491 0 0 1 .18-.655l4.917-2.834a.47.47 0 0 1 .655.172c.14.23.058.525-.172.656l-4.925 2.833a.401.401 0 0 1-.237.066m9.841-5.676a.5.5 0 0 1-.417-.237.497.497 0 0 1 .18-.655l4.916-2.842a.48.48 0 0 1 .656.18c.14.23.057.516-.172.655l-4.925 2.834a.47.47 0 0 1-.238.065m9.842-5.675a.477.477 0 0 1-.238-.893l4.925-2.841a.475.475 0 1 1 .467.827l-4.908 2.842a.552.552 0 0 1-.246.065M321.246 429a.35.35 0 0 1-.24-.082l-2.281-1.626-2.273 1.626c-.232.164-.531.072-.656-.216-.132-.289-.058-.649.175-.824l2.513-1.8a.427.427 0 0 1 .49 0l2.513 1.8c.24.175.307.535.183.824-.092.195-.258.298-.424.298M502.25 537a.427.427 0 0 1-.237-.074l-4.925-2.833a.489.489 0 0 1-.172-.655.477.477 0 0 1 .656-.172l4.925 2.841a.46.46 0 0 1 .164.647.457.457 0 0 1-.41.246m-9.842-5.683a.436.436 0 0 1-.237-.066l-4.925-2.833a.477.477 0 0 1-.164-.656.465.465 0 0 1 .647-.172l4.917 2.834c.238.131.32.426.18.655a.488.488 0 0 1-.418.238m-9.833-5.676a.448.448 0 0 1-.238-.065l-4.924-2.842a.47.47 0 0 1-.173-.655.485.485 0 0 1 .656-.172l4.908 2.834c.238.139.312.434.189.663a.51.51 0 0 1-.418.237m-9.841-5.683a.485.485 0 0 1-.238-.057l-4.917-2.842a.475.475 0 0 1-.18-.655.488.488 0 0 1 .655-.18l4.917 2.841a.5.5 0 0 1 .18.656.49.49 0 0 1-.417.237m-9.842-5.675a.463.463 0 0 1-.246-.066l-4.908-2.833a.475.475 0 0 1-.18-.655.465.465 0 0 1 .647-.172l4.925 2.833c.23.131.311.426.172.655a.475.475 0 0 1-.41.238m-9.85-5.675a.548.548 0 0 1-.237-.066l-4.909-2.842a.467.467 0 0 1-.18-.647.483.483 0 0 1 .655-.18l4.917 2.842c.23.131.312.426.172.647a.47.47 0 0 1-.418.246m-9.833-5.684a.507.507 0 0 1-.238-.057l-4.924-2.842a.481.481 0 0 1-.173-.655.482.482 0 0 1 .656-.172l4.925 2.834c.221.139.303.425.164.655a.45.45 0 0 1-.41.237m-9.833-5.675a.517.517 0 0 1-.246-.057l-4.925-2.842a.487.487 0 0 1-.172-.655.473.473 0 0 1 .656-.172l4.916 2.842c.238.122.32.417.18.646a.468.468 0 0 1-.41.238m-9.84-5.675a.448.448 0 0 1-.238-.066l-4.925-2.841a.478.478 0 0 1 .475-.827l4.925 2.841c.23.131.303.426.172.647a.486.486 0 0 1-.41.246m-9.841-5.684a.463.463 0 0 1-.246-.065l-4.917-2.834a.482.482 0 0 1-.18-.655.482.482 0 0 1 .656-.172l4.924 2.834c.222.139.304.434.18.655a.49.49 0 0 1-.417.237m-9.842-5.675a.463.463 0 0 1-.246-.065l-4.916-2.834a.48.48 0 0 1-.172-.655.475.475 0 0 1 .647-.18l4.925 2.842a.487.487 0 0 1 .172.655.485.485 0 0 1-.41.237m-9.85-5.675a.489.489 0 0 1-.229-.066l-4.917-2.841a.467.467 0 0 1-.18-.647.483.483 0 0 1 .656-.18l4.916 2.841c.23.131.312.426.172.647a.47.47 0 0 1-.417.246m-9.834-5.683a.418.418 0 0 1-.237-.066l-4.925-2.833a.487.487 0 0 1-.172-.656c.123-.229.426-.303.655-.172l4.925 2.842a.477.477 0 0 1 .172.647.471.471 0 0 1-.418.238m-9.841-5.676a.44.44 0 0 1-.23-.065l-4.933-2.834a.477.477 0 0 1-.164-.655.469.469 0 0 1 .648-.172l4.916 2.834a.475.475 0 0 1-.237.892m-9.834-5.675a.448.448 0 0 1-.237-.065l-4.933-2.842a.487.487 0 0 1-.172-.655.487.487 0 0 1 .655-.172l4.917 2.842c.23.13.311.425.18.655a.477.477 0 0 1-.41.237m-9.841-5.675a.475.475 0 0 1-.246-.074l-4.917-2.833a.477.477 0 1 1 .475-.827l4.926 2.841a.477.477 0 0 1 .172.647.486.486 0 0 1-.41.246m-9.842-5.683a.463.463 0 0 1-.245-.066l-4.917-2.833a.48.48 0 0 1-.172-.656.465.465 0 0 1 .647-.172l4.925 2.834c.23.14.303.426.172.647a.45.45 0 0 1-.41.246m-9.85-5.676a.548.548 0 0 1-.237-.065l-4.917-2.834a.476.476 0 0 1-.172-.655.483.483 0 0 1 .656-.18l4.917 2.842a.48.48 0 0 1-.246.892m-9.834-5.675a.47.47 0 0 1-.237-.065l-4.925-2.842a.487.487 0 0 1-.172-.655.49.49 0 0 1 .655-.172l4.909 2.842c.238.122.32.417.18.646a.457.457 0 0 1-.41.246M119.235 761c-.265 0-.504-.212-.504-.473v-5.655c0-.261.24-.473.504-.473a.48.48 0 0 1 .496.473v5.655a.48.48 0 0 1-.496.473m0-11.295c-.265 0-.504-.22-.504-.48v-5.648c0-.27.24-.473.504-.473.282 0 .496.204.496.473v5.647c0 .261-.214.481-.496.481m0-11.303c-.265 0-.504-.212-.504-.48v-5.648c0-.261.24-.473.504-.473a.48.48 0 0 1 .496.473v5.647c0 .269-.214.48-.496.48m0-11.302c-.265 0-.504-.212-.504-.473v-5.647c0-.27.24-.481.504-.481.282 0 .496.212.496.48v5.648a.48.48 0 0 1-.496.473m0-11.303c-.265 0-.504-.204-.504-.473v-5.647c0-.261.24-.473.504-.473a.48.48 0 0 1 .496.473v5.647c0 .269-.214.473-.496.473m0-11.295c-.265 0-.504-.212-.504-.473v-5.647c0-.27.24-.481.504-.481.282 0 .496.212.496.48v5.648a.48.48 0 0 1-.496.473m0-11.295c-.265 0-.504-.212-.504-.481v-5.648c0-.268.24-.48.504-.48.282 0 .496.212.496.48v5.648c0 .269-.214.48-.496.48m0-11.302c-.265 0-.504-.212-.504-.481v-5.648c0-.26.24-.472.504-.472a.48.48 0 0 1 .496.472v5.648c0 .269-.214.48-.496.48m0-11.294c-.265 0-.504-.22-.504-.481v-5.648c0-.269.24-.48.504-.48.282 0 .496.211.496.48v5.648c0 .26-.214.48-.496.48m0-11.302c-.265 0-.504-.212-.504-.481v-5.648c0-.26.24-.472.504-.472a.48.48 0 0 1 .496.472v5.648c0 .269-.214.48-.496.48m0-11.303c-.265 0-.504-.211-.504-.472v-5.656c0-.26.24-.473.504-.473a.48.48 0 0 1 .496.473v5.656a.48.48 0 0 1-.496.472m0-11.303c-.265 0-.504-.203-.504-.472v-5.656c0-.253.24-.473.504-.473.282 0 .496.22.496.473v5.656c0 .269-.214.472-.496.472m0-11.295c-.265 0-.504-.212-.504-.472v-5.656c0-.26.24-.473.504-.473a.48.48 0 0 1 .496.473v5.656a.48.48 0 0 1-.496.472m0-11.303c-.265 0-.504-.203-.504-.472v-5.656c0-.26.24-.473.504-.473a.48.48 0 0 1 .496.473v5.656c0 .269-.214.472-.496.472m0-11.303c-.265 0-.504-.204-.504-.473v-5.647c0-.26.24-.473.504-.473a.48.48 0 0 1 .496.473v5.647c0 .27-.214.473-.496.473m0-11.295c-.265 0-.504-.212-.504-.473v-5.647c0-.269.24-.48.504-.48.282 0 .496.211.496.48v5.647a.48.48 0 0 1-.496.473m0-11.295c-.265 0-.504-.22-.504-.48v-5.648c0-.26.24-.48.504-.48.282 0 .496.22.496.48v5.647c0 .261-.214.481-.496.481m0-11.303c-.265 0-.504-.212-.504-.473v-5.655c0-.261.24-.481.504-.481.282 0 .496.22.496.48v5.656a.48.48 0 0 1-.496.473m0-11.303c-.265 0-.504-.212-.504-.473v-5.655c0-.261.24-.473.504-.473a.48.48 0 0 1 .496.473v5.655a.48.48 0 0 1-.496.473"/>
            <path fill="#545454" d="M514.772 771H117.69a.972.972 0 0 1-.835-.478 1 1 0 0 1 0-.965l198.52-343.112c.348-.593 1.323-.593 1.67 0L515.45 769.36a.964.964 0 0 1-.678 1.64m-395.405-1.929h393.687L316.202 428.853 119.367 769.07"/>
            <path fill="#CEB87C" d="M317.09 886a.935.935 0 0 1-.823-.486l-1.316-2.26a.986.986 0 0 1 .354-1.319.979.979 0 0 1 1.324.355l.461.816.749-1.294a.96.96 0 1 1 1.662.964l-1.571 2.738a.97.97 0 0 1-.84.486m-4.188-7.272a.946.946 0 0 1-.823-.478l-2.896-5.005a.984.984 0 0 1 .353-1.32.963.963 0 0 1 1.317.355l2.888 5.005a.971.971 0 0 1-.354 1.32.989.989 0 0 1-.485.123m8.656-.478a.928.928 0 0 1-.477-.132.95.95 0 0 1-.354-1.311l2.88-5.005a.957.957 0 0 1 1.308-.354c.47.272.634.857.354 1.31l-2.88 5.014a.97.97 0 0 1-.83.478m-14.425-9.531a.946.946 0 0 1-.823-.479l-2.888-5.004a.967.967 0 0 1 .345-1.32.956.956 0 0 1 1.317.355l2.888 5.005a.971.971 0 0 1-.354 1.319 1.012 1.012 0 0 1-.485.124m20.184-.479a.957.957 0 0 1-.823-1.443l2.872-5.004a.969.969 0 0 1 1.325-.346c.46.255.617.84.354 1.31l-2.889 5.005a.972.972 0 0 1-.839.478m-25.944-9.53a.95.95 0 0 1-.831-.479l-2.888-5.013a.961.961 0 0 1 .353-1.31.948.948 0 0 1 1.309.354l2.888 5.004a.961.961 0 0 1-.354 1.311.928.928 0 0 1-.477.132m31.72-.478a.936.936 0 0 1-.485-.132.95.95 0 0 1-.346-1.31l2.88-5.005a.96.96 0 0 1 1.317-.355.976.976 0 0 1 .354 1.32l-2.888 4.996a.95.95 0 0 1-.831.486m-37.49-9.531a.973.973 0 0 1-.839-.486l-2.88-4.997a.971.971 0 0 1 .354-1.319.96.96 0 0 1 1.309.346l2.888 5.013a.964.964 0 0 1-.831 1.443m43.257-.478a.967.967 0 0 1-.84-1.443l2.889-5.005a.965.965 0 0 1 1.316-.354c.46.264.609.857.354 1.31l-2.888 5.014a.97.97 0 0 1-.831.478m-49.025-9.531a.993.993 0 0 1-.84-.478l-2.871-5.005a.962.962 0 0 1 .345-1.328.97.97 0 0 1 1.317.363l2.88 4.997a.979.979 0 0 1-.354 1.327c-.148.082-.321.124-.477.124m54.793-.478a.967.967 0 0 1-.84-1.443l2.889-5.005a.955.955 0 0 1 1.308-.355.96.96 0 0 1 .354 1.32l-2.88 5.004a.97.97 0 0 1-.831.479m-60.562-9.532a.95.95 0 0 1-.83-.486l-2.889-4.996a.962.962 0 0 1 .354-1.32c.453-.272 1.045-.107 1.317.355l2.88 5.005a.961.961 0 0 1-.354 1.31.928.928 0 0 1-.478.132m66.322-.478c-.157 0-.33-.041-.478-.123a.969.969 0 0 1-.345-1.328l2.88-4.996a.962.962 0 0 1 1.662.965l-2.88 5.004a.972.972 0 0 1-.84.478m-72.089-9.53a.94.94 0 0 1-.83-.487l-2.889-5.005a.96.96 0 0 1 .354-1.311.953.953 0 0 1 1.308.346l2.888 5.013a.947.947 0 0 1-.353 1.311.907.907 0 0 1-.478.132m77.858-.478a.928.928 0 0 1-.477-.132.96.96 0 0 1-.354-1.311l2.888-5.005a.952.952 0 0 1 1.308-.354c.461.264.626.857.354 1.31l-2.88 5.014a.982.982 0 0 1-.84.478m-83.625-9.531a.96.96 0 0 1-.83-.487l-2.89-5.004a.964.964 0 1 1 1.67-.965l2.89 5.005a.974.974 0 0 1-.354 1.319.936.936 0 0 1-.486.132m89.394-.478a.969.969 0 0 1-.831-1.443l2.88-5.013a.982.982 0 0 1 1.325-.347.967.967 0 0 1 .345 1.32l-2.88 4.996a.953.953 0 0 1-.839.487m-95.162-9.532a.97.97 0 0 1-.831-.478l-2.888-5.013a.969.969 0 0 1 .354-1.31.951.951 0 0 1 1.316.354l2.888 4.996a.976.976 0 0 1-.353 1.32.936.936 0 0 1-.486.131m100.938-.478a.957.957 0 0 1-.485-.132.96.96 0 0 1-.354-1.31l2.888-5.014a.963.963 0 0 1 1.309-.354c.46.272.617.857.353 1.32l-2.888 5.012a.946.946 0 0 1-.823.478m-106.706-9.53a.96.96 0 0 1-.831-.487l-2.88-5.005a.961.961 0 0 1 .345-1.32.972.972 0 0 1 1.317.355l2.88 5.005a.96.96 0 0 1-.354 1.32.99.99 0 0 1-.477.131m112.466-.478a.907.907 0 0 1-.477-.132.96.96 0 0 1-.354-1.32l2.88-4.996a.953.953 0 0 1 1.317-.354.954.954 0 0 1 .354 1.31l-2.889 5.005a.94.94 0 0 1-.83.487m-118.227-9.531a.963.963 0 0 1-.84-.487l-2.88-5.004a.957.957 0 0 1 .346-1.311.957.957 0 0 1 1.317.346l2.88 5.005a.967.967 0 0 1-.823 1.45m123.994-.477a.907.907 0 0 1-.477-.132.962.962 0 0 1-.354-1.32l2.88-4.996a.96.96 0 0 1 1.317-.354c.46.263.609.849.354 1.319l-2.88 4.996a.973.973 0 0 1-.84.487m-129.762-9.532a.953.953 0 0 1-.84-.486l-2.888-5.005a.979.979 0 0 1 .354-1.319.967.967 0 0 1 1.317.355l2.888 5.004a.976.976 0 0 1-.354 1.32c-.148.082-.32.131-.477.131m135.53-.478a.907.907 0 0 1-.477-.132.962.962 0 0 1-.353-1.319l2.88-5.005a.957.957 0 0 1 1.316-.346.96.96 0 0 1 .354 1.311l-2.888 5.005a.96.96 0 0 1-.831.486m-141.308-9.53a.95.95 0 0 1-.83-.487l-2.889-5.005a.96.96 0 0 1 .354-1.31.955.955 0 0 1 1.317.345l2.888 5.005a.976.976 0 0 1-.354 1.32c-.156.082-.321.131-.486.131m147.076-.478a.971.971 0 0 1-.831-1.451l2.88-5.005a.965.965 0 0 1 1.67.965l-2.888 5.013a.97.97 0 0 1-.831.478m-152.844-9.54a.946.946 0 0 1-.823-.478l-2.888-5.004a.957.957 0 0 1 .354-1.32.957.957 0 0 1 1.308.355l2.889 5.005a.97.97 0 0 1-.354 1.319.908.908 0 0 1-.486.124m158.612-.47c-.165 0-.33-.05-.486-.132a.96.96 0 0 1-.345-1.311l2.888-5.013a.955.955 0 0 1 1.308-.355.979.979 0 0 1 .354 1.32l-2.888 5.004a.94.94 0 0 1-.831.487m-164.372-9.531a.973.973 0 0 1-.839-.487l-2.88-5.005a.971.971 0 0 1 .354-1.319.96.96 0 0 1 1.308.355l2.888 5.004a.952.952 0 0 1-.353 1.311.94.94 0 0 1-.478.14m170.14-.486a.947.947 0 0 1-.485-.124.967.967 0 0 1-.346-1.319l2.888-5.004a.96.96 0 0 1 1.308-.355c.461.272.618.857.354 1.32l-2.888 5.004a.95.95 0 0 1-.831.478m-175.908-9.531a.974.974 0 0 1-.839-.478l-2.88-5.005a.971.971 0 0 1 .354-1.32.969.969 0 0 1 1.316.355l2.872 5.005a.954.954 0 0 1-.823 1.443m181.676-.47c-.164 0-.329-.05-.485-.132a.984.984 0 0 1-.354-1.32l2.896-5.004a.96.96 0 0 1 1.309-.354c.46.272.617.857.345 1.327l-2.88 4.997a.95.95 0 0 1-.83.486m-187.445-9.54a.97.97 0 0 1-.83-.478l-2.897-5.004a.967.967 0 1 1 1.679-.965l2.88 5.005a.971.971 0 0 1-.355 1.319.98.98 0 0 1-.477.124m193.212-.47c-.156 0-.329-.05-.485-.132a.961.961 0 0 1-.346-1.32l2.88-4.996a.943.943 0 0 1 1.308-.354c.47.263.618.849.354 1.31l-2.88 5.005a.977.977 0 0 1-.83.487m-198.981-9.54a.95.95 0 0 1-.831-.478l-2.888-5.013a.961.961 0 0 1 .354-1.31.955.955 0 0 1 1.308.354l2.888 5.004a.971.971 0 0 1-.354 1.32 1.005 1.005 0 0 1-.477.123m204.748-.478a.958.958 0 0 1-.83-1.443l2.871-5.004a.969.969 0 0 1 1.317-.355.957.957 0 0 1 .353 1.32l-2.88 5.004a.97.97 0 0 1-.83.478m-210.517-9.531a.95.95 0 0 1-.831-.478l-2.888-5.005a.971.971 0 0 1 .353-1.32.955.955 0 0 1 1.309.355l2.888 5.005a.957.957 0 0 1-.346 1.311.957.957 0 0 1-.485.132m216.276-.478a.957.957 0 0 1-.823-1.443l2.872-5.005a.977.977 0 0 1 1.325-.354.979.979 0 0 1 .354 1.319l-2.888 5.005a.972.972 0 0 1-.84.478m-222.044-9.531a.942.942 0 0 1-.831-.479l-2.889-5.004a.97.97 0 0 1 .354-1.32.965.965 0 0 1 1.317.355l2.888 5.005a.986.986 0 0 1-.354 1.319c-.156.082-.32.124-.485.124m227.82-.479c-.172 0-.328-.04-.485-.123a.971.971 0 0 1-.354-1.32l2.889-5.004a.965.965 0 0 1 1.316-.355.986.986 0 0 1 .354 1.32l-2.888 5.004a.97.97 0 0 1-.831.478m-233.59-9.53a.993.993 0 0 1-.839-.479l-2.871-5.005a.96.96 0 0 1 .345-1.319.967.967 0 0 1 1.317.355l2.88 5.004a.957.957 0 0 1-.346 1.311.98.98 0 0 1-.485.132m239.357-.478c-.173 0-.33-.041-.486-.124a.979.979 0 0 1-.353-1.319l2.888-5.004a.963.963 0 0 1 1.316-.355.974.974 0 0 1 .346 1.32l-2.888 5.004a.946.946 0 0 1-.823.478m-245.126-9.531a.96.96 0 0 1-.83-.486l-2.88-4.997a.946.946 0 0 1 .353-1.319.96.96 0 0 1 1.309.354l2.88 5.005a.945.945 0 0 1-.354 1.311.887.887 0 0 1-.478.132m250.886-.478c-.165 0-.321-.041-.477-.124a.979.979 0 0 1-.354-1.319l2.888-5.005a.955.955 0 0 1 1.308-.354.97.97 0 0 1 .354 1.319l-2.88 5.005a.972.972 0 0 1-.84.478m-256.644-9.531a.972.972 0 0 1-.84-.479l-2.888-5.004a.974.974 0 0 1 .354-1.32.967.967 0 0 1 1.316.355l2.88 5.005a.961.961 0 0 1-.345 1.319.98.98 0 0 1-.477.124m262.413-.47a.96.96 0 0 1-.47-.132.957.957 0 0 1-.353-1.32l2.88-5.004a.955.955 0 0 1 1.308-.355c.461.273.626.858.354 1.32l-2.88 5.004a.98.98 0 0 1-.84.487m-268.189-9.54a.97.97 0 0 1-.83-.478l-2.89-5.013a.976.976 0 0 1 .355-1.31.96.96 0 0 1 1.316.354l2.888 4.996a.967.967 0 0 1-.839 1.451m273.958-.47c-.156 0-.33-.05-.477-.132a.979.979 0 0 1-.354-1.319l2.888-5.004a.957.957 0 0 1 1.308-.355c.461.272.626.858.346 1.32l-2.872 5.004a.98.98 0 0 1-.839.486m-279.726-9.539a.937.937 0 0 1-.823-.486l-2.888-5.005a.959.959 0 0 1 .346-1.311.965.965 0 0 1 1.316.355l2.888 5.004a.967.967 0 0 1-.839 1.443m285.494-.478a.907.907 0 0 1-.477-.132.96.96 0 0 1-.354-1.311l2.888-5.005a.957.957 0 0 1 1.309-.354.97.97 0 0 1 .353 1.319l-2.888 5.005a.94.94 0 0 1-.83.478m-291.263-9.531a.96.96 0 0 1-.831-.487l-2.88-4.996a.96.96 0 0 1 .354-1.32.957.957 0 0 1 1.308.355l2.888 5.005a.969.969 0 0 1-.84 1.443m297.04-.478a.915.915 0 0 1-.486-.132.952.952 0 0 1-.354-1.311l2.888-5.005a.962.962 0 0 1 1.662.965l-2.888 4.996a.937.937 0 0 1-.822.487m-302.799-9.532a.963.963 0 0 1-.84-.486l-2.88-5.005a.952.952 0 0 1 .355-1.31.948.948 0 0 1 1.308.346l2.88 5.004a.958.958 0 0 1-.346 1.32.928.928 0 0 1-.477.131M471.522 618a.915.915 0 0 1-.486-.132.96.96 0 0 1-.354-1.31l2.88-5.005a.967.967 0 0 1 1.317-.355.96.96 0 0 1 .354 1.32l-2.888 5.004a.946.946 0 0 1-.823.478m-314.335-9.53a.973.973 0 0 1-.84-.487l-2.88-5.005a.957.957 0 0 1 .346-1.311.951.951 0 0 1 1.317.355l2.888 5.004a.967.967 0 0 1-.831 1.443m320.095-.478c-.165 0-.33-.041-.486-.124a.969.969 0 0 1-.345-1.319l2.88-5.005a.961.961 0 1 1 1.67.956l-2.888 5.014a.96.96 0 0 1-.831.478m-325.872-9.531a.96.96 0 0 1-.83-.487l-2.88-5.004a.952.952 0 0 1 .353-1.311.957.957 0 0 1 1.309.354l2.888 5.005a.96.96 0 0 1-.354 1.31.936.936 0 0 1-.486.133m331.632-.478a.9.9 0 0 1-.47-.132.952.952 0 0 1-.353-1.311l2.88-5.005a.958.958 0 0 1 1.316-.354.969.969 0 0 1 .354 1.31l-2.888 5.013a.972.972 0 0 1-.84.479m-337.399-9.532a.946.946 0 0 1-.823-.478l-2.888-5.013a.945.945 0 0 1 .354-1.31.953.953 0 0 1 1.308.346l2.889 5.004a.97.97 0 0 1-.84 1.451m343.168-.478a.9.9 0 0 1-.47-.132.96.96 0 0 1-.353-1.31l2.88-5.005a.975.975 0 0 1 1.325-.355.974.974 0 0 1 .345 1.311l-2.888 5.005a.963.963 0 0 1-.84.486m-348.927-9.54a.942.942 0 0 1-.83-.477l-2.889-5.005a.96.96 0 0 1 .354-1.31.953.953 0 0 1 1.317.354l2.88 5.004a.954.954 0 0 1-.832 1.435m354.704-.47a.959.959 0 0 1-.831-1.443l2.888-5.013a.958.958 0 0 1 1.308-.346c.453.264.618.85.354 1.32l-2.888 5.004a.95.95 0 0 1-.831.478m-360.472-9.54a.952.952 0 0 1-.83-.478l-2.889-5.004a.967.967 0 0 1 .354-1.311.96.96 0 0 1 1.316.346l2.889 5.005a.976.976 0 0 1-.354 1.319.947.947 0 0 1-.486.124m366.24-.47a.957.957 0 0 1-.485-.132c-.461-.264-.61-.85-.354-1.32l2.896-4.996a.947.947 0 0 1 1.309-.354.95.95 0 0 1 .345 1.31l-2.88 5.005a.94.94 0 0 1-.83.487m-372.009-9.532a.96.96 0 0 1-.831-.486l-2.88-5.005a.95.95 0 0 1 .346-1.31.957.957 0 0 1 1.316.346l2.88 5.004a.962.962 0 0 1-.354 1.32.907.907 0 0 1-.477.131m377.776-.478a.967.967 0 0 1-.84-1.443l2.89-5.004a.955.955 0 0 1 1.308-.355c.469.264.617.85.353 1.311l-2.88 5.005a.96.96 0 0 1-.83.486m-383.537-9.53a.963.963 0 0 1-.84-.487l-2.887-5.005a.971.971 0 0 1 .354-1.32.967.967 0 0 1 1.316.355l2.88 5.005a.96.96 0 0 1-.354 1.32.9.9 0 0 1-.469.131m389.304-.478a.959.959 0 0 1-.831-1.443l2.88-5.013a.955.955 0 0 1 1.309-.346c.469.264.617.85.353 1.31l-2.88 5.006a.96.96 0 0 1-.83.486m-.832-5.005h-5.76a.96.96 0 0 1-.962-.964.96.96 0 0 1 .962-.965h5.76c.543 0 .971.429.971.965a.962.962 0 0 1-.97.964m-11.529 0h-5.768a.965.965 0 0 1 0-1.929h5.768a.96.96 0 0 1 .963.965.96.96 0 0 1-.963.964m-11.536 0h-5.768a.96.96 0 0 1-.963-.964.96.96 0 0 1 .963-.965h5.768a.965.965 0 0 1 0 1.93m-11.536 0h-5.768a.958.958 0 0 1-.955-.965c0-.536.428-.965.955-.965h5.768a.96.96 0 0 1 .962.965.96.96 0 0 1-.962.964m-11.537 0h-5.76a.96.96 0 0 1-.962-.964.96.96 0 0 1 .963-.965h5.76c.543 0 .962.429.962.965s-.42.964-.963.964m-11.528 0h-5.768a.967.967 0 0 1-.97-.964c0-.536.435-.965.97-.965h5.768a.965.965 0 0 1 0 1.93m-11.544 0h-5.768a.958.958 0 0 1-.955-.965c0-.536.428-.965.955-.965h5.768c.535 0 .97.429.97.965a.967.967 0 0 1-.97.964m-11.528 0h-5.768a.96.96 0 0 1-.963-.964.96.96 0 0 1 .963-.965h5.768c.526 0 .954.429.954.965a.958.958 0 0 1-.954.964m-11.536 0h-5.769a.96.96 0 0 1-.962-.964.96.96 0 0 1 .962-.965h5.769c.534 0 .954.429.954.965s-.42.964-.954.964m-11.537 0h-5.768a.965.965 0 0 1 0-1.929h5.768a.96.96 0 0 1 .963.965.96.96 0 0 1-.963.964m-11.536 0h-5.768a.953.953 0 0 1-.955-.964c0-.536.42-.965.955-.965h5.768a.965.965 0 0 1 0 1.93m-11.528 0h-5.776a.965.965 0 0 1 0-1.93h5.776c.527 0 .954.429.954.965a.958.958 0 0 1-.954.964m-11.545 0h-5.76a.96.96 0 0 1-.962-.964.96.96 0 0 1 .963-.965h5.76c.543 0 .954.429.954.965a.948.948 0 0 1-.955.964m-11.528 0h-5.768a.96.96 0 0 1-.962-.964.96.96 0 0 1 .962-.965h5.768a.965.965 0 0 1 0 1.93m-11.536 0H343.8a.958.958 0 0 1-.955-.965c0-.536.428-.965.955-.965h5.776a.965.965 0 0 1 0 1.93m-11.544 0h-5.76a.965.965 0 0 1 0-1.93h5.76c.543 0 .962.429.962.965s-.42.964-.962.964m-11.528 0h-5.76a.961.961 0 0 1-.971-.964c0-.536.428-.965.97-.965h5.76a.96.96 0 0 1 .963.965.96.96 0 0 1-.962.964m-11.537 0H309.2a.965.965 0 0 1 0-1.929h5.768c.535 0 .971.429.971.965a.967.967 0 0 1-.97.964m-11.537 0h-5.768a.953.953 0 0 1-.955-.964c0-.536.42-.965.955-.965h5.768a.96.96 0 0 1 .963.965.96.96 0 0 1-.963.964m-11.528 0h-5.768a.967.967 0 0 1-.971-.964c0-.536.436-.965.97-.965h5.769c.527 0 .954.429.954.965a.958.958 0 0 1-.954.964m-11.536 0h-5.768a.96.96 0 0 1-.963-.964.96.96 0 0 1 .963-.965h5.768a.96.96 0 0 1 .962.965.96.96 0 0 1-.962.964m-11.537 0h-5.768a.96.96 0 0 1-.962-.964.96.96 0 0 1 .962-.965h5.768a.965.965 0 0 1 0 1.93m-11.536 0h-5.768a.96.96 0 0 1-.963-.965.96.96 0 0 1 .963-.965h5.768a.965.965 0 0 1 0 1.93m-11.544 0h-5.76a.965.965 0 0 1 0-1.93h5.76c.543 0 .97.429.97.965a.961.961 0 0 1-.97.964m-11.52 0h-5.768a.955.955 0 0 1-.963-.964c0-.536.42-.965.963-.965h5.768c.518 0 .954.429.954.965a.963.963 0 0 1-.954.964m-11.537 0h-5.776a.965.965 0 0 1 0-1.929h5.776a.965.965 0 0 1 0 1.93m-11.544 0h-5.768a.958.958 0 0 1-.955-.965c0-.536.428-.965.955-.965h5.768a.96.96 0 0 1 .963.965.96.96 0 0 1-.963.964m-11.536 0h-5.76a.96.96 0 0 1-.963-.964.96.96 0 0 1 .963-.965h5.76a.96.96 0 0 1 .962.965.96.96 0 0 1-.962.964m-11.52 0h-5.777a.96.96 0 0 1-.962-.964.96.96 0 0 1 .962-.965h5.777c.518 0 .954.429.954.965a.963.963 0 0 1-.954.964m-11.545 0h-5.768a.965.965 0 0 1 0-1.929h5.768a.96.96 0 0 1 .963.965.96.96 0 0 1-.963.964m-11.536 0h-5.768a.96.96 0 0 1-.963-.964.96.96 0 0 1 .963-.965h5.768a.965.965 0 0 1 0 1.93m-11.544 0h-5.76a.965.965 0 0 1 0-1.93h5.76c.543 0 .97.429.97.965a.961.961 0 0 1-.97.964m-11.528 0h-5.76a.955.955 0 0 1-.963-.964c0-.536.42-.965.963-.965h5.76a.96.96 0 0 1 .962.965.96.96 0 0 1-.962.964m-11.529 0h-5.768a.967.967 0 0 1-.97-.964c0-.536.435-.965.97-.965h5.768a.965.965 0 0 1 0 1.93"/>
            <path fill="#CEB87C" d="M298.318 642.998c-1.523 0-2.998-.077-4.398-.206a.484.484 0 0 1-.428-.547.5.5 0 0 1 .51-.454c1.384.137 2.867.248 4.35.197.452 0 .913-.009 1.358-.017h.017a.49.49 0 0 1 .477.488.49.49 0 0 1-.47.513c-.46.017-.889.034-1.416.026zm94.302 0c-.569 0-1.112-.017-1.648-.035a.49.49 0 0 1-.47-.513.512.512 0 0 1 .503-.488c1.862.069 3.88.017 5.7-.145.255-.026.494.18.518.453.017.274-.173.522-.436.548-1.326.111-2.734.18-4.167.18zm89.64-.231h-.05a37.273 37.273 0 0 1-5.74-1.044c-.264-.069-.412-.343-.346-.617a.495.495 0 0 1 .584-.359c1.787.488 3.616.822 5.592 1.018.272.026.453.274.429.557a.481.481 0 0 1-.47.445zm-176.801-.334a.49.49 0 0 1-.478-.42.495.495 0 0 1 .395-.573 33.598 33.598 0 0 0 5.502-1.42.465.465 0 0 1 .61.308.502.502 0 0 1-.297.633c-1.82.65-3.665 1.13-5.658 1.463-.025.009-.05.009-.074.009zm79.798-.043c-.033 0-.066 0-.083-.008a32.38 32.38 0 0 1-5.65-1.507.504.504 0 0 1-.296-.641.472.472 0 0 1 .61-.3 32.732 32.732 0 0 0 5.493 1.463c.263.043.444.3.395.574a.482.482 0 0 1-.47.42zm17.163-.522a.478.478 0 0 1-.461-.385.489.489 0 0 1 .354-.6 31.144 31.144 0 0 0 5.37-1.89.47.47 0 0 1 .626.256.503.503 0 0 1-.239.66 33.053 33.053 0 0 1-5.534 1.942.47.47 0 0 1-.116.017zm-114.125-.06c-.05 0-.082-.008-.132-.017a33.183 33.183 0 0 1-5.501-1.994.5.5 0 0 1-.24-.659c.108-.248.388-.368.627-.248a31.966 31.966 0 0 0 5.361 1.934c.256.06.412.334.346.6a.485.485 0 0 1-.461.384zm182.879-2.08a.522.522 0 0 1-.206-.042c-1.598-.762-3.22-1.678-5.115-2.901a.51.51 0 0 1-.148-.693.48.48 0 0 1 .659-.163c1.861 1.207 3.443 2.114 5 2.841.246.12.353.42.246.668a.482.482 0 0 1-.436.29zm-154.877-1.163a.463.463 0 0 1-.42-.257.513.513 0 0 1 .198-.676c1.762-.993 3.377-2.071 4.892-3.09a.477.477 0 0 1 .667.146c.14.231.074.54-.14.693-1.524 1.036-3.17 2.123-4.966 3.132a.419.419 0 0 1-.23.052zm58.138-.12a.514.514 0 0 1-.231-.06c-1.738-.993-3.336-2.054-4.95-3.15a.53.53 0 0 1-.148-.692.48.48 0 0 1 .667-.146c1.606 1.087 3.18 2.14 4.892 3.107.23.136.313.436.19.684a.478.478 0 0 1-.42.257zm38.527-1.3a.476.476 0 0 1-.412-.24.507.507 0 0 1 .157-.685 149.517 149.517 0 0 0 3.179-2.114c.552-.368 1.112-.744 1.664-1.121a.467.467 0 0 1 .667.145.508.508 0 0 1-.14.694c-.569.376-1.112.744-1.664 1.12-1.054.711-2.117 1.43-3.204 2.123a.464.464 0 0 1-.247.077zm-135.176-.146a.544.544 0 0 1-.255-.069 174.158 174.158 0 0 1-3.031-2.02c-.601-.41-1.21-.821-1.829-1.232a.5.5 0 0 1-.14-.684.47.47 0 0 1 .668-.154c.61.402 1.219.821 1.828 1.232.997.676 1.993 1.343 3.014 2.002a.51.51 0 0 1 .149.694.446.446 0 0 1-.404.23zm183.48-3.39a.52.52 0 0 1-.255-.068c-1.302-.856-3.031-1.96-4.958-2.944a.509.509 0 0 1-.223-.667.47.47 0 0 1 .643-.231c1.976 1.001 3.73 2.122 5.048 2.995a.528.528 0 0 1 .157.693.499.499 0 0 1-.412.223zm-135.168-1.351a.467.467 0 0 1-.412-.249.51.51 0 0 1 .165-.684c1.853-1.121 3.508-1.977 5.23-2.687a.476.476 0 0 1 .626.273.508.508 0 0 1-.272.65c-1.672.694-3.286 1.533-5.09 2.628a.451.451 0 0 1-.247.069zm38.536-.129a.535.535 0 0 1-.239-.068c-1.795-1.087-3.418-1.909-5.106-2.593a.505.505 0 0 1-.272-.65.477.477 0 0 1 .626-.283c1.713.693 3.418 1.566 5.238 2.661.23.137.313.437.173.685a.487.487 0 0 1-.42.248zm58.154-1.24a.482.482 0 0 1-.429-.275.519.519 0 0 1 .215-.676 33.39 33.39 0 0 1 5.41-2.267.483.483 0 0 1 .602.333c.074.266-.066.548-.321.625a31.896 31.896 0 0 0-5.263 2.208.442.442 0 0 1-.214.051zm-154.844-.12a.41.41 0 0 1-.206-.052 32.492 32.492 0 0 0-5.287-2.165.512.512 0 0 1-.321-.625.481.481 0 0 1 .593-.333c1.86.573 3.632 1.3 5.435 2.225a.522.522 0 0 1 .223.676.494.494 0 0 1-.437.274zm182.945-2.277c-.042 0-.083 0-.132-.017-1.77-.53-3.591-.907-5.56-1.147a.49.49 0 0 1-.42-.556c.034-.274.272-.48.528-.445 2.026.257 3.895.642 5.724 1.19.247.077.395.35.33.616a.494.494 0 0 1-.47.36zm-114.126-.625a.48.48 0 0 1-.469-.393.51.51 0 0 1 .37-.59 39.273 39.273 0 0 1 5.774-.788c.297-.017.502.197.519.47a.498.498 0 0 1-.453.531c-1.968.12-3.871.385-5.642.77h-.099zm17.189-.042a.4.4 0 0 1-.099-.018 38.536 38.536 0 0 0-5.65-.727c-.263-.008-.461-.248-.453-.522.017-.274.255-.496.51-.47 2.01.11 3.962.367 5.774.744a.493.493 0 0 1 .379.59.479.479 0 0 1-.461.403zm79.798-.428a.5.5 0 0 1-.478-.437.504.504 0 0 1 .42-.565 45.852 45.852 0 0 1 5.798-.393c.28-.026.486.23.494.496a.497.497 0 0 1-.486.505 44.153 44.153 0 0 0-5.682.385c-.025.009-.042.009-.066.009zm-176.793-.035c-.016 0-.04-.008-.066-.008a46.007 46.007 0 0 0-5.674-.351.49.49 0 0 1-.486-.496c0-.274.214-.505.486-.505 2.026 0 3.97.12 5.798.36a.5.5 0 0 1 .42.564.487.487 0 0 1-.478.436z"/>
            <path fill="#CEB87C" d="M486.762 628c-12.137 0-18.284-3.916-24.24-7.711-5.966-3.811-11.607-7.404-23.173-7.404-11.565 0-17.207 3.593-23.18 7.404-5.94 3.795-12.087 7.711-24.232 7.711s-18.292-3.916-24.24-7.711c-5.973-3.803-11.607-7.404-23.18-7.404-11.566 0-17.207 3.593-23.18 7.404-5.94 3.795-12.096 7.711-24.224 7.711-12.154 0-18.293-3.916-24.24-7.711-5.974-3.811-11.624-7.404-23.173-7.404a.949.949 0 0 1-.969-.946c0-.518.423-.939.97-.939 12.136 0 18.283 3.916 24.223 7.711 5.965 3.795 11.615 7.396 23.189 7.396 11.556 0 17.198-3.601 23.163-7.396 5.957-3.795 12.095-7.711 24.24-7.711 12.146 0 18.293 3.916 24.241 7.711 5.973 3.803 11.615 7.396 23.18 7.396 11.557 0 17.207-3.593 23.18-7.396 5.94-3.795 12.087-7.711 24.232-7.711 12.137 0 18.293 3.916 24.233 7.711 5.981 3.795 11.623 7.396 23.18 7.396.546 0 .969.42.969.946a.954.954 0 0 1-.97.947"/>
            <path fill="#545454" d="M311.308 586a45.37 45.37 0 0 1-4.39-.206c-.263-.017-.46-.265-.436-.54a.505.505 0 0 1 .527-.453c1.384.128 2.842.188 4.332.197.47 0 .914 0 1.367-.017h.009c.263 0 .477.222.477.488a.49.49 0 0 1-.461.514c-.453.008-.914.017-1.392.017h-.033zm94.298 0c-.56 0-1.111-.009-1.647-.026a.484.484 0 0 1-.461-.514c0-.274.214-.505.494-.488 1.87.069 3.896.017 5.7-.146.255-.034.502.18.526.454a.5.5 0 0 1-.444.54 46.48 46.48 0 0 1-4.168.18zm89.645-.223c-.016 0-.033 0-.05-.008-2.033-.206-3.911-.54-5.74-1.037a.51.51 0 0 1-.345-.617.481.481 0 0 1 .584-.36c1.78.489 3.616.814 5.592 1.02a.502.502 0 0 1 .437.548.496.496 0 0 1-.478.454zm-176.802-.334a.484.484 0 0 1-.47-.42.49.49 0 0 1 .395-.573 32.324 32.324 0 0 0 5.502-1.422c.255-.103.527.05.618.308a.508.508 0 0 1-.313.634c-1.812.65-3.665 1.122-5.65 1.465-.025 0-.058.008-.082.008zm79.803-.043c-.033 0-.058 0-.09-.008a33.75 33.75 0 0 1-5.65-1.508.504.504 0 0 1-.289-.642.466.466 0 0 1 .61-.3 32.822 32.822 0 0 0 5.485 1.465.493.493 0 0 1 .403.574c-.05.248-.247.42-.47.42zm17.171-.522a.474.474 0 0 1-.47-.386.49.49 0 0 1 .355-.6 31.52 31.52 0 0 0 5.361-1.892.467.467 0 0 1 .634.257.507.507 0 0 1-.247.66 31.954 31.954 0 0 1-5.526 1.944c-.04.008-.074.017-.107.017zm-114.137-.06a.469.469 0 0 1-.116-.017 32.98 32.98 0 0 1-5.51-1.996.507.507 0 0 1-.247-.66.472.472 0 0 1 .635-.257 30.503 30.503 0 0 0 5.361 1.936.51.51 0 0 1 .346.608.487.487 0 0 1-.47.386zm182.872-2.082a.394.394 0 0 1-.198-.043c-1.59-.762-3.22-1.687-5.106-2.903a.513.513 0 0 1-.156-.694.461.461 0 0 1 .658-.155c1.853 1.191 3.443 2.1 5.008 2.844a.51.51 0 0 1 .239.66.499.499 0 0 1-.445.291zm-154.855-1.156a.474.474 0 0 1-.428-.266.516.516 0 0 1 .19-.685c1.762-.985 3.384-2.064 4.9-3.084a.469.469 0 0 1 .658.146.512.512 0 0 1-.14.694c-1.523 1.028-3.162 2.124-4.957 3.126a.474.474 0 0 1-.223.069zm58.127-.129a.383.383 0 0 1-.23-.068c-1.746-.985-3.336-2.047-4.95-3.144a.51.51 0 0 1-.14-.694.474.474 0 0 1 .667-.145c1.598 1.079 3.163 2.141 4.884 3.11a.498.498 0 0 1 .19.676.47.47 0 0 1-.42.265zm38.527-1.31a.48.48 0 0 1-.42-.24.515.515 0 0 1 .164-.685c1.08-.686 2.125-1.397 3.18-2.108.551-.377 1.103-.754 1.671-1.122.214-.154.519-.086.667.154a.524.524 0 0 1-.156.686c-.552.377-1.104.745-1.656 1.122-1.054.71-2.116 1.43-3.212 2.124a.408.408 0 0 1-.238.069zm-135.172-.137a.45.45 0 0 1-.255-.077 189.46 189.46 0 0 1-3.04-2.013c-.6-.412-1.202-.831-1.811-1.234-.23-.146-.288-.454-.148-.694.148-.231.436-.3.659-.145.609.402 1.227.822 1.836 1.233.997.668 1.985 1.353 3.006 2.005a.531.531 0 0 1 .165.693.497.497 0 0 1-.412.232zm183.474-3.384a.417.417 0 0 1-.256-.086c-1.3-.856-3.022-1.961-4.966-2.938a.506.506 0 0 1-.214-.668.473.473 0 0 1 .642-.231c1.969 1.002 3.731 2.124 5.049 2.998.23.146.296.454.148.685a.463.463 0 0 1-.403.24zm-135.164-1.362a.49.49 0 0 1-.42-.248.518.518 0 0 1 .181-.686c1.845-1.122 3.509-1.978 5.222-2.69a.464.464 0 0 1 .618.275.505.505 0 0 1-.264.65c-1.672.695-3.286 1.534-5.098 2.63a.408.408 0 0 1-.239.069zm38.543-.128a.512.512 0 0 1-.247-.069c-1.795-1.088-3.426-1.91-5.106-2.596a.502.502 0 0 1-.272-.65c.099-.258.37-.386.618-.283 1.713.694 3.426 1.567 5.246 2.655a.534.534 0 0 1 .173.694.495.495 0 0 1-.412.249zm58.144-1.243a.482.482 0 0 1-.429-.274.527.527 0 0 1 .215-.676 33.067 33.067 0 0 1 5.41-2.27.474.474 0 0 1 .593.334.496.496 0 0 1-.32.625 32.11 32.11 0 0 0-5.247 2.201.54.54 0 0 1-.222.06zm-154.839-.12a.526.526 0 0 1-.222-.05 30.858 30.858 0 0 0-5.27-2.168c-.256-.077-.396-.36-.33-.625a.488.488 0 0 1 .61-.335 32.25 32.25 0 0 1 5.427 2.228c.238.12.337.42.214.668a.485.485 0 0 1-.429.282zm182.939-2.27a.36.36 0 0 1-.132-.025 35.163 35.163 0 0 0-5.567-1.157.493.493 0 0 1-.42-.548.489.489 0 0 1 .543-.437c2.018.249 3.887.634 5.707 1.182a.5.5 0 0 1 .33.617.478.478 0 0 1-.461.368zm-114.122-.625a.496.496 0 0 1-.469-.402.5.5 0 0 1 .37-.592c1.82-.394 3.756-.66 5.774-.788.305-.025.502.197.519.471a.505.505 0 0 1-.462.532c-1.968.12-3.862.377-5.633.762a.399.399 0 0 1-.099.017zm17.18-.06c-.033 0-.066 0-.099-.008a38.415 38.415 0 0 0-5.633-.729.49.49 0 0 1-.461-.53c.016-.266.247-.497.502-.463 2.026.111 3.97.368 5.79.745a.495.495 0 0 1 .37.591.481.481 0 0 1-.469.394zm79.795-.42a.492.492 0 0 1-.47-.436.504.504 0 0 1 .412-.566 44.473 44.473 0 0 1 5.815-.385c.272-.043.47.214.477.497 0 .274-.205.496-.469.496-2.01.018-3.92.146-5.699.386-.016 0-.041.008-.066.008zm-176.778-.034c-.016 0-.041 0-.058-.008a44.61 44.61 0 0 0-5.69-.352.488.488 0 0 1-.478-.496c0-.283.214-.497.478-.497 2.026 0 3.986.12 5.806.35.272.035.445.292.42.558a.494.494 0 0 1-.478.445z"/>
            <path fill="#CEB87C" d="M487.784 614c-12.43 0-18.703-4.02-24.768-7.91-5.85-3.75-11.369-7.29-22.655-7.29-11.278 0-16.805 3.54-22.655 7.29-6.066 3.89-12.338 7.91-24.768 7.91-12.438 0-18.702-4.02-24.768-7.91-5.85-3.75-11.377-7.29-22.663-7.29-11.278 0-16.805 3.54-22.646 7.29-6.074 3.89-12.339 7.91-24.768 7.91-12.438 0-18.71-4.02-24.785-7.91-5.842-3.75-11.369-7.29-22.638-7.29-1.077 0-1.939-.854-1.939-1.904 0-1.042.862-1.896 1.939-1.896 12.43 0 18.694 4.02 24.76 7.91 5.85 3.742 11.377 7.29 22.663 7.29 11.277 0 16.796-3.548 22.646-7.29 6.058-3.89 12.339-7.91 24.768-7.91 12.43 0 18.71 4.02 24.768 7.91 5.859 3.742 11.386 7.29 22.663 7.29 11.278 0 16.805-3.548 22.647-7.29 6.074-3.89 12.338-7.91 24.776-7.91 12.43 0 18.702 4.02 24.776 7.91 5.85 3.742 11.369 7.29 22.647 7.29 1.077 0 1.947.846 1.947 1.896 0 1.05-.87 1.904-1.947 1.904"/>
            <path fill="#545454" d="M360.308 578a45.38 45.38 0 0 1-4.39-.206.493.493 0 0 1-.436-.54.505.505 0 0 1 .527-.453c1.376.128 2.825.197 4.3.197.477.009.938 0 1.4-.017h.016c.255 0 .47.214.477.488a.496.496 0 0 1-.469.514c-.461.008-.914.017-1.392.017h-.033zm94.298 0c-.551 0-1.103-.009-1.647-.026-.263-.008-.461-.24-.461-.514a.53.53 0 0 1 .494-.488c1.878.06 3.896.017 5.7-.145a.494.494 0 0 1 .526.454.506.506 0 0 1-.436.54c-1.334.119-2.734.179-4.176.179zm89.637-.231h-.041a35.14 35.14 0 0 1-5.74-1.045.497.497 0 0 1-.346-.608.478.478 0 0 1 .584-.36c1.78.488 3.616.822 5.592 1.02a.497.497 0 0 1 .437.547.49.49 0 0 1-.486.446zm-176.794-.334a.482.482 0 0 1-.47-.411.495.495 0 0 1 .395-.574 32.235 32.235 0 0 0 5.51-1.43.484.484 0 0 1 .61.308.52.52 0 0 1-.297.642 33.463 33.463 0 0 1-5.666 1.465h-.082zm79.803-.034c-.033 0-.058 0-.082-.01a33.338 33.338 0 0 1-5.65-1.506c-.255-.095-.379-.386-.305-.643.099-.257.37-.402.626-.308 1.754.65 3.558 1.13 5.493 1.473.256.043.429.3.387.574a.49.49 0 0 1-.47.42zm17.163-.523a.478.478 0 0 1-.461-.385.493.493 0 0 1 .354-.6 31.275 31.275 0 0 0 5.361-1.892.479.479 0 0 1 .643.256c.099.249-.009.549-.256.651a31.512 31.512 0 0 1-5.526 1.953c-.033.009-.066.017-.115.017zm-114.13-.06c-.032 0-.074-.008-.115-.017a32.24 32.24 0 0 1-5.51-1.995c-.238-.112-.354-.412-.238-.66a.47.47 0 0 1 .634-.257c1.754.822 3.5 1.456 5.345 1.936.255.068.42.342.354.608a.487.487 0 0 1-.47.385zm182.873-2.081a.425.425 0 0 1-.198-.051c-1.598-.754-3.22-1.679-5.106-2.895a.533.533 0 0 1-.165-.694.479.479 0 0 1 .667-.154c1.862 1.19 3.443 2.098 5.008 2.843a.497.497 0 0 1 .23.66.487.487 0 0 1-.436.291zm-154.855-1.165a.491.491 0 0 1-.428-.257.523.523 0 0 1 .19-.685c1.77-.985 3.392-2.064 4.891-3.083a.478.478 0 0 1 .676.146.52.52 0 0 1-.14.693c-1.532 1.028-3.171 2.124-4.966 3.126a.435.435 0 0 1-.223.06zm58.119-.12a.435.435 0 0 1-.222-.06c-1.746-1.002-3.336-2.064-4.958-3.151a.518.518 0 0 1-.132-.694c.14-.231.445-.3.667-.145 1.59 1.079 3.17 2.132 4.884 3.108.23.137.321.437.19.677a.474.474 0 0 1-.429.265zm38.535-1.301a.506.506 0 0 1-.247-.934 139.92 139.92 0 0 0 3.195-2.124c.543-.368 1.087-.736 1.647-1.105.214-.154.51-.085.659.146.14.231.082.548-.148.694-.544.368-1.096.736-1.64 1.104-1.062.72-2.124 1.44-3.22 2.142a.424.424 0 0 1-.246.077zm-135.172-.146a.47.47 0 0 1-.255-.077c-1.03-.66-2.026-1.336-3.023-2.021-.617-.403-1.219-.814-1.828-1.225a.51.51 0 0 1-.148-.685c.14-.24.444-.3.659-.154a57.87 57.87 0 0 1 1.828 1.233c.996.668 1.993 1.345 3.022 2.004.231.146.289.454.157.685a.476.476 0 0 1-.412.24zm183.465-3.391a.513.513 0 0 1-.255-.077c-1.285-.848-3.022-1.962-4.95-2.938a.513.513 0 0 1-.23-.668c.123-.248.412-.351.642-.231 1.985 1.002 3.74 2.124 5.065 2.997a.508.508 0 0 1 .14.685.467.467 0 0 1-.412.232zm-135.155-1.354a.474.474 0 0 1-.411-.248.513.513 0 0 1 .172-.685c1.845-1.122 3.509-1.978 5.222-2.698a.483.483 0 0 1 .626.274.516.516 0 0 1-.272.66c-1.672.693-3.286 1.524-5.09 2.629a.488.488 0 0 1-.247.068zm38.543-.137a.376.376 0 0 1-.239-.068c-1.803-1.08-3.426-1.901-5.114-2.586-.255-.103-.362-.394-.272-.651.099-.257.37-.386.618-.283 1.713.694 3.426 1.559 5.246 2.663.23.138.305.446.181.686a.5.5 0 0 1-.42.24zm58.144-1.233a.462.462 0 0 1-.42-.274.501.501 0 0 1 .206-.676 33.375 33.375 0 0 1 5.41-2.27.473.473 0 0 1 .602.334.513.513 0 0 1-.322.625 32.5 32.5 0 0 0-5.254 2.201.435.435 0 0 1-.222.06zm-154.839-.12a.465.465 0 0 1-.214-.051 31.137 31.137 0 0 0-5.27-2.167.492.492 0 0 1-.322-.625.48.48 0 0 1 .593-.343 34.112 34.112 0 0 1 5.428 2.236c.23.12.329.428.214.668a.476.476 0 0 1-.429.282zm182.947-2.278c-.05 0-.09-.008-.14-.017a33.012 33.012 0 0 0-5.567-1.148.506.506 0 0 1-.42-.565.484.484 0 0 1 .535-.428c2.026.248 3.895.634 5.724 1.182.247.068.395.351.32.616a.468.468 0 0 1-.452.36zm-114.13-.616a.488.488 0 0 1-.469-.403.503.503 0 0 1 .37-.59 38.903 38.903 0 0 1 5.782-.789.482.482 0 0 1 .502.471.48.48 0 0 1-.453.523 38.068 38.068 0 0 0-5.624.77c-.042.009-.075.018-.108.018zm17.18-.06c-.033 0-.058 0-.09-.009-1.771-.368-3.674-.608-5.642-.728a.492.492 0 0 1-.461-.522c.016-.274.255-.506.51-.471 2.018.111 3.962.36 5.782.745a.502.502 0 0 1 .379.582.496.496 0 0 1-.478.403zm79.812-.42a.488.488 0 0 1-.486-.437.5.5 0 0 1 .42-.565 44.508 44.508 0 0 1 5.806-.394c.263 0 .477.231.477.505a.483.483 0 0 1-.477.497c-1.985.017-3.904.137-5.683.394h-.057zm-176.795-.034c-.016 0-.033 0-.058-.009a44.524 44.524 0 0 0-5.69-.351.488.488 0 0 1-.478-.497c0-.274.214-.505.478-.505 2.034 0 3.986.128 5.814.36a.502.502 0 0 1 .412.556.494.494 0 0 1-.478.446z"/>
        </g>
    </g>
</svg>
