<svg xmlns="http://www.w3.org/2000/svg" xmlns:xlink="http://www.w3.org/1999/xlink" width="1440" height="807" viewBox="0 0 1440 807">
    <defs>
        <radialGradient id="b" cx="80.436%" cy="76.309%" r="156.228%" fx="80.436%" fy="76.309%" gradientTransform="matrix(-.49451 -.4705 .26368 -.8824 1 1.815)">
            <stop offset="0%" stop-color="#FFF"/>
            <stop offset="100%" stop-color="#F7F7F7"/>
        </radialGradient>
        <path id="a" d="M0 0h1440v807H0z"/>
        <path id="d" d="M0 .354h164.296v334.45H0z"/>
        <path id="f" d="M.673.599H188.89v257.7H.673z"/>
    </defs>
    <g fill="none" fill-rule="evenodd">
        <mask id="c" fill="#fff">
            <use xlink:href="#a"/>
        </mask>
        <use fill="url(#b)" xlink:href="#a"/>
        <g mask="url(#c)">
            <g transform="rotate(9 1164.379 2081.645)">
                <mask id="e" fill="#fff">
                    <use xlink:href="#d"/>
                </mask>
                <path fill="#231F20" d="M15.464 83.961c7.082-25.948 35.804-64.079 64.497-67.168 41.45-4.466 65.607 31.972 67.79 68.984 2.18 36.895-5.262 75.54-9.692 112.085-5.146 42.487-11.225 84.851-18.338 127.051-1.675 9.923 13.462 14.185 15.146 4.19 8.536-50.617 15.555-101.47 21.402-152.467 4.9-42.74 17.003-94.229-3.513-134.607-14.725-28.987-51.66-49.107-84.077-39.055C37.786 12.554 8.612 49.367.314 79.77c-2.673 9.796 12.476 13.976 15.15 4.192" mask="url(#e)"/>
            </g>
            <path fill="#231F20" d="M421.641 189.429c11.451-48.371 31.107-93.969 55.68-137.078 18.692-32.779 50.46-96.32 97.961-87.463 49.374 9.204 24.022 94.385 15.705 124.884-13.24 48.53-33.883 94.702-49.557 142.446-3.135 9.541 11.187 16.131 14.347 6.511 18.442-56.178 43.496-110.417 56.163-168.38 8.179-37.423 21.366-106.644-29.845-120.033-49.515-12.943-84.108 37.76-106.023 73.427-31.246 50.862-56.198 104.986-69.99 163.222-2.338 9.865 13.235 12.283 15.56 2.464"/>
            <path fill="#231F20" d="M555.404 237.094c15.879-50.104 33.253-99.743 55.285-147.529 11.023-23.914 22.814-47.783 36.238-70.462C659.382-1.95 686.47-27.44 713.039-14.183c53.454 26.674 5.71 118.589-10.003 155.68-18.702 44.136-35.976 87.447-44.598 134.81-7.298 40.09-11.683 82.879 9.97 119.554 5.163 8.741 17.906-.567 12.784-9.241-22.643-38.352-12.111-88.472-2.909-129.452 12.622-56.224 40.7-106.88 59.519-160.998 13.712-39.437 30.43-109.152-24.338-127.079-50.855-16.644-81.203 42.292-99.59 77.949-30.295 58.759-52.937 120.635-72.872 183.54-3.03 9.546 11.346 16.15 14.402 6.514M406.047-125.522c50.906 14.094 35.243 92.728 24.267 128.05-18.226 58.659-39.846 116.453-59.84 174.533-1.496 4.34.387 10.673 5.952 11.01 11.753.71 22.99 2.586 34.236 6.19 9.567 3.067 16.157-11.211 6.512-14.304-12.59-4.036-25.07-6.604-38.29-7.4 1.981 3.67 3.967 7.34 5.949 11.01l37.019-107.538c11.795-34.263 26.394-68.893 32.418-104.773 7.072-42.13 2.843-98.833-45.766-112.293-9.758-2.7-12.136 12.837-2.457 15.515"/>
            <path fill="#231F20" d="M553.463-34.842c24.524 5.944 19.914 36.073 17.06 53.911-3.947 24.7-10.356 48.861-18.724 72.423-15.923 44.832-37.072 87.557-51.703 132.888-1.528 4.737.429 10.137 5.947 10.985 13.4 2.059 26.802 4.121 40.204 6.184 10.013 1.541 12.483-13.933 2.452-15.478-13.403-2.062-26.805-4.125-40.205-6.184 1.984 3.662 3.962 7.32 5.945 10.985 17.848-55.3 45.4-107.009 61.332-162.948 9.656-33.906 31.997-105.677-19.857-118.244-9.847-2.387-12.243 13.105-2.451 15.478M1360.2 392.709c26.152-37.407 16-90.297-31.977-100.703-42.555-9.231-80.691 21.425-103.601 54.283-19.69 28.231-35.422 65.04-32.23 100.17 3.532 38.855 39.574 54.65 74.921 40.697 23.855-9.415 42.177-29.64 58.309-48.83 17.583-20.913 33.265-43.356 48.545-65.978 5.632-8.341-6.51-18.363-12.177-9.967-23.983 35.51-49.765 77.968-85.913 102.414-18.178 12.293-52.186 20.51-64.14-4.099-6.113-12.58-4.708-28.292-2.217-41.562 6.8-36.24 27.98-72.835 57.329-95.35 19.93-15.294 44.54-23.239 68.955-13.048 28.73 11.993 27.535 49.81 12.021 72.003-5.783 8.266 6.368 18.276 12.176 9.97"/>
            <path fill="#231F20" d="M1389.965 325.714c-21.862 29.315-39.408 62.246-54.43 95.58-14.835 32.929-28.946 68.547-32.173 104.872-.892 10.013 14.426 12.515 15.323 2.427 3.118-35.06 16.626-69.051 30.975-100.835 14.503-32.125 31.22-63.861 52.295-92.121 6.023-8.075-5.955-18.015-11.99-9.923M838.38 113.106C783.77 130.95 735.086 205.029 748 262.763c6.312 28.232 30.505 45.385 58.703 46.586 31.376 1.334 58.29-16.14 75.949-41.235 33.581-47.728 60.46-143.84-.932-181.752-24.2-14.942-56.814-10.489-76.487 10.155-20.432 21.436-21.363 57.185-2.916 80.146 22.838 28.423 66.627 32.681 100.402 31.51 40.658-1.404 78.777-15.769 112.966-37.302 8.584-5.41-.7-18.13-9.242-12.748-44.828 28.238-98.107 41.928-150.63 30.517-28.32-6.155-55.202-25.128-50.476-57.56 3.964-27.22 33.042-44.386 58.894-35.654 28.029 9.462 39.067 41.449 38.074 68.562-1.003 27.26-10.398 55.418-22.98 79.479-12.023 22.998-31.025 44.412-57.628 49.185-26.544 4.764-54.088-7.536-58.952-36.103-8.521-50.011 34.352-113.406 81.343-128.762 9.626-3.144 3.902-17.822-5.708-14.681"/>
            <path fill="#231F20" d="M1023.349 198.698c-54.47 9.088-101.393 65.273-99.851 120.51.853 30.632 23.292 52.064 53.54 53.37 34.887 1.511 61.906-23.62 81.571-49.725 21.7-28.808 41.17-62.74 42.372-99.673.994-30.532-12.886-65.776-44.274-75.919-25.915-8.37-54.704 7.078-65.796 31.25-12.847 28.007-.477 62.486 23.632 80.17 59.993 44.012 133.718 4.2 177.407-42.81 6.917-7.443-5.303-17.365-12.173-9.975-27.45 29.54-68.948 59.459-110.892 55.357-26.21-2.56-53.29-13.481-63.677-39.595-10.08-25.357 3.266-57.434 32.502-60.813 29.168-3.377 46.013 28.466 47.547 53.302 1.91 30.925-12.625 60.638-29.456 85.626-14.686 21.805-33.275 46.626-59.486 54.747-26.7 8.273-55.507-4.959-57.133-34.837-2.565-47.045 39.66-97.616 85.921-105.332 9.938-1.66 8.271-17.324-1.754-15.653M1375.726 634.903c23.417-33.962 49.287-68.97 80.354-96.459 18.872-16.703 43.09-32.544 68.767-35.208 28.704-2.98 55.442 12.041 60.536 41.374 3.65 21.018-3.88 41.73-10.854 61.24-5.8 16.222-12.459 31.902-20.334 47.224-17.942 34.912-37.671 68.885-56.302 103.43-4.817 8.924 9.64 15.376 14.419 6.514 32.417-60.092 74.75-121.018 88.148-189.094 7.025-35.7-8.47-72.787-45.416-83.559-39.935-11.643-80.774 10.707-109.677 36.617-31.522 28.26-57.979 63.268-81.897 97.952-5.72 8.29 6.503 18.308 12.256 9.97"/>
            <path fill="#FFF" d="M1367.41 620.355l85.674-152.938 18.591 31.598-69.906 152.643z"/>
            <path fill="#231F20" d="M1692.45 243.967c-28.342-29.431-75.434-1.947-100.283 18.675-33.952 28.178-61.355 65.749-86.168 101.822-56.334 81.891-101.443 171.31-142.707 261.514-4.21 9.21 10.136 15.696 14.347 6.5 37.348-81.648 77.825-162.51 126.976-237.798 23.52-36.026 49.097-71.164 78.978-102.242 19.962-20.763 70.476-65.825 98.888-36.319 7.02 7.292 16.909-4.946 9.968-12.152M700.349-20.46c11.358 27.916 4.027 57.227-6.181 84.324-10.098 26.799-21.86 52.974-32.47 79.57a1033.275 1033.275 0 0 0-36.567 109.027c-15.454 56.294-20.54 127.982 47.945 148.21 9.725 2.873 12.095-12.72 2.465-15.563-67.393-19.904-43.395-103.875-28.174-152.416 13.375-42.666 29.142-84.002 46.195-125.34 17.22-41.724 39.878-88.388 21.508-133.533-3.82-9.388-18.559-3.712-14.721 5.72M834.411 123.976c1.888 6.12 10.875 16.885 10.958 22.805.131 9.973-19.245 19.29-25.87 25.185-13.51 12.024-24.794 26.337-33.114 42.32-14.914 28.634-24.915 73.559 9.561 92.464 8.994 4.933 15.477-9.403 6.555-14.296-23.163-12.702-13.152-46.27-4.806-64.923 7.92-17.7 20.074-33.577 34.99-46.123 9.144-7.69 25.903-14.263 29.193-26.843 3.263-12.49-9.194-25.13-12.63-36.267-2.987-9.684-17.814-3.976-14.837 5.678"/>
            <path fill="#FFF" d="M827.4 91.577l-22.497 23.959-10.232 24.038 5.752 25.106 40.914 31.781 78.737 2.818-4.575 21.24-69.4 4.242-53.89-9.742-29.546-33.444-2.789-38.37 27.504-43.238 30.451-14.342z"/>
            <path fill="#231F20" d="M853.478 77.677c-31.925-.53-68.353 11.094-88.196 37.677-20.252 27.134-18.072 67.34 6.438 90.887 28.84 27.71 74.845 29.167 112.454 26.9 40.225-2.423 79.501-14.143 112.299-38.081 8.224-6.004-1.036-18.81-9.264-12.804-26.437 19.294-57.232 29.946-89.56 33.79-31.523 3.75-70.231 4.807-99.193-10.09-30.216-15.54-41.914-54.296-19.71-82.157 17.85-22.404 49.02-30.843 76.485-30.388 10.108.168 8.288-15.567-1.753-15.734"/>
            <path fill="#231F20" d="M916.281 141.11c-6.053-29.31-25.365-58.252-56.945-62.983-29.238-4.38-58.935 13.64-67.38 42.198-8.742 29.548 5.547 59.205 32.052 73.44 32.19 17.288 74.698 16.905 109.665 10.48 9.844-1.808 8.203-17.431-1.74-15.604-39.772 7.309-125.068 9.012-126.91-49.065-.84-26.388 21.306-47.756 47.64-46.386 26.404 1.374 43.143 25.84 48.066 49.685 2.022 9.795 17.6 8.155 15.552-1.765M1019.175 207.783c2.431 10.7 4.865 21.4 7.3 32.1 1.068-2.41 2.14-4.819 3.208-7.228-25.653 16.725-52.305 34.675-69.238 60.7-13.066 20.086-23.968 49.646-9.825 71.676 5.489 8.554 18.267-.7 12.801-9.216-12.806-19.941 6.645-51.352 19.806-66.387 15.626-17.852 36.025-31.17 55.785-44.053 2.136-1.391 3.787-4.665 3.208-7.224l-7.304-32.1c-2.219-9.75-17.99-8.153-15.741 1.732"/>
            <path fill="#FFF" d="M1024.517 161.154l-19.373 15.4-10.276 23.987 5.83 25.079 37.99 41.893 55.832 1.863-24.281 37.452-95.036-29.85-18.684-28.338.09-29.047 9.254-36.886 21.611-21.726 30.642-14.278z"/>
            <path fill="#231F20" d="M1067.788 154.197c-24.978-15.358-65.913-19.488-89.708.4-28.71 23.998-35.782 69.803-23.253 103.698 14.374 38.886 58.364 55.858 97.091 56.442 40.975.621 79.929-18.7 102.494-53.099 5.504-8.396-6.637-18.423-12.183-9.966-17.592 26.828-45.47 43.784-77.523 46.877-33.85 3.268-78.17-8.06-93.461-41.637-12.345-27.109-7.936-66.497 14.119-87.674 19.494-18.716 54.68-13.777 75.92-.72 8.62 5.297 15.021-9.084 6.504-14.32"/>
            <path fill="#231F20" d="M1099.882 208.027c-4.847-31.85-28.29-66.039-64.556-61.805-34.478 4.023-55.935 39.034-48.661 71.737 9.581 43.094 57.38 66.85 98.62 60.571 40.621-6.185 75.53-33.116 104.827-60.186 7.367-6.808-1.818-19.625-9.263-12.747-36.16 33.413-91.657 76.286-143.292 50.5-23.093-11.534-42.386-35.84-35.387-62.969 4.965-19.258 24.943-34.653 45.232-30.903 22.017 4.064 33.769 27.534 36.818 47.56 1.517 9.986 17.191 8.306 15.662-1.758M1351.569 298.763c-43.074-5.186-76.988 39.507-96.183 71.423-19.439 32.311-42.888 84.057-11.577 117.233 6.909 7.324 19.817-1.839 12.83-9.239-25.778-27.313-5.167-69.87 10.4-96.717 9.253-15.958 19.6-32.601 33.612-44.933 12.671-11.16 30.655-24.359 48.455-22.216 10.119 1.22 12.633-14.326 2.463-15.55M1337.19 521.808c-9.078 1.5-17.532-2.366-26.41-3.667-10.101-1.479-12.52 13.605-2.39 15.089 10.386 1.524 19.997 5.552 30.664 3.786 9.982-1.648 8.215-16.876-1.864-15.208"/>
            <path fill="#231F20" d="M1394.408 337.905a479.86 479.86 0 0 1 29.782 7.155 22690.78 22690.78 0 0 0-4.936-12.788c-41.219 61.246-76.209 124.206-89.303 197.53-1.78 9.992 13.955 12.484 15.734 2.493 12.6-70.553 46.246-131.077 85.91-190.016 3.55-5.275 1.15-11.119-4.94-12.785a480.044 480.044 0 0 0-29.782-7.156c-10.044-2.079-12.484 13.492-2.465 15.567M1674.837 236.717c-37.936 15.443-69.788 49.768-95.54 80.715-26.15 31.425-48.987 65.53-70.134 100.498-44.23 73.125-81.584 151.134-110.483 231.614-3.41 9.493 10.864 16.053 14.29 6.505 27.225-75.819 62.042-149.29 102.797-218.72 20.666-35.204 43.17-69.49 68.687-101.362 25.592-31.962 57.365-68.815 96.075-84.572 9.354-3.806 3.706-18.502-5.692-14.678"/>
            <path fill="#231F20" d="M1453.606 202.998c-16.379 36.798-13.982 86.264 14.78 116.975 26.667 28.476 73.608 34.931 110.648 33.31 10.139-.442 8.345-16.011-1.781-15.57-30.855 1.351-69.308-3.458-93.417-24.562-28.42-24.88-30.189-71.452-15.852-103.661 4.103-9.222-10.275-15.71-14.378-6.492M1192.292 284.002c80.486-16.83 162.306-65.813 202.212-139.739 12.738-23.603 28.454-64.434 6.555-87.263-21.78-22.712-57.412-17.021-81.321-1.89-30.194 19.097-55.503 46.593-78.637 73.448-26.775 31.081-51.295 64.15-74.101 98.222-44.831 66.975-80.901 141.24-91.738 221.92-9.523 70.937 4.773 154.249 75.116 188.98 9.123 4.503 15.604-9.858 6.52-14.343-54.266-26.791-71.102-88.864-68.52-145.23 3.35-73.1 31.62-145.719 69.325-207.792 35.221-57.98 76.352-114.49 124.11-162.824 18.18-18.395 43.164-45.152 70.114-49.34 14.24-2.21 35 .871 41.848 15.541 5.995 12.842-.167 32.473-4.819 44.844-29.897 79.532-118.73 133.147-198.43 149.812-9.836 2.055-8.193 17.735 1.766 15.654"/>
            <path fill="#231F20" d="M1395.942 54.525c-36.615-9.661-70.702 28.221-92.444 52.261-36.416 40.265-70.014 83.36-98.684 129.478-49.255 79.224-91.314 170.279-93.642 264.926-1.16 47.116 8.863 93.497 35.722 132.844 5.721 8.382 18.45-.876 12.741-9.237-44.048-64.531-38.626-150.958-16.053-222.335 29.314-92.691 81.731-178.304 143.6-252.728 14.652-17.62 29.528-35.42 46.093-51.302 15.282-14.648 37.301-34.422 60.208-28.377 9.79 2.585 12.183-12.965 2.46-15.53M1364.438 636.06c11.73 7.388 23.884 14.106 35.506 21.667 8.608 5.597 18.84-6.548 10.173-12.183-11.625-7.56-23.772-14.278-35.51-21.668-8.668-5.46-18.909 6.677-10.169 12.184M506.223 216.522l-.7 16.635 9.326 4.793c1.794-2.26 2.778-3.937 2.952-5.033.173-1.096-.546-6.8-2.16-17.116l-9.418.721zM377.92 172.549l4.573 14.899 5.97-11.138-3.78-2.69-6.762-1.071z"/>
        </g>
        <g mask="url(#c)" opacity=".75">
            <g fill="#FFF">
                <path d="M754.59 492.912c52.082 34.833 93.18 85.838 116.143 144.139 22.025-35.392 57.882-62.296 95.351-80.565-66.375-19.881-122.377-71.722-147.313-136.37-18.227 27.225-38.072 53.006-64.182 72.796M856.118 676.673c32.658 63.616 46.885 136.562 40.53 207.788a560.844 560.844 0 0 0-122.79 5.638c10.911-27.765 18.078-57.459 16.596-87.253-1.482-29.791-12.22-59.76-33.196-80.97l.034.123c28.96-24.242 61.34-40.762 98.826-45.326M1058.125 765.834c66.137 23.673 139.958 25.28 207.062 4.506-18.106-34.317-29.716-63.776-36.963-103.486-58.51 27.74-131.1 23.319-185.808-11.32 11.123 32.884 15.544 75.584 15.71 110.3"/>
            </g>
            <path fill="#464646" d="M751.775 496.705c51.585 34.918 91.446 84.459 114.594 142.285 1.318 3.29 6.328 3.709 8.218.74 22.454-35.258 56.391-60.666 93.48-79.002 3.546-1.757 3.718-7.54-.395-8.805-65.689-20.2-119.44-69.991-144.64-133.924-1.327-3.369-6.279-3.625-8.218-.74-17.986 26.713-37.706 52.062-63.342 71.885-4.853 3.752 1.23 11.07 6.063 7.332 26.278-20.317 46.63-46.375 65.07-73.762-2.74-.246-5.479-.494-8.217-.742 26.058 66.109 82.179 118.03 150.094 138.915l-.392-8.803c-38.523 19.049-73.968 45.563-97.293 82.19l8.218.74c-23.734-59.282-64.907-110.31-117.785-146.1-5.06-3.429-10.534 4.354-5.455 7.791"/>
            <path fill="#464646" d="M818.846 557.892c27.029 24.946 63.048-21.128 70.956-43.837 2.012-5.77-6.942-8.99-8.962-3.187-4.198 12.05-11.52 23.054-21.019 31.604-7.646 6.884-23.488 18.73-33.643 9.357-4.44-4.097-11.816 1.925-7.332 6.063M801.76 524.962c4.792-23.123 23.88-43.172 47.532-46.768 6.065-.92 4.402-10.286-1.653-9.365-28.203 4.286-49.708 28.08-55.361 55.357-1.238 5.974 8.251 6.713 9.482.776M825.232 536.534c11.131-10.823 22.465-21.435 33.597-32.26 4.364-4.244-1.672-11.6-6.063-7.332-11.13 10.824-22.464 21.438-33.596 32.26-4.366 4.246 1.673 11.602 6.062 7.332"/>
            <path fill="#464646" d="M815.754 516.044c3.087 7.673 8.713 13.97 16.2 17.578 5.647 2.724 15.53 4.845 18.504-2.784 2.868-7.354-5.024-16.862-8.916-22.604a22.384 22.384 0 0 1-2.373-3.482c-.363.25-.727.496-1.09.746 1.239 1.491 4.1 2.54 5.678 3.749 3.483 2.668 6.202 5.578 6.68 10.122.643 6.098 10.007 4.413 9.37-1.653-.87-8.22-6.824-13.891-13.411-18.222-4.946-3.25-12.836-7.003-16.396.214-3.676 7.443 5.147 15.295 8.357 21.18.744 1.365 2.901 5.489 2.643 5.803-.591.718-5.508-1.857-6.372-2.353-4.882-2.785-8.164-7.128-10.232-12.267-2.291-5.696-10.921-1.69-8.642 3.973M786.076 495.867c3.51-5.012-4.275-10.478-7.792-5.455-3.51 5.014 4.276 10.478 7.792 5.455M821.302 455.507c3.511-5.014-4.273-10.477-7.79-5.455-3.51 5.015 4.274 10.477 7.79 5.455M881.28 602.013c3.51-5.015-4.275-10.479-7.792-5.456-3.51 5.012 4.275 10.478 7.792 5.456M931.313 560.406c3.51-5.014-4.274-10.477-7.79-5.454-3.51 5.012 4.273 10.477 7.79 5.454M851.748 678.627c32.2 63.387 46.143 134.644 40.125 205.49 1.709-1.45 3.419-2.9 5.128-4.352a582.453 582.453 0 0 0-124.05 5.699l5.308 6.277c21.82-56.384 27.695-125.865-17.42-172.908-2.924-3.05-9.839-1.127-8.352 3.856l.037.118c.99 3.314 4.717 5.32 7.715 2.842 28.119-23.252 60.225-39.55 96.656-44.326 6.083-.796 4.41-10.16-1.652-9.365-37.953 4.973-71.775 22.134-101.068 46.358 2.574.947 5.145 1.895 7.717 2.84l-.036-.118c-2.783 1.286-5.568 2.57-8.35 3.857 42.877 44.712 36.473 110.21 15.79 163.657-1.322 3.42 1.868 6.807 5.307 6.279a570.492 570.492 0 0 1 121.621-5.584c2.568.157 4.909-1.742 5.13-4.35 6.148-72.373-8.065-145.481-40.964-210.243-2.77-5.456-11.418-1.492-8.642 3.973"/>
            <path fill="#464646" d="M787.804 811.008c32.803 25.093 84.784 14.175 109.412-17.293 3.777-4.823-4.025-10.265-7.79-5.454-21.559 27.544-67.616 36.795-96.166 14.955-4.866-3.723-10.312 4.076-5.456 7.792M791.079 778.009c18.887-32.146 57.486-43.865 90.83-27.104 5.448 2.74 8.605-6.241 3.189-8.963-36.823-18.512-80.991-4.824-101.81 30.612-3.08 5.241 4.685 10.743 7.791 5.455M808.868 791.997l64.8-19.747c5.789-1.765 4.2-11.15-1.652-9.367-21.6 6.582-43.2 13.166-64.801 19.746-5.79 1.765-4.2 11.152 1.653 9.368"/>
            <path fill="#464646" d="M817.637 768.263c-1.939 8.035-1.154 16.235 3.623 23.203 3.912 5.711 10.791 9.953 16.59 4.008 6.324-6.48 1.495-17.988 2.925-25.974.24-1.335.824-7.464 3.613-6.053.907.455 1.878 7.048 2.078 8.208 1.077 6.217.987 12.401.214 18.647-.754 6.078 8.728 6.855 9.481.777 1.07-8.64 1.029-47.164-17.023-37.458-6.634 3.568-8.083 13.61-8.403 20.263-.07 1.461 1.493 12.933.836 13.445-2.31 1.794-4.352-4.848-4.748-6.17-.97-3.243-1.022-6.396-.223-9.707 1.42-5.883-7.525-9.153-8.963-3.19M793.362 730.887c3.51-5.014-4.274-10.477-7.79-5.455-3.51 5.013 4.273 10.477 7.79 5.455M853.212 698.479c3.51-5.014-4.274-10.477-7.79-5.455-3.51 5.013 4.273 10.477 7.79 5.455"/>
            <g transform="rotate(-55 1189.237 -587.51)">
                <mask id="g" fill="#fff">
                    <use xlink:href="#f"/>
                </mask>
                <path fill="#464646" d="M.87 82.623c19.184 68.776 60.118 130.312 116.342 174.36 2.254 1.769 5.923 2.037 7.471-.96 16.89-32.684 37.05-62.368 62.852-88.707 2.133-2.178 1.71-5.92-.963-7.47-55.061-31.92-91.508-91.06-94.986-154.65-.27-4.978-6.08-6.123-8.863-2.4C60.957 31.913 32.531 56.242 3.056 77.253c-4.943 3.522-.197 11.774 4.8 8.21C38.78 63.421 68.114 38.127 90.937 7.595c-2.952-.8-5.905-1.6-8.86-2.399 3.657 66.929 41.664 129.222 99.694 162.864l-.963-7.47c-26.346 26.895-47.08 57.245-64.339 90.632 2.491-.32 4.98-.642 7.472-.963C68.923 207.157 28.825 147.433 10.042 80.095 8.401 74.207-.779 76.71.87 82.623" mask="url(#g)"/>
            </g>
            <path fill="#464646" d="M1146.913 778.14c-26.818-21.322-35.73-59.388-22.013-90.603 2.46-5.6-6.509-8.779-8.965-3.19-15.473 35.212-4.448 77.755 25.521 101.585 4.795 3.814 10.233-3.994 5.457-7.792M1192.303 785.478c10.76-37.562 1.658-78.531-24.428-107.721-4.076-4.56-11.418 1.494-7.334 6.063 23.815 26.647 32.662 64.04 22.8 98.469-1.677 5.85 7.27 9.097 8.962 3.19M1139.628 703.277c4.75 18.308 9.504 36.617 14.255 54.925 1.531 5.895 10.909 4.286 9.368-1.65l-14.255-54.926c-1.53-5.895-10.91-4.285-9.368 1.651"/>
            <path fill="#464646" d="M1165.412 709.175c-7.388-3.241-15.997-6.31-23.687-2.16-5.874 3.172-9.705 10.216-7.282 16.741 2.81 7.565 11.49 8.901 18.543 8.906 2.31 0 5.146-.46 7.346.457 5.29 2.2 3.564 6.96-.412 9.248-5.638 3.24-12.002 2.129-16.964-1.709-4.844-3.75-10.288 4.053-5.455 7.79 11.347 8.782 37.702 5.949 36.773-12.76-.443-8.948-9.462-12.184-17.12-12.542-3.43-.163-14.49 1.521-13.838-4.515.906-8.336 15.463-2.006 18.906-.493 5.603 2.456 8.782-6.51 3.19-8.963M1082.608 752.273c3.51-5.014-4.273-10.478-7.79-5.454-3.51 5.012 4.273 10.477 7.79 5.454M1072.878 681.595l-.964-.676c-5.013-3.51-10.476 4.275-5.456 7.79l.965.676c5.014 3.511 10.477-4.274 5.455-7.79l-.964-.676c-5.013-3.51-10.476 4.275-5.456 7.79l.965.676c5.014 3.511 10.477-4.274 5.455-7.79M1219.607 692.6c3.51-5.014-4.275-10.479-7.792-5.457-3.511 5.014 4.275 10.478 7.792 5.456M1243.44 758.057c3.51-5.012-4.273-10.477-7.79-5.454-3.51 5.014 4.274 10.477 7.79 5.454"/>
        </g>
    </g>
</svg>
