<svg xmlns="http://www.w3.org/2000/svg" xmlns:xlink="http://www.w3.org/1999/xlink" width="375" height="661" viewBox="0 0 375 661">
    <defs>
        <path id="a" d="M.5 0h375v661H.5z"/>
        <radialGradient id="d" cx="80.436%" cy="76.309%" r="124.073%" fx="80.436%" fy="76.309%" gradientTransform="scale(-1 -.75712) rotate(51.489 1.836 -1.79)">
            <stop offset="0%" stop-color="#FFF"/>
            <stop offset="100%" stop-color="#F7F7F7"/>
        </radialGradient>
        <path id="c" d="M.926 0h558v737h-558z"/>
        <path id="f" d="M0 .137h63.702v129.676H0z"/>
        <path id="h" d="M.26.232h72.978v99.918H.261z"/>
    </defs>
    <g fill="none" fill-rule="evenodd">
        <mask id="b" fill="#fff">
            <use xlink:href="#a"/>
        </mask>
        <use fill="#FFF" xlink:href="#a"/>
        <g mask="url(#b)">
            <g transform="translate(-183)">
                <mask id="e" fill="#fff">
                    <use xlink:href="#c"/>
                </mask>
                <use fill="url(#d)" xlink:href="#c"/>
                <g mask="url(#e)">
                    <g transform="rotate(9 -2242.41 1025.517)">
                        <mask id="g" fill="#fff">
                            <use xlink:href="#f"/>
                        </mask>
                        <path fill="#231F20" d="M5.996 32.554C8.742 22.494 19.878 7.709 31.003 6.511 47.074 4.78 56.441 18.907 57.287 33.258c.846 14.305-2.04 29.289-3.758 43.459a1071.666 1071.666 0 0 1-7.11 49.26c-.65 3.848 5.22 5.5 5.873 1.625 3.31-19.625 6.03-39.342 8.298-59.115 1.9-16.572 6.592-36.535-1.362-52.191-5.71-11.24-20.03-19.04-32.6-15.143C14.652 4.867 3.34 19.141.123 30.93c-1.037 3.798 4.837 5.419 5.874 1.625" mask="url(#g)"/>
                    </g>
                    <path fill="#231F20" d="M164.482 497.55c4.44-18.754 12.061-36.434 21.589-53.149 7.247-12.709 19.564-37.346 37.982-33.912 19.144 3.57 9.314 36.596 6.09 48.421-5.134 18.817-13.138 36.72-19.215 55.23-1.216 3.7 4.337 6.255 5.562 2.526 7.15-21.782 16.865-42.812 21.776-65.286 3.172-14.51 8.284-41.349-11.572-46.54-19.198-5.019-32.61 14.64-41.107 28.47-12.115 19.72-21.79 40.705-27.138 63.285-.906 3.825 5.132 4.763 6.033.955"/>
                    <path fill="#231F20" d="M216.346 516.032c6.156-19.427 12.893-38.674 21.435-57.202 4.274-9.272 8.846-18.526 14.05-27.32 4.83-8.163 15.333-18.045 25.634-12.906 20.726 10.343 2.214 45.98-3.878 60.362-7.252 17.112-13.95 33.905-17.292 52.27-2.83 15.544-4.53 32.134 3.866 46.354 2.001 3.389 6.942-.22 4.956-3.583-8.779-14.87-4.696-34.303-1.128-50.192 4.894-21.8 15.78-41.44 23.077-62.424 5.317-15.29 11.799-42.321-9.436-49.272-19.718-6.453-31.485 16.398-38.614 30.223-11.746 22.783-20.525 46.774-28.254 71.163-1.175 3.702 4.399 6.262 5.584 2.527M158.436 375.435c19.737 5.465 13.665 35.953 9.409 49.648-7.067 22.744-15.45 45.153-23.202 67.672-.58 1.683.15 4.138 2.308 4.27 4.557.274 8.914 1.001 13.274 2.399 3.71 1.19 6.265-4.347 2.525-5.546-4.881-1.565-9.72-2.56-14.846-2.87l2.306 4.27 14.354-41.696c4.573-13.285 10.233-26.712 12.57-40.623 2.741-16.335 1.102-38.32-17.745-43.54-3.784-1.046-4.706 4.978-.953 6.016"/>
                    <path fill="#231F20" d="M215.593 410.594c9.509 2.305 7.721 13.987 6.615 20.903-1.53 9.577-4.016 18.945-7.26 28.08-6.174 17.383-14.374 33.949-20.047 51.525-.592 1.836.166 3.93 2.306 4.26 5.196.797 10.392 1.597 15.588 2.397 3.883.597 4.84-5.403.95-6.001-5.196-.8-10.392-1.6-15.587-2.398l2.304 4.259c6.92-21.441 17.604-41.49 23.78-63.18 3.744-13.146 12.407-40.973-7.698-45.846-3.818-.926-4.748 5.081-.951 6.001M528.388 576.368c10.14-14.504 6.204-35.01-12.399-39.046-16.5-3.579-31.286 8.307-40.169 21.047-7.634 10.947-13.734 25.218-12.496 38.84 1.37 15.064 15.344 21.189 29.049 15.778 9.25-3.65 16.353-11.492 22.608-18.932 6.817-8.109 12.898-16.81 18.822-25.582 2.184-3.234-2.524-7.12-4.721-3.864-9.3 13.768-19.295 30.23-33.311 39.709-7.048 4.766-20.234 7.952-24.869-1.59-2.37-4.878-1.825-10.97-.86-16.115 2.637-14.051 10.849-28.24 22.228-36.97 7.728-5.93 17.27-9.01 26.736-5.058 11.14 4.65 10.677 19.312 4.661 27.917-2.242 3.205 2.47 7.086 4.721 3.866"/>
                    <path fill="#231F20" d="M539.928 550.392c-8.476 11.366-15.28 24.135-21.104 37.06-5.751 12.766-11.223 26.577-12.474 40.66-.346 3.883 5.593 4.853 5.941.942 1.21-13.594 6.447-26.773 12.01-39.097 5.623-12.455 12.105-24.76 20.276-35.718 2.336-3.13-2.309-6.984-4.649-3.847M326.063 467.958c-21.173 6.919-40.05 35.64-35.043 58.026 2.448 10.946 11.828 17.597 22.761 18.063 12.166.517 22.6-6.258 29.448-15.988 13.02-18.506 23.442-55.77-.361-70.47-9.383-5.794-22.029-4.067-29.657 3.937-7.922 8.311-8.283 22.172-1.13 31.075 8.855 11.02 25.833 12.671 38.929 12.217 15.764-.544 30.544-6.114 43.8-14.463 3.328-2.097-.272-7.03-3.584-4.943-17.38 10.949-38.039 16.257-58.403 11.832-10.98-2.386-21.404-9.742-19.571-22.317 1.537-10.554 12.811-17.21 22.835-13.824 10.867 3.669 15.147 16.07 14.762 26.583-.389 10.57-4.031 21.487-8.91 30.816-4.662 8.917-12.03 17.22-22.344 19.071-10.292 1.847-20.971-2.922-22.858-13.998-3.303-19.391 13.32-43.97 31.54-49.925 3.732-1.22 1.512-6.91-2.214-5.692"/>
                    <path fill="#231F20" d="M397.781 501.144c-21.12 3.524-39.313 25.308-38.715 46.725.331 11.877 9.031 20.187 20.76 20.693 13.526.586 24.002-9.158 31.627-19.28 8.413-11.17 15.962-24.325 16.428-38.645.386-11.838-4.996-25.503-17.166-29.436-10.048-3.246-21.21 2.744-25.511 12.116-4.981 10.86-.185 24.228 9.163 31.085 23.26 17.064 51.846 1.628 68.786-16.6 2.681-2.885-2.057-6.732-4.72-3.867-10.643 11.453-26.734 23.054-42.996 21.464-10.163-.993-20.662-5.228-24.69-15.353-3.908-9.831 1.267-22.268 12.602-23.578 11.31-1.31 17.841 11.037 18.435 20.666.74 11.99-4.894 23.511-11.42 33.2-5.695 8.454-12.902 18.078-23.065 21.227-10.352 3.208-21.521-1.923-22.152-13.508-.994-18.24 15.377-37.848 33.314-40.84 3.854-.643 3.207-6.717-.68-6.069M534.408 670.273c9.079-13.168 19.11-26.741 31.155-37.4 7.317-6.476 16.708-12.618 26.663-13.65 11.13-1.156 21.496 4.668 23.471 16.041 1.416 8.15-1.504 16.18-4.208 23.744-2.249 6.29-4.83 12.37-7.884 18.31-6.957 13.537-14.606 26.71-21.83 40.103-1.868 3.46 3.738 5.962 5.59 2.526 12.57-23.3 28.984-46.922 34.178-73.317 2.724-13.842-3.284-28.222-17.609-32.398-15.484-4.515-31.318 4.151-42.525 14.197-12.222 10.957-22.48 24.53-31.754 37.979-2.217 3.214 2.522 7.098 4.753 3.865"/>
                    <path fill="#FFF" d="M531.183 664.632l33.218-59.298 7.209 12.252-27.105 59.184z"/>
                    <path fill="#231F20" d="M657.21 518.696c-10.989-11.411-29.247-.755-38.882 7.241-13.164 10.925-23.79 25.493-33.41 39.48-21.842 31.75-39.332 66.421-55.331 101.396-1.633 3.57 3.93 6.085 5.562 2.52 14.481-31.657 30.175-63.01 49.232-92.201 9.12-13.968 19.037-27.592 30.623-39.642 7.74-8.05 27.325-25.522 38.341-14.082 2.722 2.827 6.556-1.918 3.865-4.712M272.545 416.17c4.404 10.824 1.562 22.189-2.397 32.695-3.915 10.391-8.475 20.54-12.589 30.852a400.63 400.63 0 0 0-14.178 42.272c-5.992 21.828-7.964 49.623 18.59 57.466 3.77 1.114 4.69-4.932.955-6.034-26.13-7.718-16.825-40.276-10.924-59.096 5.186-16.543 11.3-32.57 17.911-48.598 6.677-16.178 15.462-34.27 8.34-51.775-1.481-3.64-7.196-1.439-5.708 2.218M324.525 472.173c.732 2.372 4.216 6.546 4.248 8.842.051 3.867-7.462 7.479-10.03 9.764-5.239 4.662-9.614 10.212-12.84 16.409-5.782 11.102-9.66 28.52 3.708 35.851 3.487 1.913 6-3.646 2.541-5.543-8.98-4.925-5.1-17.94-1.863-25.173 3.07-6.862 7.783-13.018 13.566-17.883 3.546-2.981 10.044-5.53 11.32-10.407 1.265-4.843-3.565-9.744-4.898-14.062-1.158-3.755-6.907-1.542-5.752 2.202"/>
                    <path fill="#FFF" d="M321.806 459.61l-8.723 9.29-3.967 9.32 2.23 9.734 15.864 12.323 30.529 1.093-1.774 8.235-26.908 1.644-20.896-3.777-11.455-12.967-1.081-14.877 10.663-16.764 11.807-5.561z"/>
                    <path fill="#231F20" d="M331.917 454.221c-12.378-.205-26.502 4.301-34.196 14.608-7.852 10.521-7.007 26.11 2.496 35.24 11.183 10.744 29.02 11.309 43.602 10.43 15.596-.94 30.825-5.484 43.542-14.765 3.188-2.328-.402-7.294-3.592-4.965-10.25 7.481-22.191 11.611-34.725 13.102-12.222 1.454-27.23 1.863-38.46-3.913-11.716-6.025-16.251-21.052-7.642-31.854 6.92-8.687 19.006-11.959 29.655-11.783 3.92.066 3.214-6.035-.68-6.1"/>
                    <path fill="#231F20" d="M356.268 478.816c-2.347-11.364-9.835-22.586-22.08-24.42-11.336-1.699-22.85 5.288-26.125 16.36-3.389 11.457 2.151 22.956 12.428 28.476 12.48 6.703 28.963 6.554 42.52 4.063 3.817-.701 3.18-6.759-.674-6.05-15.421 2.834-48.493 3.494-49.207-19.024-.325-10.231 8.261-18.516 18.472-17.985 10.237.533 16.727 10.018 18.636 19.264.784 3.798 6.824 3.162 6.03-.684M396.163 504.667c.942 4.148 1.886 8.297 2.83 12.446l1.244-2.803c-9.946 6.485-20.28 13.445-26.845 23.536-5.066 7.787-9.294 19.249-3.81 27.79 2.128 3.317 7.083-.271 4.963-3.573-4.965-7.732 2.577-19.91 7.68-25.74 6.058-6.922 13.968-12.086 21.63-17.08.827-.54 1.467-1.81 1.243-2.802l-2.832-12.446c-.86-3.78-6.975-3.161-6.103.672"/>
                    <path fill="#FFF" d="M398.234 486.588l-7.512 5.97-3.984 9.301 2.26 9.724 14.73 16.243 21.648.722-9.414 14.521-36.848-11.574-7.245-10.987.035-11.262 3.588-14.302 8.38-8.424 11.88-5.536z"/>
                    <path fill="#231F20" d="M415.011 483.89c-9.684-5.955-25.556-7.556-34.782.155-11.131 9.305-13.874 27.065-9.016 40.207 5.573 15.077 22.63 21.657 37.645 21.884 15.887.24 30.99-7.25 39.74-20.588 2.134-3.256-2.573-7.143-4.724-3.864-6.82 10.402-17.63 16.976-30.058 18.175-13.124 1.267-30.308-3.125-36.237-16.144-4.787-10.51-3.077-25.782 5.474-33.993 7.559-7.257 21.201-5.342 29.437-.28 3.342 2.054 5.824-3.521 2.521-5.552"/>
                    <path fill="#231F20" d="M427.455 504.761c-1.88-12.349-10.968-25.605-25.03-23.963-13.368 1.56-21.688 15.134-18.867 27.814 3.715 16.709 22.248 25.92 38.237 23.485 15.75-2.398 29.286-12.84 40.645-23.336 2.856-2.64-.705-7.609-3.592-4.942-14.02 12.955-35.538 29.578-55.558 19.58-8.954-4.472-16.434-13.896-13.72-24.414 1.924-7.467 9.67-13.436 17.537-11.983 8.537 1.576 13.093 10.676 14.276 18.441.588 3.872 6.665 3.22 6.072-.682M525.041 539.942c-16.7-2.01-29.85 15.318-37.293 27.693-7.537 12.528-16.628 32.591-4.488 45.454 2.678 2.84 7.683-.712 4.974-3.582-9.995-10.59-2.003-27.09 4.033-37.5 3.587-6.187 7.6-12.64 13.032-17.422 4.913-4.327 11.886-9.444 18.787-8.613 3.924.473 4.898-5.555.955-6.03M519.466 626.423c-3.52.582-6.797-.917-10.24-1.422-3.916-.573-4.854 5.275-.927 5.85 4.028.592 7.754 2.153 11.89 1.469 3.87-.64 3.185-6.544-.723-5.897"/>
                    <path fill="#231F20" d="M541.651 555.119c3.885.803 7.724 1.725 11.547 2.774l-1.913-4.958c-15.982 23.746-29.549 48.158-34.626 76.588-.69 3.874 5.41 4.84 6.1.966 4.886-27.355 17.932-50.822 33.31-73.674 1.377-2.046.447-4.311-1.915-4.958a186.127 186.127 0 0 0-11.547-2.774c-3.895-.806-4.84 5.231-.956 6.036M650.381 515.885c-14.709 5.988-27.058 19.297-37.044 31.296-10.138 12.184-18.993 25.408-27.192 38.966-17.15 28.352-31.633 58.598-42.837 89.803-1.322 3.68 4.212 6.224 5.54 2.522 10.556-29.397 24.056-57.884 39.857-84.804 8.013-13.65 16.738-26.943 26.632-39.3 9.923-12.393 22.242-26.682 37.251-32.792 3.627-1.475 1.437-7.174-2.207-5.69"/>
                    <path fill="#231F20" d="M564.604 502.812c-6.35 14.267-5.421 33.446 5.73 45.354 10.34 11.041 28.54 13.544 42.902 12.915 3.93-.171 3.235-6.208-.69-6.037-11.964.524-26.873-1.34-36.221-9.523-11.02-9.647-11.705-27.704-6.147-40.192 1.591-3.576-3.983-6.092-5.574-2.517M463.285 534.219c31.207-6.526 62.93-25.517 78.403-54.18 4.94-9.152 11.033-24.984 2.542-33.835-8.445-8.806-22.26-6.6-31.53-.733-11.708 7.404-21.52 18.066-30.49 28.478-10.382 12.051-19.889 24.872-28.731 38.084-17.383 25.968-31.368 54.762-35.57 86.044-3.692 27.504 1.85 59.807 29.125 73.273 3.537 1.746 6.05-3.822 2.528-5.561-21.04-10.388-27.568-34.455-26.567-56.31 1.299-28.343 12.26-56.5 26.879-80.567 13.656-22.48 29.604-44.391 48.12-63.131 7.05-7.132 16.737-17.507 27.186-19.13 5.521-.858 13.57.337 16.226 6.025 2.324 4.979-.065 12.59-1.869 17.387-11.592 30.837-46.034 51.625-76.936 58.086-3.814.797-3.177 6.877.684 6.07"/>
                    <path fill="#231F20" d="M542.246 445.244c-14.197-3.746-27.413 10.943-35.843 20.263-14.12 15.612-27.146 32.322-38.263 50.203-19.098 30.717-35.405 66.021-36.308 102.719-.45 18.268 3.437 36.251 13.851 51.507 2.218 3.25 7.153-.34 4.94-3.581-17.079-25.02-14.976-58.531-6.224-86.206 11.366-35.939 31.69-69.133 55.677-97.99 5.682-6.831 11.45-13.733 17.872-19.89 5.925-5.68 14.463-13.347 23.344-11.003 3.796 1.002 4.724-5.027.954-6.022M197.277 508.055l-.272 6.45 3.616 1.858c.696-.876 1.078-1.526 1.145-1.951.067-.425-.212-2.637-.837-6.636l-3.652.28z"/>
                </g>
                <g mask="url(#e)" opacity=".75">
                    <g fill="#FFF">
                        <path d="M293.575 615.22c20.194 13.505 36.13 33.281 45.032 55.886 8.54-13.722 22.443-24.154 36.971-31.237-25.736-7.709-47.45-27.809-57.118-52.874-7.067 10.555-14.761 20.551-24.885 28.224M411.265 721.039c25.643 9.179 54.265 9.801 80.283 1.747-7.02-13.306-11.521-24.728-14.331-40.125-22.686 10.756-50.831 9.042-72.043-4.389 4.313 12.75 6.027 29.306 6.09 42.767"/>
                    </g>
                    <path fill="#464646" d="M292.484 616.69a120.788 120.788 0 0 1 44.432 55.168c.51 1.275 2.453 1.438 3.186.287 8.706-13.67 21.864-23.522 36.244-30.632 1.376-.68 1.442-2.923-.153-3.413-25.469-7.832-46.31-27.138-56.08-51.927-.515-1.306-2.435-1.405-3.187-.287-6.973 10.358-14.62 20.186-24.56 27.872-1.88 1.455.478 4.292 2.352 2.843 10.188-7.877 18.08-17.98 25.229-28.6l-3.186-.287c10.104 25.632 31.863 45.763 58.196 53.861l-.152-3.413c-14.937 7.386-28.68 17.666-37.724 31.868l3.187.286c-9.202-22.985-25.166-42.77-45.668-56.647-1.963-1.33-4.085 1.688-2.116 3.02"/>
                    <path fill="#464646" d="M318.49 640.414c10.48 9.672 24.445-8.192 27.511-16.997.78-2.237-2.691-3.485-3.475-1.236a29.772 29.772 0 0 1-8.15 12.254c-2.964 2.67-9.106 7.262-13.044 3.628-1.72-1.589-4.581.746-2.843 2.35M311.865 627.646c1.858-8.966 9.259-16.739 18.43-18.133 2.35-.357 1.706-3.988-.641-3.632-10.936 1.662-19.274 10.888-21.466 21.464-.48 2.317 3.2 2.603 3.677.301M320.966 632.133c4.315-4.197 8.71-8.311 13.026-12.508 1.692-1.646-.648-4.498-2.35-2.843-4.316 4.196-8.71 8.312-13.027 12.508-1.693 1.646.649 4.498 2.35 2.843"/>
                    <path fill="#464646" d="M317.29 624.188c1.198 2.975 3.379 5.417 6.282 6.816 2.19 1.056 6.021 1.878 7.174-1.08 1.112-2.851-1.948-6.538-3.456-8.764a8.679 8.679 0 0 1-.92-1.35c-.141.097-.282.192-.423.29.48.577 1.59.984 2.201 1.453 1.35 1.034 2.405 2.162 2.59 3.924.25 2.365 3.88 1.711 3.633-.64-.337-3.187-2.645-5.387-5.2-7.066-1.917-1.26-4.976-2.715-6.357.083-1.425 2.886 1.996 5.93 3.24 8.213.289.529 1.125 2.128 1.025 2.25-.229.278-2.135-.72-2.47-.913-1.893-1.08-3.166-2.764-3.968-4.756-.888-2.209-4.234-.655-3.35 1.54M305.784 616.365c1.36-1.943-1.658-4.062-3.021-2.115-1.362 1.944 1.657 4.062 3.02 2.115M319.442 600.716c1.361-1.944-1.657-4.062-3.02-2.115-1.362 1.945 1.657 4.063 3.02 2.115M342.697 657.52c1.361-1.944-1.658-4.062-3.021-2.115-1.361 1.944 1.657 4.063 3.02 2.116M362.096 641.389c1.361-1.944-1.657-4.062-3.02-2.115-1.361 1.943 1.657 4.062 3.02 2.115"/>
                    <g transform="rotate(-55 868.948 -16.703)">
                        <mask id="i" fill="#fff">
                            <use xlink:href="#h"/>
                        </mask>
                        <path fill="#464646" d="M.337 32.035c7.438 26.667 23.31 50.526 45.11 67.604.873.686 2.296.79 2.896-.372 6.549-12.672 14.365-24.182 24.37-34.394.827-.844.663-2.295-.374-2.896C50.99 49.6 36.86 26.67 35.511 2.015c-.105-1.93-2.358-2.374-3.437-.931-8.44 11.29-19.46 20.723-30.889 28.87-1.917 1.365-.077 4.565 1.861 3.183C15.036 24.59 26.41 14.783 35.26 2.945l-3.436-.93c1.418 25.95 16.154 50.103 38.654 63.146l-.373-2.896c-10.215 10.428-18.255 22.196-24.946 35.14l2.897-.372C26.724 80.32 11.176 57.163 3.894 31.055c-.637-2.283-4.196-1.312-3.557.98" mask="url(#i)"/>
                    </g>
                </g>
            </g>
        </g>
    </g>
</svg>
