<?xml version="1.0" encoding="utf-8"?>
<!-- Generator: Adobe Illustrator 23.0.2, SVG Export Plug-In . SVG Version: 6.00 Build 0)  -->
<svg version="1.1" id="dotted_grid" xmlns="http://www.w3.org/2000/svg" xmlns:xlink="http://www.w3.org/1999/xlink" x="0px"
	 y="0px" viewBox="0 0 300 300" style="enable-background:new 0 0 300 300;" xml:space="preserve">
<style type="text/css">
	.st0{fill:#329BB4;}
</style>
<g>
	<g>
		<g>
			<circle class="st0" cx="12.39" cy="16.34" r="6.89"/>
		</g>
	</g>
	<g>
		<g>
			<circle class="st0" cx="67.47" cy="16.34" r="6.89"/>
		</g>
	</g>
	<g>
		<g>
			<circle class="st0" cx="122.55" cy="16.34" r="6.89"/>
		</g>
	</g>
	<g>
		<g>
			<circle class="st0" cx="177.64" cy="16.34" r="6.89"/>
		</g>
	</g>
	<g>
		<g>
			<circle class="st0" cx="232.72" cy="16.34" r="6.89"/>
		</g>
	</g>
	<g>
		<g>
			<circle class="st0" cx="287.81" cy="16.34" r="6.89"/>
		</g>
	</g>
	<g>
		<g>
			<circle class="st0" cx="12.39" cy="69.9" r="6.89"/>
		</g>
	</g>
	<g>
		<g>
			<circle class="st0" cx="67.47" cy="69.9" r="6.89"/>
		</g>
	</g>
	<g>
		<g>
			<circle class="st0" cx="122.55" cy="69.9" r="6.89"/>
		</g>
	</g>
	<g>
		<g>
			<circle class="st0" cx="177.64" cy="69.9" r="6.89"/>
		</g>
	</g>
	<g>
		<g>
			<circle class="st0" cx="232.72" cy="69.9" r="6.89"/>
		</g>
	</g>
	<g>
		<g>
			<circle class="st0" cx="287.81" cy="69.9" r="6.89"/>
		</g>
	</g>
	<g>
		<g>
			<circle class="st0" cx="12.39" cy="123.45" r="6.89"/>
		</g>
	</g>
	<g>
		<g>
			<circle class="st0" cx="67.47" cy="123.45" r="6.89"/>
		</g>
	</g>
	<g>
		<g>
			<circle class="st0" cx="122.55" cy="123.45" r="6.89"/>
		</g>
	</g>
	<g>
		<g>
			<circle class="st0" cx="177.64" cy="123.45" r="6.89"/>
		</g>
	</g>
	<g>
		<g>
			<circle class="st0" cx="232.72" cy="123.45" r="6.89"/>
		</g>
	</g>
	<g>
		<g>
			<circle class="st0" cx="287.81" cy="123.45" r="6.89"/>
		</g>
	</g>
	<g>
		<g>
			<circle class="st0" cx="12.39" cy="177.01" r="6.89"/>
		</g>
	</g>
	<g>
		<g>
			<circle class="st0" cx="67.47" cy="177.01" r="6.89"/>
		</g>
	</g>
	<g>
		<g>
			<circle class="st0" cx="122.55" cy="177.01" r="6.89"/>
		</g>
	</g>
	<g>
		<g>
			<circle class="st0" cx="177.64" cy="177.01" r="6.89"/>
		</g>
	</g>
	<g>
		<g>
			<circle class="st0" cx="232.72" cy="177.01" r="6.89"/>
		</g>
	</g>
	<g>
		<g>
			<circle class="st0" cx="287.81" cy="177.01" r="6.89"/>
		</g>
	</g>
	<g>
		<g>
			<circle class="st0" cx="12.39" cy="230.56" r="6.89"/>
		</g>
	</g>
	<g>
		<g>
			<circle class="st0" cx="67.47" cy="230.56" r="6.89"/>
		</g>
	</g>
	<g>
		<g>
			<circle class="st0" cx="122.55" cy="230.56" r="6.89"/>
		</g>
	</g>
	<g>
		<g>
			<circle class="st0" cx="177.64" cy="230.56" r="6.89"/>
		</g>
	</g>
	<g>
		<g>
			<circle class="st0" cx="232.72" cy="230.56" r="6.89"/>
		</g>
	</g>
	<g>
		<g>
			<circle class="st0" cx="287.81" cy="230.56" r="6.89"/>
		</g>
	</g>
	<g>
		<g>
			<circle class="st0" cx="12.39" cy="284.11" r="6.89"/>
		</g>
	</g>
	<g>
		<g>
			<circle class="st0" cx="67.47" cy="284.11" r="6.89"/>
		</g>
	</g>
	<g>
		<g>
			<circle class="st0" cx="122.55" cy="284.11" r="6.89"/>
		</g>
	</g>
	<g>
		<g>
			<circle class="st0" cx="177.64" cy="284.11" r="6.89"/>
		</g>
	</g>
	<g>
		<g>
			<circle class="st0" cx="232.72" cy="284.11" r="6.89"/>
		</g>
	</g>
	<g>
		<g>
			<circle class="st0" cx="287.81" cy="284.11" r="6.89"/>
		</g>
	</g>
</g>
</svg>
