<svg xmlns="http://www.w3.org/2000/svg" xmlns:xlink="http://www.w3.org/1999/xlink" width="268" height="287" viewBox="0 0 268 287">
    <defs>
        <path id="a" d="M.373.307H1.99v1.616H.373z"/>
        <path id="c" d="M.373.154H1.99V1.77H.373z"/>
        <path id="e" d="M.373.001H1.99v1.616H.373z"/>
        <path id="g" d="M.373.083H1.99V1.78H.373z"/>
        <path id="i" d="M0 .001h1.616v1.616H0z"/>
        <path id="k" d="M0 .14h1.616v1.697H0z"/>
        <path id="m" d="M0 .154h1.616V1.77H0z"/>
        <path id="o" d="M0 .083h1.616V1.78H0z"/>
        <path id="q" d="M0 .307h1.616v1.616H0z"/>
        <path id="s" d="M.067.156h1.58v1.418H.067z"/>
        <path id="u" d="M0 .244h1.616v1.697H0z"/>
    </defs>
    <g fill="none" fill-rule="evenodd">
        <g transform="translate(266 136)">
            <mask id="b" fill="#fff">
                <use xlink:href="#a"/>
            </mask>
            <path fill="#329BB4" d="M1.181 1.923A.808.808 0 1 0 1.183.307a.808.808 0 0 0-.002 1.616" mask="url(#b)"/>
        </g>
        <g transform="translate(266 148)">
            <mask id="d" fill="#fff">
                <use xlink:href="#c"/>
            </mask>
            <path fill="#329BB4" d="M1.181 1.77A.808.808 0 1 0 1.183.154.808.808 0 0 0 1.18 1.77" mask="url(#d)"/>
        </g>
        <path fill="#329BB4" d="M267.03 178c.3 0 .566-.125.755-.322.072-.335.146-.67.215-1.007-.14-.39-.52-.671-.97-.671-.568 0-1.03.448-1.03 1 0 .553.462 1 1.03 1"/>
        <g transform="translate(266 162)">
            <mask id="f" fill="#fff">
                <use xlink:href="#e"/>
            </mask>
            <path fill="#329BB4" d="M1.181 1.617a.81.81 0 0 0 .182-.022l.043-.013a.81.81 0 0 0 .129-.049l.035-.019a.835.835 0 0 0 .122-.083l.019-.016A.801.801 0 0 0 1.99.81.803.803 0 0 0 1.694.19L1.67.17a.77.77 0 0 0-.205-.115l-.037-.01A.783.783 0 0 0 1.183 0H1.18a.808.808 0 1 0 0 1.616" mask="url(#f)"/>
        </g>
        <g transform="translate(266 122)">
            <mask id="h" fill="#fff">
                <use xlink:href="#g"/>
            </mask>
            <path fill="#329BB4" d="M1.181 1.78h.002a.768.768 0 0 0 .245-.044l.037-.012a.76.76 0 0 0 .23-.142.862.862 0 0 0-.125-1.39c-.012-.007-.023-.014-.036-.02A.735.735 0 0 0 1.406.12C1.391.116 1.378.11 1.363.107A.767.767 0 0 0 1.18.083c-.446 0-.808.38-.808.849s.362.848.808.848" mask="url(#h)"/>
        </g>
        <path fill="#329BB4" d="M248 207a1 1 0 1 0 0-2 1 1 0 0 0 0 2M248 192a1 1 0 1 0 0-2 1 1 0 0 0 0 2M248 221a1 1 0 1 0 0-2 1 1 0 0 0 0 2M248 138a1 1 0 1 0 0-2 1 1 0 0 0 0 2M248 125a1 1 0 1 0 0-2 1 1 0 0 0 0 2M248 178a1 1 0 1 0 0-2 1 1 0 0 0 0 2M248 150a1 1 0 1 0 0-2 1 1 0 0 0 0 2M248 164a1 1 0 1 0 0-2 1 1 0 0 0 0 2M232 178a1 1 0 1 0 0-2 1 1 0 0 0 0 2M232 150a1 1 0 1 0 0-2 1 1 0 0 0 0 2M232 164a1 1 0 1 0 0-2 1 1 0 0 0 0 2M232 221a1 1 0 1 0 0-2 1 1 0 0 0 0 2M232 192a1 1 0 1 0 0-2 1 1 0 0 0 0 2M232 138a1 1 0 1 0 0-2 1 1 0 0 0 0 2M232 207a1 1 0 1 0 0-2 1 1 0 0 0 0 2M233 244.303a1.205 1.205 0 0 0-.795-.303c-.666 0-1.205.533-1.205 1.191 0 .314.124.596.324.809a123.35 123.35 0 0 0 1.676-1.697M232 234a1 1 0 1 0 0-2 1 1 0 0 0 0 2M232 125a1 1 0 1 0 0-2 1 1 0 0 0 0 2M214 178a1 1 0 1 0 0-2 1 1 0 0 0 0 2M214 150a1 1 0 1 0 0-2 1 1 0 0 0 0 2M214 164a1 1 0 1 0 0-2 1 1 0 0 0 0 2M214 207a1 1 0 1 0 0-2 1 1 0 0 0 0 2M214 246a1 1 0 1 0 0-2 1 1 0 0 0 0 2M214 234a1 1 0 1 0 0-2 1 1 0 0 0 0 2M214 221a1 1 0 1 0 0-2 1 1 0 0 0 0 2M214 192a1 1 0 1 0 0-2 1 1 0 0 0 0 2M214 125a1 1 0 1 0 0-2 1 1 0 0 0 0 2M214 138a1 1 0 1 0 0-2 1 1 0 0 0 0 2M214 260c.045 0 .086-.007.128-.013.26-.188.519-.376.776-.566A.984.984 0 0 0 215 259a1 1 0 1 0-1 1M196 125a1 1 0 1 0 0-2 1 1 0 0 0 0 2M196 138a1 1 0 1 0 0-2 1 1 0 0 0 0 2M196 221a1 1 0 1 0 0-2 1 1 0 0 0 0 2M196 234a1 1 0 1 0 0-2 1 1 0 0 0 0 2M196 207a1 1 0 1 0 0-2 1 1 0 0 0 0 2M196 150a1 1 0 1 0 0-2 1 1 0 0 0 0 2M196 164a1 1 0 1 0 0-2 1 1 0 0 0 0 2M196 178a1 1 0 1 0 0-2 1 1 0 0 0 0 2M196 192a1 1 0 1 0 0-2 1 1 0 0 0 0 2M196 246a1 1 0 1 0 0-2 1 1 0 0 0 0 2M196 260a1 1 0 1 0 0-2 1 1 0 0 0 0 2M178 138a1 1 0 1 0 .001-1.999A1 1 0 0 0 178 138M178 150a1 1 0 1 0 .001-1.999A1 1 0 0 0 178 150M178 125a1 1 0 1 0 .001-1.999A1 1 0 0 0 178 125M178 178a1 1 0 1 0 .001-1.999A1 1 0 0 0 178 178M178 164a1 1 0 1 0 .001-1.999A1 1 0 0 0 178 164M178 192a1 1 0 1 0 .001-1.999A1 1 0 0 0 178 192M178 246a1 1 0 1 0 .001-1.999A1 1 0 0 0 178 246M178 274a1 1 0 1 0 .001-1.999A1 1 0 0 0 178 274M178 260a1 1 0 1 0 .001-1.999A1 1 0 0 0 178 260M178 207a1 1 0 1 0 .001-1.999A1 1 0 0 0 178 207M178 234a1 1 0 1 0 .001-1.999A1 1 0 0 0 178 234M178 221a1 1 0 1 0 0-2 1 1 0 0 0 0 2M162 178a1 1 0 1 0 0-2 1 1 0 0 0 0 2M162 192a1 1 0 1 0 0-2 1 1 0 0 0 0 2M162 274a1 1 0 1 0 0-2 1 1 0 0 0 0 2M162 207a1 1 0 1 0 0-2 1 1 0 0 0 0 2M162 150a1 1 0 1 0 0-2 1 1 0 0 0 0 2M162 234a1 1 0 1 0 0-2 1 1 0 0 0 0 2M162 246a1 1 0 1 0 0-2 1 1 0 0 0 0 2M162 221a1 1 0 1 0 0-2 1 1 0 0 0 0 2M162 138a1 1 0 1 0 0-2 1 1 0 0 0 0 2M162 164a1 1 0 1 0 0-2 1 1 0 0 0 0 2M162 125a1 1 0 1 0 0-2 1 1 0 0 0 0 2M162 260a1 1 0 1 0 0-2 1 1 0 0 0 0 2M144.02 286a.982.982 0 0 0-.738.355 1.29 1.29 0 0 0-.282.603 94.298 94.298 0 0 0 2-.158 1.261 1.261 0 0 0-.24-.445.983.983 0 0 0-.74-.355M144 150a1 1 0 1 0 0-2 1 1 0 0 0 0 2M144 164a1 1 0 1 0 0-2 1 1 0 0 0 0 2M144 178a1 1 0 1 0 0-2 1 1 0 0 0 0 2M144 138a1 1 0 1 0 0-2 1 1 0 0 0 0 2M144 125a1 1 0 1 0 0-2 1 1 0 0 0 0 2M144 274a1 1 0 1 0 0-2 1 1 0 0 0 0 2M144 260a1 1 0 1 0 0-2 1 1 0 0 0 0 2M144 234a1 1 0 1 0 0-2 1 1 0 0 0 0 2M144 221a1 1 0 1 0 0-2 1 1 0 0 0 0 2M144 207a1 1 0 1 0 0-2 1 1 0 0 0 0 2M144 192a1 1 0 1 0 0-2 1 1 0 0 0 0 2M144 246a1 1 0 1 0 0-2 1 1 0 0 0 0 2M125.99 286a.977.977 0 0 0-.723.334 1.18 1.18 0 0 0-.267.536c.666.05 1.331.095 2 .13a1.2 1.2 0 0 0-.288-.666.976.976 0 0 0-.722-.334M126 164a1 1 0 1 0 0-2 1 1 0 0 0 0 2M126 178a1 1 0 1 0 0-2 1 1 0 0 0 0 2M126 207a1 1 0 1 0 0-2 1 1 0 0 0 0 2M126 221a1 1 0 1 0 0-2 1 1 0 0 0 0 2M126 234a1 1 0 1 0 0-2 1 1 0 0 0 0 2M126 138a1 1 0 1 0 0-2 1 1 0 0 0 0 2M126 150a1 1 0 1 0 0-2 1 1 0 0 0 0 2M126 125a1 1 0 1 0 0-2 1 1 0 0 0 0 2M126 246a1 1 0 1 0 0-2 1 1 0 0 0 0 2M126 192a1 1 0 1 0 0-2 1 1 0 0 0 0 2M126 260a1 1 0 1 0 0-2 1 1 0 0 0 0 2M126 274a1 1 0 1 0 0-2 1 1 0 0 0 0 2M106 125a1 1 0 1 0 0-2 1 1 0 0 0 0 2M106 178a1 1 0 1 0 0-2 1 1 0 0 0 0 2M106 138a1 1 0 1 0 0-2 1 1 0 0 0 0 2M106 164a1 1 0 1 0 0-2 1 1 0 0 0 0 2M106 192a1 1 0 1 0 0-2 1 1 0 0 0 0 2M106 150a1 1 0 1 0 0-2 1 1 0 0 0 0 2M106 246a1 1 0 1 0 0-2 1 1 0 0 0 0 2M106 274a1 1 0 1 0 0-2 1 1 0 0 0 0 2M106 207a1 1 0 1 0 0-2 1 1 0 0 0 0 2M106 260a1 1 0 1 0 0-2 1 1 0 0 0 0 2M106 234a1 1 0 1 0 0-2 1 1 0 0 0 0 2M106 221a1 1 0 1 0 0-2 1 1 0 0 0 0 2M90 274a1 1 0 1 0 0-2 1 1 0 0 0 0 2M90 234a1 1 0 1 0 0-2 1 1 0 0 0 0 2M90 246a1 1 0 1 0 0-2 1 1 0 0 0 0 2M90 260a1 1 0 1 0 0-2 1 1 0 0 0 0 2M90 192a1 1 0 1 0 0-2 1 1 0 0 0 0 2M90 125a1 1 0 1 0 0-2 1 1 0 0 0 0 2M90 207a1 1 0 1 0 0-2 1 1 0 0 0 0 2M90 221a1 1 0 1 0 0-2 1 1 0 0 0 0 2M90 138a1 1 0 1 0 0-2 1 1 0 0 0 0 2M90 150a1 1 0 1 0 0-2 1 1 0 0 0 0 2M90 164a1 1 0 1 0 0-2 1 1 0 0 0 0 2M90 178a1 1 0 1 0 0-2 1 1 0 0 0 0 2M72 164a1 1 0 1 0 0-2 1 1 0 0 0 0 2M72 192a1 1 0 1 0 0-2 1 1 0 0 0 0 2M72 178a1 1 0 1 0 0-2 1 1 0 0 0 0 2M72 221a1 1 0 1 0 0-2 1 1 0 0 0 0 2M72 207a1 1 0 1 0 0-2 1 1 0 0 0 0 2M72 234a1 1 0 1 0 0-2 1 1 0 0 0 0 2M72 260a1 1 0 1 0 0-2 1 1 0 0 0 0 2M71.831 272c-.326 0-.62.1-.831.261.659.25 1.318.499 1.984.739.007-.04.016-.081.016-.124 0-.483-.524-.876-1.169-.876M72 246a1 1 0 1 0 0-2 1 1 0 0 0 0 2M72 150a1 1 0 1 0 0-2 1 1 0 0 0 0 2M72 138a1 1 0 1 0 0-2 1 1 0 0 0 0 2M72 125a1 1 0 1 0 0-2 1 1 0 0 0 0 2M54 234a1 1 0 1 0 0-2 1 1 0 0 0 0 2M54 125a1 1 0 1 0 0-2 1 1 0 0 0 0 2M54 138a1 1 0 1 0 0-2 1 1 0 0 0 0 2M54 207a1 1 0 1 0 0-2 1 1 0 0 0 0 2M54 246a1 1 0 1 0 0-2 1 1 0 0 0 0 2M54 150a1 1 0 1 0 0-2 1 1 0 0 0 0 2M54 260a1 1 0 1 0 0-2 1 1 0 0 0 0 2M54 221a1 1 0 1 0 0-2 1 1 0 0 0 0 2M54 178a1 1 0 1 0 0-2 1 1 0 0 0 0 2M54 192a1 1 0 1 0 0-2 1 1 0 0 0 0 2M54 164a1 1 0 1 0 0-2 1 1 0 0 0 0 2M36 164a1 1 0 1 0 0-2 1 1 0 0 0 0 2M36 178a1 1 0 1 0 0-2 1 1 0 0 0 0 2M36 221a1 1 0 1 0 0-2 1 1 0 0 0 0 2M36 246a1 1 0 1 0 0-2 1 1 0 0 0 0 2M36 234a1 1 0 1 0 0-2 1 1 0 0 0 0 2M36 192a1 1 0 1 0 0-2 1 1 0 0 0 0 2M36 125a1 1 0 1 0 0-2 1 1 0 0 0 0 2M36 207a1 1 0 1 0 0-2 1 1 0 0 0 0 2M36 138a1 1 0 1 0 0-2 1 1 0 0 0 0 2M36 150a1 1 0 1 0 0-2 1 1 0 0 0 0 2M19 192a1 1 0 1 0 0-2 1 1 0 0 0 0 2M19 164a1 1 0 1 0 0-2 1 1 0 0 0 0 2M19 125a1 1 0 1 0 0-2 1 1 0 0 0 0 2M19 150a1 1 0 1 0 0-2 1 1 0 0 0 0 2M19 221a1 1 0 1 0 0-2 1 1 0 0 0 0 2M19 207a1 1 0 1 0 0-2 1 1 0 0 0 0 2M19 178a1 1 0 1 0 0-2 1 1 0 0 0 0 2M19 138a1 1 0 1 0 0-2 1 1 0 0 0 0 2"/>
        <g transform="translate(0 162)">
            <mask id="j" fill="#fff">
                <use xlink:href="#i"/>
            </mask>
            <path fill="#329BB4" d="M.808 1.617A.808.808 0 1 0 .809.001a.808.808 0 0 0-.001 1.616" mask="url(#j)"/>
        </g>
        <g transform="translate(0 175)">
            <mask id="l" fill="#fff">
                <use xlink:href="#k"/>
            </mask>
            <path fill="#329BB4" d="M.808.14C.362.14 0 .52 0 .99c0 .468.362.848.808.848.446 0 .808-.38.808-.848 0-.469-.362-.848-.808-.848" mask="url(#l)"/>
        </g>
        <g transform="translate(0 148)">
            <mask id="n" fill="#fff">
                <use xlink:href="#m"/>
            </mask>
            <path fill="#329BB4" d="M.808 1.77A.808.808 0 1 0 .809.154.808.808 0 0 0 .808 1.77" mask="url(#n)"/>
        </g>
        <g transform="translate(0 122)">
            <mask id="p" fill="#fff">
                <use xlink:href="#o"/>
            </mask>
            <path fill="#329BB4" d="M.808 1.78c.446 0 .808-.38.808-.848 0-.468-.362-.849-.808-.849C.362.083 0 .463 0 .932s.362.848.808.848" mask="url(#p)"/>
        </g>
        <g transform="translate(0 136)">
            <mask id="r" fill="#fff">
                <use xlink:href="#q"/>
            </mask>
            <path fill="#329BB4" d="M.808 1.923A.808.808 0 1 0 .809.307a.808.808 0 0 0-.001 1.616" mask="url(#r)"/>
        </g>
        <path fill="#329BB4" d="M1 190c.188.67.381 1.335.58 2 .253-.202.42-.525.42-.894 0-.604-.446-1.094-1-1.106M267.03 111c.45 0 .83-.28.97-.67-.069-.337-.143-.672-.215-1.008a1.042 1.042 0 0 0-.754-.322c-.57 0-1.031.448-1.031 1 0 .553.462 1 1.03 1M248 82a1 1 0 1 0 0-2 1 1 0 0 0 0 2M248 97a1 1 0 1 0 0-2 1 1 0 0 0 0 2M248 68a1 1 0 1 0 0-2 1 1 0 0 0 0 2M248 111a1 1 0 1 0 0-2 1 1 0 0 0 0 2M232 111a1 1 0 1 0 0-2 1 1 0 0 0 0 2M232 68a1 1 0 1 0 0-2 1 1 0 0 0 0 2M232 97a1 1 0 1 0 0-2 1 1 0 0 0 0 2M232 82a1 1 0 1 0 0-2 1 1 0 0 0 0 2M232.205 43a1.2 1.2 0 0 0 .795-.303c-.555-.569-1.11-1.137-1.676-1.697a1.18 1.18 0 0 0-.324.809c0 .658.539 1.191 1.205 1.191M232 55a1 1 0 1 0 0-2 1 1 0 0 0 0 2M214 111a1 1 0 1 0 0-2 1 1 0 0 0 0 2M214 82a1 1 0 1 0 0-2 1 1 0 0 0 0 2M214 42a1 1 0 1 0 0-2 1 1 0 0 0 0 2M214 55a1 1 0 1 0 0-2 1 1 0 0 0 0 2M214 68a1 1 0 1 0 0-2 1 1 0 0 0 0 2M214 97a1 1 0 1 0 0-2 1 1 0 0 0 0 2M214 28a1 1 0 0 0 1-1 .987.987 0 0 0-.096-.42c-.257-.191-.516-.379-.776-.567-.042-.006-.083-.013-.128-.013a1 1 0 0 0 0 2M196 68a1 1 0 1 0 0-2 1 1 0 0 0 0 2M196 55a1 1 0 1 0 0-2 1 1 0 0 0 0 2M196 82a1 1 0 1 0 0-2 1 1 0 0 0 0 2M196 111a1 1 0 1 0 0-2 1 1 0 0 0 0 2M196 97a1 1 0 1 0 0-2 1 1 0 0 0 0 2M196 42a1 1 0 1 0 0-2 1 1 0 0 0 0 2M196 28a1 1 0 1 0 0-2 1 1 0 0 0 0 2M178 111a1 1 0 1 0 .001-1.999A1 1 0 0 0 178 111M178 97a1 1 0 1 0 .001-1.999A1 1 0 0 0 178 97M178 42a1 1 0 1 0 .001-1.999A1 1 0 0 0 178 42M178 15a1 1 0 1 0 0-2 1 1 0 0 0 0 2M178 28a1 1 0 1 0 .001-1.999A1 1 0 0 0 178 28M178 82a1 1 0 1 0 .001-1.999A1 1 0 0 0 178 82M178 55a1 1 0 1 0 0-2 1 1 0 0 0 0 2M178 68a1 1 0 1 0 .001-1.999A1 1 0 0 0 178 68M162 111a1 1 0 1 0 0-2 1 1 0 0 0 0 2M162 15a1 1 0 1 0 0-2 1 1 0 0 0 0 2M162 82a1 1 0 1 0 0-2 1 1 0 0 0 0 2M162 55a1 1 0 1 0 0-2 1 1 0 0 0 0 2M162 42a1 1 0 1 0 0-2 1 1 0 0 0 0 2M162 68a1 1 0 1 0 0-2 1 1 0 0 0 0 2M162 28a1 1 0 1 0 0-2 1 1 0 0 0 0 2M144.02.958a.983.983 0 0 0 .74-.355c.108-.125.187-.279.24-.445A94.298 94.298 0 0 0 143 0c.042.227.14.438.282.603a.982.982 0 0 0 .738.355M144 111a1 1 0 1 0 0-2 1 1 0 0 0 0 2M144 15a1 1 0 1 0 0-2 1 1 0 0 0 0 2M144 28a1 1 0 1 0 0-2 1 1 0 0 0 0 2M144 55a1 1 0 1 0 0-2 1 1 0 0 0 0 2M144 68a1 1 0 1 0 0-2 1 1 0 0 0 0 2M144 82a1 1 0 1 0 0-2 1 1 0 0 0 0 2M144 97a1 1 0 1 0 0-2 1 1 0 0 0 0 2M144 42a1 1 0 1 0 0-2 1 1 0 0 0 0 2"/>
        <g transform="translate(125)">
            <mask id="t" fill="#fff">
                <use xlink:href="#s"/>
            </mask>
            <path fill="#329BB4" d="M.85 1.574c.211 0 .42-.172.57-.473.127-.254.205-.591.227-.946C1.12.205.593.27.067.34c.035.286.106.552.211.762.15.301.359.473.571.473" mask="url(#t)"/>
        </g>
        <path fill="#329BB4" d="M126 111a1 1 0 1 0 0-2 1 1 0 0 0 0 2M126 82a1 1 0 1 0 0-2 1 1 0 0 0 0 2M126 68a1 1 0 1 0 0-2 1 1 0 0 0 0 2M126 55a1 1 0 1 0 0-2 1 1 0 0 0 0 2M126 42a1 1 0 1 0 0-2 1 1 0 0 0 0 2M126 97a1 1 0 1 0 0-2 1 1 0 0 0 0 2M126 28a1 1 0 1 0 0-2 1 1 0 0 0 0 2M126 15a1 1 0 1 0 0-2 1 1 0 0 0 0 2M106 111a1 1 0 1 0 0-2 1 1 0 0 0 0 2M106 97a1 1 0 1 0 0-2 1 1 0 0 0 0 2M106 42a1 1 0 1 0 0-2 1 1 0 0 0 0 2M106 15a1 1 0 1 0 0-2 1 1 0 0 0 0 2M106 82a1 1 0 1 0 0-2 1 1 0 0 0 0 2M106 28a1 1 0 1 0 0-2 1 1 0 0 0 0 2M106 55a1 1 0 1 0 0-2 1 1 0 0 0 0 2M106 68a1 1 0 1 0 0-2 1 1 0 0 0 0 2M90 15a1 1 0 1 0 0-2 1 1 0 0 0 0 2M90 55a1 1 0 1 0 0-2 1 1 0 0 0 0 2M90 42a1 1 0 1 0 0-2 1 1 0 0 0 0 2M90 28a1 1 0 1 0 0-2 1 1 0 0 0 0 2M90 97a1 1 0 1 0 0-2 1 1 0 0 0 0 2M90 82a1 1 0 1 0 0-2 1 1 0 0 0 0 2M90 68a1 1 0 1 0 0-2 1 1 0 0 0 0 2M90 111a1 1 0 1 0 0-2 1 1 0 0 0 0 2M72 97a1 1 0 1 0 0-2 1 1 0 0 0 0 2M72 111a1 1 0 1 0 0-2 1 1 0 0 0 0 2M72 68a1 1 0 1 0 0-2 1 1 0 0 0 0 2M72 82a1 1 0 1 0 0-2 1 1 0 0 0 0 2M72 55a1 1 0 1 0 0-2 1 1 0 0 0 0 2M72 28a1 1 0 1 0 0-2 1 1 0 0 0 0 2M73 12.124c0-.043-.009-.084-.016-.124-.666.24-1.325.49-1.984.739.212.16.505.261.831.261.645 0 1.169-.393 1.169-.876M72 42a1 1 0 1 0 0-2 1 1 0 0 0 0 2M54 55a1 1 0 1 0 0-2 1 1 0 0 0 0 2M54 82a1 1 0 1 0 0-2 1 1 0 0 0 0 2M54 42a1 1 0 1 0 0-2 1 1 0 0 0 0 2M54 28a1 1 0 1 0 0-2 1 1 0 0 0 0 2M54 68a1 1 0 1 0 0-2 1 1 0 0 0 0 2M54 111a1 1 0 1 0 0-2 1 1 0 0 0 0 2M54 97a1 1 0 1 0 0-2 1 1 0 0 0 0 2M36 111a1 1 0 1 0 0-2 1 1 0 0 0 0 2M36 68a1 1 0 1 0 0-2 1 1 0 0 0 0 2M36 42a1 1 0 1 0 0-2 1 1 0 0 0 0 2M36 55a1 1 0 1 0 0-2 1 1 0 0 0 0 2M36 97a1 1 0 1 0 0-2 1 1 0 0 0 0 2M36 82a1 1 0 1 0 0-2 1 1 0 0 0 0 2M19 97a1 1 0 1 0 0-2 1 1 0 0 0 0 2M19 68a1 1 0 1 0 0-2 1 1 0 0 0 0 2M19 82a1 1 0 1 0 0-2 1 1 0 0 0 0 2M19 111a1 1 0 1 0 0-2 1 1 0 0 0 0 2"/>
        <g transform="translate(0 109)">
            <mask id="v" fill="#fff">
                <use xlink:href="#u"/>
            </mask>
            <path fill="#329BB4" d="M.808 1.94c.446 0 .808-.379.808-.848 0-.468-.362-.848-.808-.848-.446 0-.808.38-.808.848 0 .47.362.849.808.849" mask="url(#v)"/>
        </g>
        <path fill="#329BB4" d="M2 95.893c0-.368-.167-.692-.42-.893-.199.665-.393 1.33-.58 2 .554-.012 1-.502 1-1.107"/>
    </g>
</svg>
