<svg xmlns="http://www.w3.org/2000/svg" width="198" height="211" viewBox="0 0 198 211">
    <g fill="#C75116" fill-rule="evenodd">
        <path d="M196.922 130a.52.52 0 0 0 .377-.16c.036-.168.073-.336.107-.505a.513.513 0 0 0-.484-.335.508.508 0 0 0-.516.5c0 .276.231.5.516.5M196.906 101a.5.5 0 1 0 0-1 .5.5 0 0 0 0 1M196.906 120a.5.5 0 0 0 .113-.014l.026-.008a.5.5 0 0 0 .08-.03l.021-.012a.516.516 0 0 0 .076-.051l.011-.01a.496.496 0 0 0-.01-.758l-.015-.013a.476.476 0 0 0-.126-.07l-.023-.008a.484.484 0 0 0-.152-.026h-.001a.5.5 0 0 0 0 1M196.906 110a.5.5 0 1 0 0-1 .5.5 0 0 0 0 1M196.906 92c.054 0 .105-.01.153-.026l.023-.007a.476.476 0 0 0 .142-.084.496.496 0 0 0-.078-.82l-.022-.011a.468.468 0 0 0-.079-.03l-.027-.008a.497.497 0 0 0-.612.486.5.5 0 0 0 .5.5M182.906 151a.5.5 0 1 0 0-1 .5.5 0 0 0 0 1M182.906 140a.5.5 0 1 0 0-1 .5.5 0 0 0 0 1M182.906 162a.5.5 0 1 0 0-1 .5.5 0 0 0 0 1M182.906 101a.5.5 0 1 0 0-1 .5.5 0 0 0 0 1M182.906 92a.5.5 0 1 0 0-1 .5.5 0 0 0 0 1M182.906 130a.5.5 0 1 0 0-1 .5.5 0 0 0 0 1M182.906 110a.5.5 0 1 0 0-1 .5.5 0 0 0 0 1M182.906 120a.5.5 0 1 0 0-1 .5.5 0 0 0 0 1M170.906 130a.5.5 0 1 0 0-1 .5.5 0 0 0 0 1M170.906 110a.5.5 0 1 0 0-1 .5.5 0 0 0 0 1M170.906 120a.5.5 0 1 0 0-1 .5.5 0 0 0 0 1M170.906 162a.5.5 0 1 0 0-1 .5.5 0 0 0 0 1M170.906 140a.5.5 0 1 0 0-1 .5.5 0 0 0 0 1M170.906 101a.5.5 0 1 0 0-1 .5.5 0 0 0 0 1M170.906 151a.5.5 0 1 0 0-1 .5.5 0 0 0 0 1M171.406 179.151a.603.603 0 0 0-1 .445c0 .156.062.297.162.404.283-.28.56-.564.838-.849M170.906 173a.5.5 0 1 0 0-1 .5.5 0 0 0 0 1M170.906 92a.5.5 0 1 0 0-1 .5.5 0 0 0 0 1M157.906 130a.5.5 0 1 0 0-1 .5.5 0 0 0 0 1M157.906 110a.5.5 0 1 0 0-1 .5.5 0 0 0 0 1M157.906 120a.5.5 0 1 0 0-1 .5.5 0 0 0 0 1M157.906 151a.5.5 0 1 0 0-1 .5.5 0 0 0 0 1M157.906 180a.5.5 0 1 0 0-1 .5.5 0 0 0 0 1M157.906 173a.5.5 0 1 0 0-1 .5.5 0 0 0 0 1M157.906 162a.5.5 0 1 0 0-1 .5.5 0 0 0 0 1M157.906 140a.5.5 0 1 0 0-1 .5.5 0 0 0 0 1M157.906 92a.5.5 0 1 0 0-1 .5.5 0 0 0 0 1M157.906 101a.5.5 0 1 0 0-1 .5.5 0 0 0 0 1M157.906 190c.023 0 .043-.004.064-.007.13-.094.26-.187.388-.283a.5.5 0 1 0-.452.29M143.906 92a.5.5 0 1 0 0-1 .5.5 0 0 0 0 1M143.906 101a.5.5 0 1 0 0-1 .5.5 0 0 0 0 1M143.906 162a.5.5 0 1 0 0-1 .5.5 0 0 0 0 1M143.906 173a.5.5 0 1 0 0-1 .5.5 0 0 0 0 1M143.906 151a.5.5 0 1 0 0-1 .5.5 0 0 0 0 1M143.906 110a.5.5 0 1 0 0-1 .5.5 0 0 0 0 1M143.906 120a.5.5 0 1 0 0-1 .5.5 0 0 0 0 1M143.906 130a.5.5 0 1 0 0-1 .5.5 0 0 0 0 1M143.906 140a.5.5 0 1 0 0-1 .5.5 0 0 0 0 1M143.906 180a.5.5 0 1 0 0-1 .5.5 0 0 0 0 1M143.906 190a.5.5 0 1 0 0-1 .5.5 0 0 0 0 1M130.906 101a.5.5 0 1 0 0-1 .5.5 0 0 0 0 1M130.906 110a.5.5 0 1 0 0-1 .5.5 0 0 0 0 1M130.906 92a.5.5 0 1 0 0-1 .5.5 0 0 0 0 1M130.906 130a.5.5 0 1 0 0-1 .5.5 0 0 0 0 1M130.906 120a.5.5 0 1 0 0-1 .5.5 0 0 0 0 1M130.906 140a.5.5 0 1 0 0-1 .5.5 0 0 0 0 1M130.906 180a.5.5 0 1 0 0-1 .5.5 0 0 0 0 1M130.906 201a.5.5 0 1 0 0-1 .5.5 0 0 0 0 1M130.906 190a.5.5 0 1 0 0-1 .5.5 0 0 0 0 1M130.906 151a.5.5 0 1 0 0-1 .5.5 0 0 0 0 1M130.906 173a.5.5 0 1 0 0-1 .5.5 0 0 0 0 1M130.906 162a.5.5 0 1 0 0-1 .5.5 0 0 0 0 1M119.906 130a.5.5 0 1 0 0-1 .5.5 0 0 0 0 1M119.906 140a.5.5 0 1 0 0-1 .5.5 0 0 0 0 1M119.906 201a.5.5 0 1 0 0-1 .5.5 0 0 0 0 1M119.906 151a.5.5 0 1 0 0-1 .5.5 0 0 0 0 1M119.906 110a.5.5 0 1 0 0-1 .5.5 0 0 0 0 1M119.906 173a.5.5 0 1 0 0-1 .5.5 0 0 0 0 1M119.906 180a.5.5 0 1 0 0-1 .5.5 0 0 0 0 1M119.906 162a.5.5 0 1 0 0-1 .5.5 0 0 0 0 1M119.906 101a.5.5 0 1 0 0-1 .5.5 0 0 0 0 1M119.906 120a.5.5 0 1 0 0-1 .5.5 0 0 0 0 1M119.906 92a.5.5 0 1 0 0-1 .5.5 0 0 0 0 1M119.906 190a.5.5 0 1 0 0-1 .5.5 0 0 0 0 1M105.916 210c-.137 0-.272.129-.369.355-.07.165-.12.377-.14.603.333-.047.667-.097 1-.158a1.891 1.891 0 0 0-.121-.445c-.097-.226-.232-.355-.37-.355M105.906 110a.5.5 0 1 0 0-1 .5.5 0 0 0 0 1M105.906 120a.5.5 0 1 0 0-1 .5.5 0 0 0 0 1M105.906 130a.5.5 0 1 0 0-1 .5.5 0 0 0 0 1M105.906 101a.5.5 0 1 0 0-1 .5.5 0 0 0 0 1M105.906 92a.5.5 0 1 0 0-1 .5.5 0 0 0 0 1M105.906 201a.5.5 0 1 0 0-1 .5.5 0 0 0 0 1M105.906 190a.5.5 0 1 0 0-1 .5.5 0 0 0 0 1M105.906 173a.5.5 0 1 0 0-1 .5.5 0 0 0 0 1M105.906 162a.5.5 0 1 0 0-1 .5.5 0 0 0 0 1M105.906 151a.5.5 0 1 0 0-1 .5.5 0 0 0 0 1M105.906 140a.5.5 0 1 0 0-1 .5.5 0 0 0 0 1M105.906 180a.5.5 0 1 0 0-1 .5.5 0 0 0 0 1M92.901 210c-.134 0-.266.121-.361.334a1.828 1.828 0 0 0-.134.536c.333.05.666.095 1 .13a1.949 1.949 0 0 0-.144-.666c-.094-.213-.226-.334-.36-.334M92.906 120a.5.5 0 1 0 0-1 .5.5 0 0 0 0 1M92.906 130a.5.5 0 1 0 0-1 .5.5 0 0 0 0 1M92.906 151a.5.5 0 1 0 0-1 .5.5 0 0 0 0 1M92.906 162a.5.5 0 1 0 0-1 .5.5 0 0 0 0 1M92.906 173a.5.5 0 1 0 0-1 .5.5 0 0 0 0 1M92.906 101a.5.5 0 1 0 0-1 .5.5 0 0 0 0 1M92.906 110a.5.5 0 1 0 0-1 .5.5 0 0 0 0 1M92.906 92a.5.5 0 1 0 0-1 .5.5 0 0 0 0 1M92.906 180a.5.5 0 1 0 0-1 .5.5 0 0 0 0 1M92.906 140a.5.5 0 1 0 0-1 .5.5 0 0 0 0 1M92.906 190a.5.5 0 1 0 0-1 .5.5 0 0 0 0 1M92.906 201a.5.5 0 1 0 0-1 .5.5 0 0 0 0 1M77.906 92a.5.5 0 1 0 0-1 .5.5 0 0 0 0 1M77.906 130a.5.5 0 1 0 0-1 .5.5 0 0 0 0 1M77.906 101a.5.5 0 1 0 0-1 .5.5 0 0 0 0 1M77.906 120a.5.5 0 1 0 0-1 .5.5 0 0 0 0 1M77.906 140a.5.5 0 1 0 0-1 .5.5 0 0 0 0 1M77.906 110a.5.5 0 1 0 0-1 .5.5 0 0 0 0 1M77.906 180a.5.5 0 1 0 0-1 .5.5 0 0 0 0 1M77.906 201a.5.5 0 1 0 0-1 .5.5 0 0 0 0 1M77.906 151a.5.5 0 1 0 0-1 .5.5 0 0 0 0 1M77.906 190a.5.5 0 1 0 0-1 .5.5 0 0 0 0 1M77.906 173a.5.5 0 1 0 0-1 .5.5 0 0 0 0 1M77.906 162a.5.5 0 1 0 0-1 .5.5 0 0 0 0 1M66.906 201a.5.5 0 1 0 0-1 .5.5 0 0 0 0 1M66.906 173a.5.5 0 1 0 0-1 .5.5 0 0 0 0 1M66.906 180a.5.5 0 1 0 0-1 .5.5 0 0 0 0 1M66.906 190a.5.5 0 1 0 0-1 .5.5 0 0 0 0 1M66.906 140a.5.5 0 1 0 0-1 .5.5 0 0 0 0 1M66.906 92a.5.5 0 1 0 0-1 .5.5 0 0 0 0 1M66.906 151a.5.5 0 1 0 0-1 .5.5 0 0 0 0 1M66.906 162a.5.5 0 1 0 0-1 .5.5 0 0 0 0 1M66.906 101a.5.5 0 1 0 0-1 .5.5 0 0 0 0 1M66.906 110a.5.5 0 1 0 0-1 .5.5 0 0 0 0 1M66.906 120a.5.5 0 1 0 0-1 .5.5 0 0 0 0 1M66.906 130a.5.5 0 1 0 0-1 .5.5 0 0 0 0 1M53.906 120a.5.5 0 1 0 0-1 .5.5 0 0 0 0 1M53.906 140a.5.5 0 1 0 0-1 .5.5 0 0 0 0 1M53.906 130a.5.5 0 1 0 0-1 .5.5 0 0 0 0 1M53.906 162a.5.5 0 1 0 0-1 .5.5 0 0 0 0 1M53.906 151a.5.5 0 1 0 0-1 .5.5 0 0 0 0 1M53.906 173a.5.5 0 1 0 0-1 .5.5 0 0 0 0 1M53.906 190a.5.5 0 1 0 0-1 .5.5 0 0 0 0 1M53.822 201c-.163 0-.31.1-.416.261.33.25.66.499.992.739.004-.04.008-.081.008-.124 0-.483-.262-.876-.584-.876M53.906 180a.5.5 0 1 0 0-1 .5.5 0 0 0 0 1M53.906 110a.5.5 0 1 0 0-1 .5.5 0 0 0 0 1M53.906 101a.5.5 0 1 0 0-1 .5.5 0 0 0 0 1M53.906 92a.5.5 0 1 0 0-1 .5.5 0 0 0 0 1M38.906 173a.5.5 0 1 0 0-1 .5.5 0 0 0 0 1M38.906 92a.5.5 0 1 0 0-1 .5.5 0 0 0 0 1M38.906 101a.5.5 0 1 0 0-1 .5.5 0 0 0 0 1M38.906 151a.5.5 0 1 0 0-1 .5.5 0 0 0 0 1M38.906 180a.5.5 0 1 0 0-1 .5.5 0 0 0 0 1M38.906 110a.5.5 0 1 0 0-1 .5.5 0 0 0 0 1M38.906 190a.5.5 0 1 0 0-1 .5.5 0 0 0 0 1M38.906 162a.5.5 0 1 0 0-1 .5.5 0 0 0 0 1M38.906 130a.5.5 0 1 0 0-1 .5.5 0 0 0 0 1M38.906 140a.5.5 0 1 0 0-1 .5.5 0 0 0 0 1M38.906 120a.5.5 0 1 0 0-1 .5.5 0 0 0 0 1M26.906 120a.5.5 0 1 0 0-1 .5.5 0 0 0 0 1M26.906 130a.5.5 0 1 0 0-1 .5.5 0 0 0 0 1M26.906 162a.5.5 0 1 0 0-1 .5.5 0 0 0 0 1M26.906 180a.5.5 0 1 0 0-1 .5.5 0 0 0 0 1M26.906 173a.5.5 0 1 0 0-1 .5.5 0 0 0 0 1M26.906 140a.5.5 0 1 0 0-1 .5.5 0 0 0 0 1M26.906 92a.5.5 0 1 0 0-1 .5.5 0 0 0 0 1M26.906 151a.5.5 0 1 0 0-1 .5.5 0 0 0 0 1M26.906 101a.5.5 0 1 0 0-1 .5.5 0 0 0 0 1M26.906 110a.5.5 0 1 0 0-1 .5.5 0 0 0 0 1M13.906 140a.5.5 0 1 0 0-1 .5.5 0 0 0 0 1M13.906 120a.5.5 0 1 0 0-1 .5.5 0 0 0 0 1M13.906 92a.5.5 0 1 0 0-1 .5.5 0 0 0 0 1M13.906 110a.5.5 0 1 0 0-1 .5.5 0 0 0 0 1M13.906 162a.5.5 0 1 0 0-1 .5.5 0 0 0 0 1M13.906 151a.5.5 0 1 0 0-1 .5.5 0 0 0 0 1M13.906 130a.5.5 0 1 0 0-1 .5.5 0 0 0 0 1M13.906 101a.5.5 0 1 0 0-1 .5.5 0 0 0 0 1M.906 129a.5.5 0 1 0 0 1 .5.5 0 0 0 0-1M.906 120a.5.5 0 1 0 0-1 .5.5 0 0 0 0 1M.906 92a.5.5 0 1 0 0-1 .5.5 0 0 0 0 1M.906 110a.5.5 0 1 0 0-1 .5.5 0 0 0 0 1M.906 101a.5.5 0 1 0 0-1 .5.5 0 0 0 0 1M1.406 139c.188.335.382.667.58 1 .254-.101.42-.263.42-.447 0-.302-.446-.547-1-.553M196.922 82c.224 0 .414-.14.484-.335-.034-.169-.071-.336-.107-.504a.521.521 0 0 0-.377-.161.508.508 0 0 0-.516.5c0 .276.231.5.516.5M182.906 61a.5.5 0 1 0 0-1 .5.5 0 0 0 0 1M182.906 72a.5.5 0 1 0 0-1 .5.5 0 0 0 0 1M182.906 50a.5.5 0 1 0 0-1 .5.5 0 0 0 0 1M182.906 82a.5.5 0 1 0 0-1 .5.5 0 0 0 0 1M170.906 82a.5.5 0 1 0 0-1 .5.5 0 0 0 0 1M170.906 50a.5.5 0 1 0 0-1 .5.5 0 0 0 0 1M170.906 72a.5.5 0 1 0 0-1 .5.5 0 0 0 0 1M170.906 61a.5.5 0 1 0 0-1 .5.5 0 0 0 0 1M171.009 32a.6.6 0 0 0 .397-.151 67.76 67.76 0 0 0-.838-.849.59.59 0 0 0-.162.404c0 .33.27.596.603.596M170.906 39a.5.5 0 1 0 0-1 .5.5 0 0 0 0 1M157.906 82a.5.5 0 1 0 0-1 .5.5 0 0 0 0 1M157.906 61a.5.5 0 1 0 0-1 .5.5 0 0 0 0 1M157.906 31a.5.5 0 1 0 0-1 .5.5 0 0 0 0 1M157.906 39a.5.5 0 1 0 0-1 .5.5 0 0 0 0 1M157.906 50a.5.5 0 1 0 0-1 .5.5 0 0 0 0 1M157.906 72a.5.5 0 1 0 0-1 .5.5 0 0 0 0 1M157.906 20a.5.5 0 0 0 .452-.71c-.128-.096-.258-.19-.388-.283-.02-.003-.041-.007-.064-.007a.5.5 0 0 0 0 1M143.906 50a.5.5 0 1 0 0-1 .5.5 0 0 0 0 1M143.906 39a.5.5 0 1 0 0-1 .5.5 0 0 0 0 1M143.906 61a.5.5 0 1 0 0-1 .5.5 0 0 0 0 1M143.906 82a.5.5 0 1 0 0-1 .5.5 0 0 0 0 1M143.906 72a.5.5 0 1 0 0-1 .5.5 0 0 0 0 1M143.906 31a.5.5 0 1 0 0-1 .5.5 0 0 0 0 1M143.906 20a.5.5 0 1 0 0-1 .5.5 0 0 0 0 1M130.906 82a.5.5 0 1 0 0-1 .5.5 0 0 0 0 1M130.906 72a.5.5 0 1 0 0-1 .5.5 0 0 0 0 1M130.906 31a.5.5 0 1 0 0-1 .5.5 0 0 0 0 1M130.906 11a.5.5 0 1 0 0-1 .5.5 0 0 0 0 1M130.906 20a.5.5 0 1 0 0-1 .5.5 0 0 0 0 1M130.906 61a.5.5 0 1 0 0-1 .5.5 0 0 0 0 1M130.906 39a.5.5 0 1 0 0-1 .5.5 0 0 0 0 1M130.906 50a.5.5 0 1 0 0-1 .5.5 0 0 0 0 1M119.906 82a.5.5 0 1 0 0-1 .5.5 0 0 0 0 1M119.906 11a.5.5 0 1 0 0-1 .5.5 0 0 0 0 1M119.906 61a.5.5 0 1 0 0-1 .5.5 0 0 0 0 1M119.906 39a.5.5 0 1 0 0-1 .5.5 0 0 0 0 1M119.906 31a.5.5 0 1 0 0-1 .5.5 0 0 0 0 1M119.906 50a.5.5 0 1 0 0-1 .5.5 0 0 0 0 1M119.906 20a.5.5 0 1 0 0-1 .5.5 0 0 0 0 1M105.916.958c.138 0 .273-.129.37-.355.054-.125.094-.279.12-.445a24.237 24.237 0 0 0-1-.158c.021.227.07.438.141.603.097.226.232.355.37.355M105.906 82a.5.5 0 1 0 0-1 .5.5 0 0 0 0 1M105.906 11a.5.5 0 1 0 0-1 .5.5 0 0 0 0 1M105.906 20a.5.5 0 1 0 0-1 .5.5 0 0 0 0 1M105.906 39a.5.5 0 1 0 0-1 .5.5 0 0 0 0 1M105.906 50a.5.5 0 1 0 0-1 .5.5 0 0 0 0 1M105.906 61a.5.5 0 1 0 0-1 .5.5 0 0 0 0 1M105.906 72a.5.5 0 1 0 0-1 .5.5 0 0 0 0 1M105.906 31a.5.5 0 1 0 0-1 .5.5 0 0 0 0 1M91.901 1c.135 0 .267-.121.361-.334.081-.178.13-.416.144-.666-.334.035-.667.08-1 .13.023.2.067.389.134.536.095.213.227.334.361.334M92.906 82a.5.5 0 1 0 0-1 .5.5 0 0 0 0 1M92.906 61a.5.5 0 1 0 0-1 .5.5 0 0 0 0 1M92.906 50a.5.5 0 1 0 0-1 .5.5 0 0 0 0 1M92.906 39a.5.5 0 1 0 0-1 .5.5 0 0 0 0 1M92.906 31a.5.5 0 1 0 0-1 .5.5 0 0 0 0 1M92.906 72a.5.5 0 1 0 0-1 .5.5 0 0 0 0 1M92.906 20a.5.5 0 1 0 0-1 .5.5 0 0 0 0 1M92.906 11a.5.5 0 1 0 0-1 .5.5 0 0 0 0 1M77.906 82a.5.5 0 1 0 0-1 .5.5 0 0 0 0 1M77.906 72a.5.5 0 1 0 0-1 .5.5 0 0 0 0 1M77.906 31a.5.5 0 1 0 0-1 .5.5 0 0 0 0 1M77.906 11a.5.5 0 1 0 0-1 .5.5 0 0 0 0 1M77.906 61a.5.5 0 1 0 0-1 .5.5 0 0 0 0 1M77.906 20a.5.5 0 1 0 0-1 .5.5 0 0 0 0 1M77.906 39a.5.5 0 1 0 0-1 .5.5 0 0 0 0 1M77.906 50a.5.5 0 1 0 0-1 .5.5 0 0 0 0 1M66.906 11a.5.5 0 1 0 0-1 .5.5 0 0 0 0 1M66.906 39a.5.5 0 1 0 0-1 .5.5 0 0 0 0 1M66.906 31a.5.5 0 1 0 0-1 .5.5 0 0 0 0 1M66.906 20a.5.5 0 1 0 0-1 .5.5 0 0 0 0 1M66.906 72a.5.5 0 1 0 0-1 .5.5 0 0 0 0 1M66.906 61a.5.5 0 1 0 0-1 .5.5 0 0 0 0 1M66.906 50a.5.5 0 1 0 0-1 .5.5 0 0 0 0 1M66.906 82a.5.5 0 1 0 0-1 .5.5 0 0 0 0 1M53.906 72a.5.5 0 1 0 0-1 .5.5 0 0 0 0 1M53.906 82a.5.5 0 1 0 0-1 .5.5 0 0 0 0 1M53.906 50a.5.5 0 1 0 0-1 .5.5 0 0 0 0 1M53.906 61a.5.5 0 1 0 0-1 .5.5 0 0 0 0 1M53.906 39a.5.5 0 1 0 0-1 .5.5 0 0 0 0 1M53.906 20a.5.5 0 1 0 0-1 .5.5 0 0 0 0 1M54.406 9.124c0-.043-.004-.084-.008-.124-.333.24-.662.49-.992.739.106.16.253.261.416.261.322 0 .584-.393.584-.876M53.906 31a.5.5 0 1 0 0-1 .5.5 0 0 0 0 1M38.906 39a.5.5 0 1 0 0-1 .5.5 0 0 0 0 1M38.906 61a.5.5 0 1 0 0-1 .5.5 0 0 0 0 1M38.906 31a.5.5 0 1 0 0-1 .5.5 0 0 0 0 1M38.906 20a.5.5 0 1 0 0-1 .5.5 0 0 0 0 1M38.906 50a.5.5 0 1 0 0-1 .5.5 0 0 0 0 1M38.906 82a.5.5 0 1 0 0-1 .5.5 0 0 0 0 1M38.906 72a.5.5 0 1 0 0-1 .5.5 0 0 0 0 1M26.906 82a.5.5 0 1 0 0-1 .5.5 0 0 0 0 1M26.906 50a.5.5 0 1 0 0-1 .5.5 0 0 0 0 1M26.906 31a.5.5 0 1 0 0-1 .5.5 0 0 0 0 1M26.906 39a.5.5 0 1 0 0-1 .5.5 0 0 0 0 1M26.906 72a.5.5 0 1 0 0-1 .5.5 0 0 0 0 1M26.906 61a.5.5 0 1 0 0-1 .5.5 0 0 0 0 1M13.906 72a.5.5 0 1 0 0-1 .5.5 0 0 0 0 1M13.906 50a.5.5 0 1 0 0-1 .5.5 0 0 0 0 1M13.906 61a.5.5 0 1 0 0-1 .5.5 0 0 0 0 1M13.906 82a.5.5 0 1 0 0-1 .5.5 0 0 0 0 1M.906 80a.5.5 0 1 0 0-1 .5.5 0 0 0 0 1M2.406 71.447c0-.184-.166-.346-.42-.447a41.93 41.93 0 0 0-.58 1c.554-.006 1-.25 1-.553"/>
    </g>
</svg>
