<svg xmlns="http://www.w3.org/2000/svg" viewBox="0 0 358.51 105.46"><defs><style>.cls-1{fill:#fff;}</style></defs><title>VP white logo</title><g id="Layer_2" data-name="Layer 2"><g id="Layer_1-2" data-name="Layer 1"><path class="cls-1" d="M48.26,41.9h6l6.43,17.34L67.11,41.9H73L63,66.69H58.21Z"/><path class="cls-1" d="M84,41.9h5.41V66.52H84Z"/><path class="cls-1" d="M111.41,66.87a16.22,16.22,0,0,1-5.52-1,14.54,14.54,0,0,1-4.92-3l3.2-3.83a16.21,16.21,0,0,0,3.46,2.18,9.28,9.28,0,0,0,3.89.81,4.77,4.77,0,0,0,2.62-.62,1.94,1.94,0,0,0,.93-1.7v-.08a2.12,2.12,0,0,0-.2-.93,1.88,1.88,0,0,0-.74-.75,7.44,7.44,0,0,0-1.51-.71c-.65-.23-1.49-.47-2.52-.73a33,33,0,0,1-3.39-1,9.61,9.61,0,0,1-2.57-1.39,5.6,5.6,0,0,1-1.64-2.06,7.11,7.11,0,0,1-.58-3.06V49a6.9,6.9,0,0,1,2.39-5.38A8,8,0,0,1,107,42.08a11,11,0,0,1,3.48-.53,14.68,14.68,0,0,1,5,.81,14.36,14.36,0,0,1,4.17,2.32l-2.82,4.08A18,18,0,0,0,113.59,47a8.31,8.31,0,0,0-3.16-.65,3.84,3.84,0,0,0-2.38.62,1.89,1.89,0,0,0-.79,1.53v.07a2.28,2.28,0,0,0,.23,1,2.12,2.12,0,0,0,.83.79,8.09,8.09,0,0,0,1.64.67c.69.21,1.57.45,2.62.73a25.6,25.6,0,0,1,3.34,1.11,9.69,9.69,0,0,1,2.47,1.48,5.59,5.59,0,0,1,1.51,2,6.87,6.87,0,0,1,.51,2.78v.07a7.64,7.64,0,0,1-.66,3.25,6.72,6.72,0,0,1-1.85,2.39,8.42,8.42,0,0,1-2.84,1.48A12.24,12.24,0,0,1,111.41,66.87Z"/><path class="cls-1" d="M132.4,41.9h5.42V66.52H132.4Z"/><path class="cls-1" d="M162.53,66.94a13.55,13.55,0,0,1-5.24-1,13,13,0,0,1-4.13-2.71,12.3,12.3,0,0,1-2.71-4,12.68,12.68,0,0,1-1-4.94v-.07a12.55,12.55,0,0,1,1-4.94,12.87,12.87,0,0,1,2.73-4,12.57,12.57,0,0,1,4.14-2.74,13.55,13.55,0,0,1,5.26-1,13.37,13.37,0,0,1,5.24,1,13,13,0,0,1,4.13,2.7,12.3,12.3,0,0,1,2.71,4,12.73,12.73,0,0,1,1,4.94v.07a12.38,12.38,0,0,1-1,4.94,12.61,12.61,0,0,1-6.87,6.79A13.73,13.73,0,0,1,162.53,66.94Zm.07-5a7.36,7.36,0,0,0,3-.6,6.88,6.88,0,0,0,2.34-1.66,7.71,7.71,0,0,0,1.51-2.44,8.08,8.08,0,0,0,.55-3v-.07a8.27,8.27,0,0,0-.55-3,7.39,7.39,0,0,0-1.55-2.46,7.54,7.54,0,0,0-2.37-1.67,7.21,7.21,0,0,0-3-.62,7.31,7.31,0,0,0-3,.6,6.84,6.84,0,0,0-2.33,1.66,7.71,7.71,0,0,0-1.51,2.44,8.12,8.12,0,0,0-.54,3v.07a8.3,8.3,0,0,0,.54,3,7.29,7.29,0,0,0,1.55,2.46,7.56,7.56,0,0,0,2.35,1.67A7.23,7.23,0,0,0,162.6,62Z"/><path class="cls-1" d="M186.44,41.9h5L203,57.06V41.9h5.35V66.52H203.7L191.78,50.87V66.52h-5.34Z"/><path class="cls-1" d="M221.25,41.9H231.3a11.84,11.84,0,0,1,4,.62,8.39,8.39,0,0,1,3,1.74A7.71,7.71,0,0,1,240.08,47a9,9,0,0,1,.64,3.46v.08a8.52,8.52,0,0,1-.77,3.75A7.56,7.56,0,0,1,237.83,57a9.19,9.19,0,0,1-3.17,1.64,13.53,13.53,0,0,1-3.88.54h-4.12v7.39h-5.41ZM231,54.32a4.4,4.4,0,0,0,3.17-1.08,3.54,3.54,0,0,0,1.12-2.65v-.07a3.34,3.34,0,0,0-1.18-2.78,5,5,0,0,0-3.21-1h-4.19v7.53Z"/><path class="cls-1" d="M262.66,66.94a13.59,13.59,0,0,1-5.24-1,13,13,0,0,1-4.13-2.71,12.3,12.3,0,0,1-2.71-4,12.68,12.68,0,0,1-1-4.94v-.07a12.55,12.55,0,0,1,1-4.94,12.87,12.87,0,0,1,2.73-4,12.57,12.57,0,0,1,4.14-2.74,13.55,13.55,0,0,1,5.26-1,13.37,13.37,0,0,1,5.24,1,13,13,0,0,1,4.13,2.7,12.3,12.3,0,0,1,2.71,4,12.73,12.73,0,0,1,1,4.94v.07a12.38,12.38,0,0,1-1,4.94,12.61,12.61,0,0,1-6.87,6.79A13.73,13.73,0,0,1,262.66,66.94Zm.07-5a7.36,7.36,0,0,0,3-.6,6.78,6.78,0,0,0,2.34-1.66,7.71,7.71,0,0,0,1.51-2.44,8.08,8.08,0,0,0,.55-3v-.07a8.27,8.27,0,0,0-.55-3,7.4,7.4,0,0,0-3.92-4.13,7.21,7.21,0,0,0-3-.62,7.31,7.31,0,0,0-3,.6,6.84,6.84,0,0,0-2.33,1.66,7.89,7.89,0,0,0-1.51,2.44,8.12,8.12,0,0,0-.54,3v.07a8.3,8.3,0,0,0,.54,3,7.43,7.43,0,0,0,3.91,4.13A7.15,7.15,0,0,0,262.73,62Z"/><path class="cls-1" d="M286.81,41.9h5.42V66.52h-5.42Z"/><path class="cls-1" d="M305.42,41.9h5l11.53,15.16V41.9h5.34V66.52h-4.6L310.76,50.87V66.52h-5.34Z"/><path class="cls-1" d="M345.6,46.9h-7.49v-5h20.4v5H351V66.52H345.6Z"/><path class="cls-1" d="M69.41,80.43h5.84l6.47,10.41,6.47-10.41H94V105H88.68V89L81.75,99.49h-.14L74.76,89.08v16H69.41Z"/><path class="cls-1" d="M113.64,80.26h5L129.18,105h-5.66l-2.25-5.52H110.86L108.61,105h-5.52Zm5.7,14.48-3.27-8-3.27,8Z"/><path class="cls-1" d="M138.25,80.43H149.5q4.68,0,7.18,2.5a7.61,7.61,0,0,1,2.11,5.62v.07a7.73,7.73,0,0,1-1.46,4.87,8.42,8.42,0,0,1-3.82,2.76l6,8.79H153.2l-5.28-7.87h-4.25V105h-5.42Zm10.9,11.95a4.52,4.52,0,0,0,3.08-.94,3.25,3.25,0,0,0,1.07-2.54v-.06a3.1,3.1,0,0,0-1.13-2.64,4.91,4.91,0,0,0-3.12-.88h-5.38v7.06Z"/><path class="cls-1" d="M170.71,80.43h5.41V91.19l10-10.76h6.54l-10,10.44L193.1,105h-6.5L179,94.57l-2.85,3V105h-5.41Z"/><path class="cls-1" d="M203.4,80.43h18.53v4.82H208.75v5h11.6v4.82h-11.6v5.17h13.36V105H203.4Z"/><path class="cls-1" d="M239.72,85.42h-7.49v-5h20.39v5h-7.49V105h-5.41Z"/><path class="cls-1" d="M263.35,80.43h5.41V105h-5.41Z"/><path class="cls-1" d="M282,80.43h5l11.53,15.15V80.43h5.35V105h-4.61L287.29,89.4V105H282Z"/><path class="cls-1" d="M327.9,105.46a14.06,14.06,0,0,1-5.25-.94,12.18,12.18,0,0,1-4.08-2.64,11.87,11.87,0,0,1-2.66-4,13.29,13.29,0,0,1-1-5.06v-.07a12.69,12.69,0,0,1,3.66-9A12.68,12.68,0,0,1,322.7,81a13.2,13.2,0,0,1,5.17-1,18.3,18.3,0,0,1,3,.23,14.51,14.51,0,0,1,2.52.65A11.56,11.56,0,0,1,335.57,82a14.61,14.61,0,0,1,2,1.43l-3.41,4.12a14.33,14.33,0,0,0-1.4-1.06,9.72,9.72,0,0,0-1.46-.77,9,9,0,0,0-1.64-.49,9.6,9.6,0,0,0-1.93-.18,6.34,6.34,0,0,0-2.76.62,7.42,7.42,0,0,0-3.76,4.09,7.93,7.93,0,0,0-.55,3v.06a8.52,8.52,0,0,0,.55,3.12,7.56,7.56,0,0,0,1.54,2.49,7.21,7.21,0,0,0,2.36,1.64,7.66,7.66,0,0,0,3,.58,8.51,8.51,0,0,0,5.09-1.49V95.55h-5.44V90.87h10.68v10.69a17.88,17.88,0,0,1-4.51,2.76A14.93,14.93,0,0,1,327.9,105.46Z"/><g id="Logo"><path class="cls-1" d="M28.53,14.27A14.27,14.27,0,1,1,14.27,0,14.25,14.25,0,0,1,28.53,14.27"/><path class="cls-1" d="M54.1,20.44a8.74,8.74,0,1,1-8.74-8.73,8.74,8.74,0,0,1,8.74,8.73"/><path class="cls-1" d="M35.65,44.25a6.33,6.33,0,1,1-6.33-6.33,6.32,6.32,0,0,1,6.33,6.33"/></g></g></g></svg>