<svg xmlns="http://www.w3.org/2000/svg" viewBox="0 0 107.01 31.48"><defs><style>.cls-1{fill:#bfbfbf;}.cls-2{fill:#1c2855;}.cls-3{fill:#f16822;}.cls-4{fill:#329ab3;}</style></defs><title>Asset 3</title><g id="Layer_2" data-name="Layer 2"><g id="Layer_1-2" data-name="Layer 1"><path class="cls-1" d="M14.41,12.51h1.78l1.92,5.17L20,12.51h1.74l-3,7.4H17.38Z"/><path class="cls-1" d="M25.08,12.51H26.7v7.34H25.08Z"/><path class="cls-1" d="M33.26,20a4.94,4.94,0,0,1-1.65-.29,4.3,4.3,0,0,1-1.47-.89l.95-1.14a4.84,4.84,0,0,0,1,.65,2.77,2.77,0,0,0,1.16.24,1.45,1.45,0,0,0,.78-.18.59.59,0,0,0,.28-.51v0a.61.61,0,0,0-.06-.28.67.67,0,0,0-.22-.23l-.45-.21c-.2-.06-.45-.14-.76-.21s-.71-.2-1-.31a2.88,2.88,0,0,1-.76-.41,1.56,1.56,0,0,1-.49-.62,2,2,0,0,1-.18-.91v0a2.06,2.06,0,0,1,.19-.91,2,2,0,0,1,.53-.7,2.43,2.43,0,0,1,.81-.45,3.37,3.37,0,0,1,1-.16,4.44,4.44,0,0,1,1.49.24,4.61,4.61,0,0,1,1.24.7l-.84,1.21a5.8,5.8,0,0,0-1-.53,2.68,2.68,0,0,0-.95-.19,1.18,1.18,0,0,0-.71.18.59.59,0,0,0-.23.46v0a.62.62,0,0,0,.07.31.55.55,0,0,0,.24.24,3.06,3.06,0,0,0,.49.2l.79.22a8.19,8.19,0,0,1,1,.33,2.79,2.79,0,0,1,.74.44,1.64,1.64,0,0,1,.45.6,2.09,2.09,0,0,1,.15.83v0a2.13,2.13,0,0,1-.2,1,2,2,0,0,1-.55.72,2.49,2.49,0,0,1-.84.44A3.78,3.78,0,0,1,33.26,20Z"/><path class="cls-1" d="M39.52,12.51h1.62v7.34H39.52Z"/><path class="cls-1" d="M48.52,20a4,4,0,0,1-1.57-.3,3.87,3.87,0,0,1-1.23-.81,3.49,3.49,0,0,1-.81-1.19,3.83,3.83,0,0,1-.29-1.48v0a3.82,3.82,0,0,1,.29-1.47,3.87,3.87,0,0,1,.82-1.21A3.68,3.68,0,0,1,47,12.68a4.23,4.23,0,0,1,3.13,0,3.87,3.87,0,0,1,1.23.81,3.54,3.54,0,0,1,.81,1.2,3.78,3.78,0,0,1,.29,1.47v0a3.67,3.67,0,0,1-1.11,2.68,3.68,3.68,0,0,1-1.24.82A4,4,0,0,1,48.52,20Zm0-1.49a2.21,2.21,0,0,0,.89-.18,2.16,2.16,0,0,0,.7-.49,2.36,2.36,0,0,0,.45-.73,2.38,2.38,0,0,0,.16-.89v0a2.42,2.42,0,0,0-.16-.89,2.28,2.28,0,0,0-.47-.74,2.22,2.22,0,0,0-1.59-.68,2.19,2.19,0,0,0-.9.18,2.16,2.16,0,0,0-.7.49,2.48,2.48,0,0,0-.45.73,2.42,2.42,0,0,0-.16.89v0a2.38,2.38,0,0,0,.16.89,2.28,2.28,0,0,0,.47.74,2.23,2.23,0,0,0,.7.5A2.19,2.19,0,0,0,48.54,18.49Z"/><path class="cls-1" d="M55.65,12.51h1.49L60.58,17V12.51h1.6v7.34H60.8l-3.55-4.67v4.67h-1.6Z"/><path class="cls-1" d="M66,12.51h3a3.57,3.57,0,0,1,1.18.18,2.61,2.61,0,0,1,.89.52,2.34,2.34,0,0,1,.55.8,2.71,2.71,0,0,1,.2,1v0a2.46,2.46,0,0,1-.24,1.12A2.28,2.28,0,0,1,71,17a2.81,2.81,0,0,1-.94.49,4,4,0,0,1-1.16.16H67.66v2.2H66Zm2.9,3.7a1.28,1.28,0,0,0,.94-.32,1,1,0,0,0,.34-.79v0a1,1,0,0,0-.35-.83,1.5,1.5,0,0,0-1-.28H67.66v2.24Z"/><path class="cls-1" d="M78.4,20a4,4,0,0,1-1.56-.3,3.76,3.76,0,0,1-1.23-.81,3.49,3.49,0,0,1-.81-1.19,3.83,3.83,0,0,1-.29-1.48v0a3.82,3.82,0,0,1,.29-1.47,3.87,3.87,0,0,1,.82-1.21,3.68,3.68,0,0,1,1.24-.82,4,4,0,0,1,1.56-.3,4,4,0,0,1,1.57.3,4,4,0,0,1,1.23.81,3.54,3.54,0,0,1,.81,1.2,3.78,3.78,0,0,1,.29,1.47v0a3.78,3.78,0,0,1-1.11,2.68,3.78,3.78,0,0,1-1.24.82A4,4,0,0,1,78.4,20Zm0-1.49a2.23,2.23,0,0,0,.9-.18,2,2,0,0,0,.69-.49,2.21,2.21,0,0,0,.46-.73,2.6,2.6,0,0,0,.16-.89v0a2.65,2.65,0,0,0-.16-.89,2.28,2.28,0,0,0-.47-.74,2.16,2.16,0,0,0-.7-.49,2.08,2.08,0,0,0-.9-.19,2.11,2.11,0,0,0-.89.18,2.16,2.16,0,0,0-.7.49,2.48,2.48,0,0,0-.45.73,2.42,2.42,0,0,0-.16.89v0a2.38,2.38,0,0,0,.16.89,2.25,2.25,0,0,0,.46.74,2.4,2.4,0,0,0,.71.5A2.18,2.18,0,0,0,78.42,18.49Z"/><path class="cls-1" d="M85.61,12.51h1.62v7.34H85.61Z"/><path class="cls-1" d="M91.17,12.51h1.49L96.1,17V12.51h1.59v7.34H96.32l-3.56-4.67v4.67H91.17Z"/><path class="cls-1" d="M103.16,14h-2.23V12.51H107V14h-2.23v5.85h-1.62Z"/><path class="cls-1" d="M20.72,24h1.74l1.93,3.1L26.32,24h1.74v7.34H26.47V26.56L24.4,29.7h0l-2.05-3.11v4.76H20.72Z"/><path class="cls-1" d="M33.92,24h1.49l3.15,7.39H36.87l-.67-1.64H33.09l-.67,1.64H30.77Zm1.7,4.32-1-2.38-1,2.38Z"/><path class="cls-1" d="M41.27,24h3.36a2.93,2.93,0,0,1,2.14.74,2.27,2.27,0,0,1,.63,1.68v0A2.33,2.33,0,0,1,47,27.91a2.51,2.51,0,0,1-1.14.82l1.8,2.62H45.73L44.15,29H42.88v2.35H41.27Zm3.25,3.57a1.33,1.33,0,0,0,.92-.29,1,1,0,0,0,.32-.75v0a.92.92,0,0,0-.34-.79,1.43,1.43,0,0,0-.93-.26H42.88v2.11Z"/><path class="cls-1" d="M51,24h1.62v3.21l3-3.21h2l-3,3.12,3.13,4.22H55.7l-2.28-3.12-.85.88v2.24H51Z"/><path class="cls-1" d="M60.72,24h5.53v1.44H62.31v1.49h3.46v1.43H62.31v1.55h4v1.43H60.72Z"/><path class="cls-1" d="M71.56,25.5H69.32V24h6.09V25.5H73.17v5.85H71.56Z"/><path class="cls-1" d="M78.61,24h1.61v7.34H78.61Z"/><path class="cls-1" d="M84.16,24h1.49l3.44,4.52V24h1.6v7.34H89.31l-3.55-4.67v4.67h-1.6Z"/><path class="cls-1" d="M97.88,31.48a4.14,4.14,0,0,1-1.57-.28,3.62,3.62,0,0,1-1.22-.79,3.53,3.53,0,0,1-.79-1.2A3.9,3.9,0,0,1,94,27.7v0A3.7,3.7,0,0,1,95.11,25a3.75,3.75,0,0,1,1.21-.82,3.93,3.93,0,0,1,1.55-.3,6.06,6.06,0,0,1,.89.07,5.13,5.13,0,0,1,.75.19,3.57,3.57,0,0,1,.65.32,4.94,4.94,0,0,1,.59.43l-1,1.23a3.9,3.9,0,0,0-.42-.32,3.55,3.55,0,0,0-.43-.23,2.34,2.34,0,0,0-.49-.14,2.58,2.58,0,0,0-.58-.06,1.8,1.8,0,0,0-.82.19,2,2,0,0,0-.67.49,2.44,2.44,0,0,0-.62,1.62v0a2.6,2.6,0,0,0,.17.93,2.25,2.25,0,0,0,.46.74,2.16,2.16,0,0,0,.7.49,2.37,2.37,0,0,0,.9.17,2.58,2.58,0,0,0,1.52-.44V28.52H97.82V27.13H101v3.19a5.58,5.58,0,0,1-1.35.82A4.4,4.4,0,0,1,97.88,31.48Z"/><g id="Logo"><path class="cls-2" d="M8.52,4.26A4.26,4.26,0,1,1,4.26,0,4.26,4.26,0,0,1,8.52,4.26"/><path class="cls-3" d="M16.15,6.1a2.61,2.61,0,1,1-2.61-2.61A2.61,2.61,0,0,1,16.15,6.1"/><path class="cls-4" d="M10.64,13.21a1.89,1.89,0,1,1-1.89-1.89,1.89,1.89,0,0,1,1.89,1.89"/></g></g></g></svg>